<?xml version="1.0" encoding="utf-8"?>
<!-- Generator: Adobe Illustrator 25.4.1, SVG Export Plug-In . SVG Version: 6.00 Build 0)  -->
<svg version="1.1" id="Layer_1" xmlns="http://www.w3.org/2000/svg" xmlns:xlink="http://www.w3.org/1999/xlink" x="0px" y="0px"
	 viewBox="0 0 50 50" style="enable-background:new 0 0 50 50;" xml:space="preserve">
<style type="text/css">
	.st0{fill:#CABEDA;}
	.st1{fill:#262580;}
	.st2{fill:#D5D0BD;}
</style>
<g>
	<g>
		<circle class="st0" cx="25" cy="25" r="24"/>
	</g>
	<g>
		<path class="st1" d="M25,4C25,4,24.99,4,25,4c-0.01,0-0.01,0-0.01,0c0,0,0,0-0.01,0c0,0,0,0,0,0c0,0,0,0-0.01,0c0,0,0,0,0,0
			c0,0,0,0-0.01,0c0,0,0,0,0,0c0,0,0,0-0.01,0c0,0,0,0,0,0c0,0,0,0,0,0c0,0,0,0,0,0c0,0,0,0,0,0c0,0,0,0,0,0c0,0,0,0,0,0
			c0,0,0,0,0,0c0,0,0,0,0,0c0,0,0,0,0,0c0,0,0,0,0,0c0,0,0,0,0,0c0,0,0,0-0.01,0c0,0,0,0,0,0c0,0,0,0-0.01,0c0,0,0,0,0,0
			c0,0,0,0-0.01,0c0,0,0,0,0,0c0,0,0,0-0.01,0c0,0,0,0,0,0c-0.01,0-0.01,0-0.02,0c0,0,0,0,0,0c0,0,0,0-0.01,0c0,0,0,0,0,0
			c0,0,0,0-0.01,0c0,0,0,0,0,0c0,0,0,0-0.01,0c0,0,0,0,0,0c0,0,0,0,0,0c0,0,0,0,0,0c0,0,0,0,0,0c0,0,0,0,0,0c0,0,0,0,0,0
			c0,0,0,0,0,0c0,0,0,0-0.01,0c0,0,0,0,0,0c0,0,0,0,0,0c0,0,0,0,0,0c0,0,0,0,0,0c0,0,0,0,0,0c0,0,0,0,0,0c0,0,0,0,0,0
			c0,0,0,0-0.01,0c0,0,0,0,0,0c0,0,0,0-0.01,0c0,0,0,0,0,0c0,0,0,0-0.01,0c0,0,0,0,0,0c-0.01,0-0.01,0-0.02,0c0,0,0,0,0,0
			c0,0,0,0-0.01,0c0,0,0,0,0,0c0,0,0,0,0,0c0,0,0,0,0,0c0,0,0,0,0,0c0,0,0,0,0,0c0,0,0,0,0,0c0,0,0,0,0,0c0,0,0,0,0,0c0,0,0,0,0,0
			c0,0,0,0,0,0c0,0,0,0,0,0c0,0,0,0,0,0c0,0,0,0,0,0c0,0,0,0,0,0c0,0,0,0,0,0c0,0,0,0,0,0c0,0,0,0,0,0c0,0,0,0,0,0c0,0,0,0,0,0
			c0,0,0,0-0.01,0c0,0,0,0,0,0c0,0,0,0-0.01,0c0,0,0,0,0,0c0,0,0,0-0.01,0c0,0,0,0,0,0c-0.01,0-0.01,0-0.02,0c0,0,0,0,0,0
			c0,0,0,0,0,0c0,0,0,0,0,0c0,0,0,0,0,0c0,0,0,0,0,0c0,0,0,0,0,0c0,0,0,0,0,0c0,0,0,0,0,0c0,0,0,0,0,0c0,0,0,0,0,0c0,0,0,0,0,0
			c0,0,0,0,0,0c0,0,0,0,0,0c0,0,0,0,0,0c0,0,0,0,0,0c0,0,0,0,0,0c0,0,0,0,0,0c0,0,0,0,0,0c0,0,0,0,0,0c0,0,0,0,0,0c0,0,0,0,0,0
			c0,0,0,0,0,0c0,0,0,0,0,0c0,0,0,0-0.01,0c0,0,0,0,0,0c0,0,0,0-0.01,0c0,0,0,0,0,0c-0.01,0-0.01,0-0.02,0c0,0,0,0,0,0
			c0,0,0,0-0.01,0c0,0,0,0,0,0c0,0,0,0,0,0c0,0,0,0,0,0c0,0,0,0,0,0c0,0,0,0,0,0c0,0,0,0,0,0c0,0,0,0,0,0c0,0,0,0,0,0c0,0,0,0,0,0
			c0,0,0,0,0,0c0,0,0,0,0,0c0,0,0,0,0,0c0,0,0,0,0,0c0,0,0,0,0,0c0,0,0,0,0,0c0,0,0,0,0,0c0,0,0,0,0,0c0,0,0,0,0,0c0,0,0,0,0,0
			c0,0,0,0,0,0c0,0,0,0,0,0c0,0,0,0,0,0c0,0,0,0,0,0c0,0,0,0,0,0c0,0,0,0,0,0c0,0,0,0-0.01,0c0,0,0,0,0,0c0,0,0,0-0.01,0
			c0,0,0,0-0.01,0c0,0,0,0,0,0c0,0,0,0,0,0c0,0,0,0,0,0c0,0,0,0,0,0c0,0,0,0,0,0c0,0,0,0,0,0c0,0,0,0,0,0c0,0,0,0,0,0c0,0,0,0,0,0
			c0,0,0,0,0,0c0,0,0,0,0,0c0,0,0,0,0,0c0,0,0,0,0,0c0,0,0,0,0,0c0,0,0,0,0,0c0,0,0,0,0,0c0,0,0,0,0,0c0,0,0,0,0,0c0,0,0,0,0,0
			c0,0,0,0,0,0c0,0,0,0,0,0c0,0,0,0,0,0c0,0,0,0,0,0c0,0,0,0-0.01,0c0,0,0,0,0,0c0,0,0,0,0,0c0,0,0,0-0.01,0c0,0,0,0,0,0
			c0,0-0.01,0-0.01,0c0,0,0,0-0.01,0c0,0,0,0,0,0c0,0,0,0-0.01,0c0,0,0,0,0,0c0,0,0,0,0,0c0,0,0,0,0,0c0,0,0,0-0.01,0c0,0,0,0,0,0
			c0,0,0,0-0.01,0c0,0,0,0,0,0c0,0,0,0-0.01,0c0,0,0,0,0,0c0,0,0,0,0,0c0,0,0,0,0,0c0,0,0,0,0,0c0,0,0,0,0,0c0,0,0,0,0,0
			c0,0,0,0,0,0c0,0,0,0,0,0c0,0,0,0,0,0c0,0,0,0,0,0c0,0,0,0,0,0c0,0,0,0,0,0c0,0,0,0,0,0c0,0,0,0,0,0c0,0,0,0,0,0c0,0,0,0,0,0
			c0,0,0,0,0,0c0,0,0,0,0,0c0,0,0,0-0.01,0c0,0-0.01,0-0.01,0c0,0,0,0,0,0c0,0,0,0-0.01,0c0,0,0,0,0,0c0,0,0,0-0.01,0c0,0,0,0,0,0
			c0,0,0,0,0,0c0,0,0,0,0,0c0,0,0,0,0,0c0,0,0,0,0,0c0,0,0,0,0,0c0,0,0,0,0,0c0,0,0,0,0,0c0,0,0,0,0,0c0,0,0,0,0,0c0,0,0,0,0,0
			c0,0,0,0,0,0c0,0,0,0,0,0c0,0,0,0-0.01,0c0,0,0,0,0,0c0,0,0,0-0.01,0c0,0,0,0,0,0c0,0,0,0,0,0c0,0,0,0,0,0c0,0,0,0-0.01,0
			c0,0,0,0,0,0c0,0,0,0-0.01,0c0,0,0,0,0,0c-0.01,0-0.01,0-0.02,0c0,0,0,0,0,0c0,0,0,0-0.01,0c0,0,0,0,0,0c0,0,0,0,0,0c0,0,0,0,0,0
			c0,0,0,0-0.01,0c0,0,0,0,0,0c0,0,0,0-0.01,0c0,0,0,0,0,0c0,0,0,0-0.01,0c0,0,0,0,0,0c0,0,0,0-0.01,0c0,0,0,0,0,0c0,0,0,0-0.01,0
			c0,0,0,0,0,0c0,0,0,0-0.01,0c0,0,0,0,0,0c0,0,0,0-0.01,0c0,0,0,0,0,0c0,0,0,0-0.01,0c0,0,0,0,0,0c0,0,0,0-0.01,0l0,0
			c0,0,0,0-0.01,0l0,0c-0.01,0-0.03,0-0.04,0c0,0,0,0,0,0c0,0,0,0-0.01,0c0,0,0,0,0,0c0,0,0,0-0.01,0c0,0,0,0,0,0c0,0,0,0-0.01,0
			c0,0,0,0,0,0c0,0,0,0-0.01,0c0,0,0,0,0,0c0,0,0,0-0.01,0c0,0,0,0,0,0c0,0,0,0-0.01,0c0,0,0,0,0,0c0,0,0,0-0.01,0c0,0,0,0,0,0
			c0,0,0,0-0.01,0c0,0,0,0,0,0c0,0,0,0-0.01,0c0,0,0,0,0,0c0,0,0,0-0.01,0l0,0c0,0,0,0-0.01,0c0,0,0,0,0,0c-0.01,0-0.03,0-0.04,0
			l0,0c0,0,0,0-0.01,0l0,0c0,0,0,0-0.01,0c0,0,0,0,0,0c0,0,0,0-0.01,0c0,0,0,0,0,0c0,0,0,0-0.01,0c0,0,0,0,0,0c0,0,0,0-0.01,0l0,0
			c0,0,0,0-0.01,0c0,0,0,0,0,0c0,0,0,0-0.01,0c0,0,0,0,0,0c0,0,0,0-0.01,0c0,0,0,0,0,0c0,0,0,0-0.01,0l0,0c0,0-0.01,0-0.01,0l0,0
			c-0.02,0-0.03,0-0.05,0l0,0c0,0,0,0-0.01,0l0,0c0,0,0,0-0.01,0c0,0,0,0,0,0c0,0,0,0-0.01,0c0,0,0,0,0,0c0,0,0,0-0.01,0
			c0,0,0,0,0,0c0,0,0,0-0.01,0l0,0c0,0,0,0-0.01,0c0,0,0,0,0,0c0,0,0,0-0.01,0c0,0,0,0,0,0c0,0-0.01,0-0.01,0l0,0
			c-0.03,0-0.05,0-0.08,0.01l0,0c0,0-0.01,0-0.01,0c0,0,0,0,0,0c0,0,0,0-0.01,0l0,0c0,0,0,0-0.01,0l0,0c0,0,0,0-0.01,0l0,0
			c-0.04,0-0.07,0.01-0.11,0.01l0,0c-0.01,0-0.01,0-0.02,0l0,0c-0.76,0.06-1.52,0.16-2.26,0.31l0.19,0.98C22.45,5.12,23.73,5,25,5V4
			L25,4L25,4z M18.13,5.15C18.13,5.15,18.13,5.15,18.13,5.15C18.12,5.15,18.12,5.15,18.13,5.15c-0.01,0-0.01,0-0.01,0c0,0,0,0,0,0
			c0,0,0,0,0,0c0,0,0,0,0,0c0,0,0,0,0,0c0,0,0,0,0,0c0,0,0,0,0,0c0,0,0,0,0,0c0,0,0,0,0,0c0,0,0,0,0,0c0,0,0,0,0,0c0,0,0,0,0,0
			c0,0,0,0,0,0c0,0,0,0-0.01,0c0,0,0,0,0,0c0,0,0,0,0,0c0,0,0,0,0,0c0,0,0,0,0,0c0,0,0,0,0,0c0,0,0,0,0,0c0,0,0,0,0,0
			c0,0,0,0-0.01,0c0,0,0,0,0,0c0,0,0,0,0,0c0,0,0,0,0,0c0,0,0,0,0,0c0,0,0,0,0,0c0,0,0,0,0,0c0,0,0,0,0,0c0,0,0,0-0.01,0
			c0,0,0,0,0,0c0,0,0,0-0.01,0c0,0,0,0,0,0c0,0,0,0-0.01,0c0,0,0,0,0,0c0,0,0,0-0.01,0c0,0,0,0,0,0c0,0,0,0-0.01,0c0,0,0,0,0,0
			c0,0,0,0-0.01,0c0,0,0,0,0,0c0,0,0,0-0.01,0c0,0,0,0,0,0c0,0,0,0-0.01,0c0,0,0,0,0,0c0,0,0,0-0.01,0c0,0,0,0,0,0c0,0,0,0-0.01,0
			c0,0,0,0,0,0c0,0,0,0-0.01,0c0,0,0,0,0,0c0,0,0,0-0.01,0c0,0,0,0,0,0c0,0,0,0-0.01,0c0,0,0,0,0,0c-0.01,0-0.01,0-0.01,0.01
			c0,0,0,0,0,0c-0.97,0.35-1.9,0.76-2.8,1.24c0,0,0,0,0,0c0,0-0.01,0-0.01,0.01c0,0,0,0,0,0c0,0,0,0-0.01,0c0,0,0,0,0,0
			c0,0,0,0-0.01,0c0,0,0,0,0,0c0,0,0,0-0.01,0c0,0,0,0,0,0c0,0,0,0-0.01,0c0,0,0,0,0,0c0,0-0.01,0-0.01,0.01c0,0,0,0,0,0
			c0,0-0.01,0-0.01,0.01c0,0,0,0,0,0c0,0,0,0-0.01,0c0,0,0,0,0,0c0,0,0,0,0,0c0,0,0,0,0,0c0,0,0,0,0,0c0,0,0,0-0.01,0l0,0
			c-0.03,0.01-0.05,0.03-0.08,0.04l0,0c-0.01,0-0.02,0.01-0.03,0.01l0,0c-0.14,0.07-0.27,0.15-0.41,0.23L15,7.68
			c1.1-0.64,2.26-1.17,3.46-1.58L18.13,5.15L18.13,5.15z M12.02,8.49c-0.08,0.06-0.16,0.13-0.24,0.2l0,0c0,0-0.01,0.01-0.01,0.01
			l0,0c0,0-0.01,0.01-0.01,0.01l0,0c0,0-0.01,0.01-0.01,0.01l0,0c0,0-0.01,0.01-0.01,0.01l0,0c0,0-0.01,0.01-0.01,0.01l0,0
			c0,0-0.01,0.01-0.01,0.01l0,0c0,0-0.01,0.01-0.01,0.01l0,0c0,0-0.01,0.01-0.01,0.01c0,0,0,0,0,0c0,0-0.01,0.01-0.01,0.01
			c0,0,0,0,0,0c0,0-0.01,0.01-0.01,0.01c0,0,0,0,0,0c0,0-0.01,0.01-0.01,0.01c0,0,0,0,0,0c0,0-0.01,0.01-0.01,0.01c0,0,0,0,0,0
			c0,0-0.01,0.01-0.01,0.01c0,0,0,0,0,0c0,0-0.01,0.01-0.01,0.01c0,0,0,0,0,0c0,0-0.01,0.01-0.01,0.01c0,0,0,0,0,0
			c0,0-0.01,0.01-0.01,0.01c0,0,0,0,0,0c0,0-0.01,0.01-0.01,0.01c0,0,0,0,0,0c0,0-0.01,0.01-0.01,0.01c0,0,0,0,0,0
			c0,0-0.01,0.01-0.01,0.01c0,0,0,0,0,0c0,0-0.01,0-0.01,0.01c0,0,0,0,0,0c0,0-0.01,0-0.01,0.01c0,0,0,0,0,0c0,0-0.01,0-0.01,0.01
			c0,0,0,0,0,0c0,0-0.01,0-0.01,0.01c0,0,0,0,0,0c0,0-0.01,0-0.01,0.01c0,0,0,0,0,0c0,0-0.01,0-0.01,0.01c0,0,0,0,0,0
			c0,0-0.01,0-0.01,0.01c0,0,0,0,0,0c0,0-0.01,0-0.01,0.01c0,0,0,0,0,0c0,0-0.01,0-0.01,0.01c0,0,0,0,0,0c0,0-0.01,0-0.01,0.01
			c0,0,0,0,0,0c0,0-0.01,0-0.01,0.01c0,0,0,0,0,0c0,0-0.01,0-0.01,0.01c0,0,0,0,0,0c0,0-0.01,0-0.01,0.01c0,0,0,0,0,0
			c0,0-0.01,0-0.01,0.01c0,0,0,0,0,0c0,0-0.01,0-0.01,0.01c0,0,0,0,0,0c0,0-0.01,0-0.01,0.01c0,0,0,0,0,0c0,0,0,0-0.01,0.01
			c0,0,0,0-0.01,0c0,0,0,0-0.01,0.01c0,0,0,0-0.01,0c0,0,0,0-0.01,0.01c0,0,0,0-0.01,0.01c0,0,0,0-0.01,0.01c0,0,0,0-0.01,0
			c0,0,0,0-0.01,0c0,0,0,0-0.01,0.01c0,0,0,0-0.01,0c0,0,0,0-0.01,0.01c0,0,0,0-0.01,0c0,0,0,0-0.01,0.01c0,0,0,0-0.01,0
			c0,0,0,0-0.01,0.01c0,0,0,0,0,0c0,0-0.01,0-0.01,0.01c0,0,0,0,0,0c0,0-0.01,0-0.01,0.01c0,0,0,0,0,0c0,0-0.01,0-0.01,0.01
			c0,0,0,0,0,0c0,0-0.01,0-0.01,0.01c0,0,0,0,0,0c0,0-0.01,0-0.01,0.01c0,0,0,0,0,0c0,0-0.01,0-0.01,0.01c0,0,0,0,0,0
			c0,0-0.01,0-0.01,0.01c0,0,0,0,0,0c0,0-0.01,0-0.01,0.01c0,0,0,0,0,0c0,0-0.01,0.01-0.01,0.01c0,0,0,0,0,0
			c0,0-0.01,0.01-0.01,0.01c0,0,0,0,0,0c0,0-0.01,0.01-0.01,0.01c0,0,0,0,0,0c0,0-0.01,0-0.01,0.01c0,0,0,0,0,0
			c0,0-0.01,0.01-0.01,0.01c0,0,0,0,0,0c0,0-0.01,0.01-0.01,0.01c0,0,0,0,0,0c0,0-0.01,0.01-0.01,0.01c0,0,0,0,0,0
			c0,0-0.01,0.01-0.01,0.01c0,0,0,0,0,0c0,0-0.01,0.01-0.01,0.01c0,0,0,0,0,0c0,0-0.01,0.01-0.01,0.01c0,0,0,0,0,0
			c0,0-0.01,0.01-0.01,0.01c0,0,0,0,0,0c0,0-0.01,0.01-0.01,0.01c0,0,0,0,0,0c0,0-0.01,0.01-0.01,0.01c0,0,0,0,0,0
			c0,0-0.01,0.01-0.01,0.01c0,0,0,0,0,0c0,0-0.01,0.01-0.01,0.01c0,0,0,0,0,0c0,0-0.01,0.01-0.01,0.01c0,0,0,0,0,0
			c0,0-0.01,0.01-0.01,0.01c0,0,0,0,0,0c0,0-0.01,0.01-0.01,0.01c0,0,0,0,0,0c0,0-0.01,0.01-0.01,0.01c0,0,0,0,0,0
			c0,0-0.01,0.01-0.01,0.01c0,0,0,0,0,0c0,0-0.01,0.01-0.01,0.01c0,0,0,0,0,0c0,0-0.01,0.01-0.01,0.01c0,0,0,0,0,0
			c0,0-0.01,0.01-0.01,0.01c0,0,0,0,0,0c0,0-0.01,0.01-0.01,0.01l0,0c-0.62,0.56-1.2,1.16-1.75,1.79l0.76,0.65
			c0.83-0.96,1.76-1.84,2.75-2.63L12.02,8.49L12.02,8.49z M7.33,13.65c-0.56,0.87-1.06,1.79-1.49,2.74l0,0c0,0,0,0,0,0.01l0,0
			c0,0,0,0,0,0.01l0,0c0,0,0,0.01-0.01,0.01l0,0c0,0,0,0.01-0.01,0.01c0,0,0,0,0,0c0,0,0,0.01-0.01,0.01c0,0,0,0,0,0c0,0,0,0,0,0.01
			l0,0c0,0,0,0,0,0.01l0,0c0,0,0,0,0,0.01l0,0c0,0,0,0,0,0.01l0,0c0,0,0,0,0,0.01l0,0c0,0,0,0,0,0.01l0,0c0,0,0,0,0,0.01l0,0
			c0,0,0,0,0,0.01c0,0,0,0,0,0c0,0,0,0,0,0.01l0,0c0,0,0,0,0,0.01l0,0c0,0,0,0,0,0.01l0,0c0,0,0,0,0,0.01c0,0,0,0,0,0
			c0,0,0,0,0,0.01c0,0,0,0,0,0c0,0,0,0,0,0.01c0,0,0,0,0,0c0,0,0,0,0,0.01c0,0,0,0,0,0c0,0,0,0,0,0.01c0,0,0,0,0,0c0,0,0,0,0,0.01
			c0,0,0,0,0,0c0,0.01-0.01,0.02-0.01,0.02c0,0,0,0,0,0l0,0c0,0.01-0.01,0.02-0.01,0.03l0,0c0,0,0,0.01-0.01,0.01c0,0,0,0,0,0
			c0,0,0,0,0,0.01c0,0,0,0,0,0c0,0,0,0,0,0.01c0,0,0,0,0,0c0,0,0,0,0,0.01c0,0,0,0,0,0c0,0,0,0.01-0.01,0.01l0,0
			c0,0,0,0.01-0.01,0.01l0,0c0,0,0,0,0,0.01c0,0,0,0,0,0c0,0,0,0,0,0.01c0,0,0,0,0,0c-0.07,0.16-0.14,0.33-0.2,0.49l0.93,0.37
			c0.47-1.18,1.06-2.31,1.74-3.38L7.33,13.65L7.33,13.65z M4.59,20.06c-0.1,0.41-0.19,0.83-0.26,1.25l0,0c0,0,0,0,0,0.01l0,0
			c0,0,0,0,0,0.01l0,0c0,0,0,0,0,0.01c0,0,0,0,0,0c-0.01,0.03-0.01,0.06-0.02,0.09l0,0c0,0,0,0,0,0.01c0,0,0,0,0,0c0,0,0,0,0,0.01
			c0,0,0,0,0,0c0,0,0,0,0,0.01c0,0,0,0,0,0c0,0,0,0,0,0.01c0,0,0,0,0,0c0,0,0,0,0,0c0,0,0,0,0,0c0,0,0,0,0,0c0,0,0,0,0,0
			c0,0,0,0,0,0c0,0,0,0,0,0c0,0,0,0,0,0c0,0,0,0,0,0c0,0,0,0,0,0c0,0,0,0,0,0c0,0,0,0,0,0c0,0,0,0,0,0c0,0,0,0,0,0c0,0,0,0,0,0
			c0,0,0,0,0,0c0,0,0,0,0,0.01c0,0,0,0,0,0c0,0,0,0,0,0c0,0,0,0.01,0,0.01c0,0,0,0,0,0c0,0,0,0,0,0c0,0,0,0,0,0c0,0,0,0,0,0
			c0,0,0,0,0,0c0,0,0,0,0,0c0,0,0,0,0,0c0,0,0,0,0,0c0,0,0,0,0,0c0,0,0,0,0,0c0,0,0,0,0,0c0,0,0,0,0,0c0,0,0,0,0,0c0,0,0,0,0,0
			c0,0,0,0,0,0c0,0,0,0,0,0c0,0,0,0,0,0c0,0,0,0,0,0c0,0,0,0,0,0c0,0,0,0,0,0c0,0,0,0,0,0c0,0,0,0,0,0c0,0,0,0,0,0.01c0,0,0,0,0,0
			c0,0,0,0,0,0.01c0,0,0,0,0,0c0,0,0,0,0,0.01c0,0,0,0,0,0c0,0.02-0.01,0.03-0.01,0.05c0,0,0,0,0,0c0,0,0,0.01,0,0.01l0,0
			c0,0,0,0,0,0.01c0,0,0,0,0,0c0,0,0,0,0,0.01c0,0,0,0,0,0c0,0,0,0,0,0.01c0,0,0,0,0,0c0,0,0,0,0,0.01c0,0,0,0,0,0c0,0,0,0,0,0.01
			c0,0,0,0,0,0c0,0,0,0,0,0.01c0,0,0,0,0,0c0,0,0,0,0,0.01c0,0,0,0,0,0c0,0,0,0.01,0,0.01c0,0,0,0,0,0c0,0,0,0,0,0.01c0,0,0,0,0,0
			c0,0,0,0,0,0.01c0,0,0,0,0,0c0,0.03-0.01,0.05-0.01,0.08c0,0,0,0,0,0c0,0,0,0,0,0.01c0,0,0,0,0,0c0,0,0,0,0,0.01c0,0,0,0,0,0
			c0,0,0,0.01,0,0.01c0,0,0,0,0,0c0,0.01,0,0.01,0,0.02c0,0,0,0,0,0c-0.1,0.69-0.17,1.4-0.2,2.11l1,0.05
			c0.06-1.27,0.24-2.54,0.54-3.77L4.59,20.06L4.59,20.06z M5.09,26.91l-1,0.09c0,0.01,0,0.02,0,0.02c0,0,0,0,0,0c0,0,0,0,0,0.01
			c0,0,0,0,0,0c0,0,0,0,0,0.01c0,0,0,0,0,0c0,0,0,0,0,0.01c0,0,0,0,0,0c0,0,0,0,0,0c0,0,0,0,0,0c0,0,0,0,0,0c0,0,0,0,0,0
			c0,0,0,0,0,0c0,0,0,0,0,0c0,0,0,0,0,0c0,0,0,0,0,0c0,0,0,0,0,0c0,0,0,0,0,0c0,0,0,0,0,0c0,0,0,0,0,0c0,0,0,0,0,0c0,0,0,0,0,0.01
			c0,0,0,0,0,0c0,0,0,0,0,0.01c0,0,0,0,0,0c0,0,0,0,0,0.01c0,0,0,0,0,0c0,0,0,0,0,0.01l0,0c0.13,1.3,0.38,2.57,0.74,3.79l0.96-0.28
			C5.45,29.43,5.21,28.18,5.09,26.91L5.09,26.91z M6.81,33.32L5.9,33.74c0.26,0.56,0.54,1.11,0.84,1.64l0,0
			c0.01,0.01,0.01,0.02,0.02,0.03l0,0c0,0,0.01,0.01,0.01,0.01l0,0c0,0,0,0,0,0.01l0,0c0,0,0,0,0,0.01l0,0c0,0,0,0,0,0.01l0,0
			c0,0.01,0.01,0.01,0.01,0.02c0,0,0,0,0,0c0,0,0,0,0,0.01l0,0c0,0,0,0,0,0.01c0,0,0,0,0,0c0,0,0,0,0,0.01c0,0,0,0,0,0
			c0,0,0,0,0,0.01c0,0,0,0,0,0c0,0,0,0,0,0.01c0,0,0,0,0,0c0,0,0,0,0,0.01c0,0,0,0,0,0c0,0,0,0,0,0.01c0,0,0,0,0,0c0,0,0,0,0,0.01
			c0,0,0,0,0,0c0,0,0,0,0,0.01c0,0,0,0,0,0c0,0,0,0,0,0.01c0,0,0,0,0,0c0,0,0,0,0,0.01c0,0,0,0,0,0c0,0,0,0,0,0.01c0,0,0,0,0,0
			c0,0,0,0,0,0.01l0,0c0,0,0,0,0,0.01l0,0c0,0,0,0,0,0.01l0,0c0,0,0,0,0,0.01c0,0,0,0,0,0c0,0,0,0,0,0c0,0,0,0,0,0c0,0,0,0,0,0
			c0,0,0,0,0,0c0,0,0,0,0,0c0,0,0,0,0,0c0,0,0,0,0,0c0,0,0,0,0,0c0,0,0,0,0,0c0,0,0,0,0,0c0,0,0,0,0,0c0,0,0,0,0,0c0,0,0,0,0,0
			c0,0,0,0,0,0c0,0,0,0,0,0c0,0,0,0,0,0c0,0,0,0,0,0c0,0,0,0,0,0c0,0,0,0,0,0c0,0,0,0,0,0c0,0,0,0.01,0,0.01c0,0,0,0.01,0.01,0.01
			c0,0,0,0,0,0c0,0,0,0,0,0c0,0,0,0,0,0.01l0,0c0,0,0,0,0,0c0,0,0,0,0,0c0,0,0,0,0,0c0,0,0,0,0,0.01c0,0,0,0,0,0
			c0,0,0,0.01,0.01,0.01c0,0,0,0,0,0c0,0,0,0.01,0.01,0.01c0,0,0,0,0,0c0,0,0,0,0,0.01c0,0,0,0,0,0c0,0,0,0,0,0.01c0,0,0,0,0,0
			c0,0,0,0.01,0.01,0.01l0,0c0,0,0.01,0.01,0.01,0.01c0,0,0,0,0,0c0,0,0,0,0,0.01c0,0,0,0,0,0c0,0,0,0,0,0.01c0,0,0,0,0,0
			c0,0,0,0,0,0.01c0,0,0,0,0,0c0,0,0,0,0,0.01c0,0,0,0,0,0c0,0,0,0,0,0.01c0,0,0,0,0,0c0,0,0,0,0,0.01c0,0,0,0,0,0c0,0,0,0,0,0.01
			c0,0,0,0,0,0c0,0,0,0,0,0.01c0,0,0,0,0,0c0,0,0,0,0,0.01c0,0,0,0,0,0c0,0,0,0,0,0.01c0,0,0,0,0,0c0,0,0,0,0,0.01c0,0,0,0,0,0
			c0,0,0,0,0,0.01c0,0,0,0,0,0c0,0,0.01,0.01,0.01,0.01c0,0,0,0,0,0c0,0,0.01,0.01,0.01,0.01l0,0c0,0,0.01,0.01,0.01,0.01
			c0,0,0,0,0,0c0,0,0.01,0.01,0.01,0.01c0,0,0,0,0,0c0.27,0.45,0.56,0.88,0.86,1.3l0.81-0.58C7.98,35.58,7.33,34.47,6.81,33.32
			L6.81,33.32z M10.53,38.81L9.81,39.5c0.37,0.39,0.76,0.77,1.17,1.13l0,0c0,0,0.01,0.01,0.01,0.01l0,0c0,0,0.01,0.01,0.01,0.01l0,0
			c0,0,0.01,0.01,0.01,0.01l0,0c0,0,0.01,0.01,0.01,0.01l0,0c0,0,0.01,0.01,0.01,0.01l0,0c0,0,0.01,0.01,0.01,0.01l0,0
			c0,0,0.01,0.01,0.01,0.01l0,0c0,0,0.01,0.01,0.01,0.01c0,0,0,0,0,0c0,0,0.01,0.01,0.01,0.01c0,0,0,0,0,0c0,0,0.01,0.01,0.01,0.01
			c0,0,0,0,0,0c0,0,0.01,0.01,0.01,0.01c0,0,0,0,0,0c0,0,0.01,0.01,0.01,0.01c0,0,0,0,0,0c0,0,0.01,0.01,0.01,0.01c0,0,0,0,0,0
			c0,0,0.01,0.01,0.01,0.01c0,0,0,0,0,0c0,0,0.01,0.01,0.01,0.01c0,0,0,0,0,0c0,0,0.01,0.01,0.01,0.01c0,0,0,0,0,0
			c0,0,0.01,0.01,0.01,0.01c0,0,0,0,0,0c0,0,0.01,0.01,0.01,0.01l0,0c0,0,0.01,0.01,0.01,0.01l0,0c0,0,0.01,0.01,0.01,0.01l0,0
			c0,0,0.01,0.01,0.01,0.01l0,0c0,0,0.01,0.01,0.01,0.01l0,0c0,0,0.01,0.01,0.01,0.01c0,0,0,0,0,0c0,0,0.01,0.01,0.01,0.01
			c0,0,0,0,0,0c0,0,0.01,0.01,0.01,0.01c0,0,0,0,0,0c0,0,0.01,0.01,0.01,0.01c0,0,0,0,0,0c0,0,0.01,0.01,0.01,0.01c0,0,0,0,0,0
			c0,0,0.01,0.01,0.01,0.01c0,0,0,0,0,0c0,0,0.01,0.01,0.01,0.01c0,0,0,0,0,0c0,0,0.01,0.01,0.01,0.01c0,0,0,0,0,0
			c0,0,0.01,0.01,0.01,0.01l0,0c0,0,0.01,0.01,0.01,0.01l0,0c0,0,0.01,0.01,0.01,0.01l0,0c0,0,0.01,0.01,0.01,0.01c0,0,0,0,0,0
			c0,0,0.01,0.01,0.01,0.01c0,0,0,0,0,0c0,0,0.01,0.01,0.01,0.01c0,0,0,0,0,0c0,0,0.01,0.01,0.01,0.01c0,0,0,0,0,0
			c0,0,0.01,0.01,0.01,0.01c0,0,0,0,0,0c0,0,0.01,0.01,0.01,0.01c0,0,0,0,0,0c0,0,0.01,0.01,0.01,0.01c0,0,0,0,0,0
			c0,0,0.01,0.01,0.01,0.01c0,0,0,0,0,0c0,0,0.01,0.01,0.01,0.01c0,0,0,0,0,0c0,0,0.01,0.01,0.01,0.01c0,0,0,0,0,0
			c0,0,0.01,0.01,0.01,0.01c0,0,0,0,0,0c0,0,0.01,0.01,0.01,0.01c0,0,0,0,0,0c0,0,0.01,0.01,0.01,0.01c0,0,0,0,0,0
			c0,0,0.01,0.01,0.01,0.01c0,0,0,0,0,0c0,0,0.01,0.01,0.01,0.01c0,0,0,0,0,0c0,0,0.01,0.01,0.01,0.01c0,0,0,0,0,0
			c0,0,0.01,0.01,0.01,0.01c0,0,0,0,0,0c0,0,0.01,0.01,0.01,0.01c0,0,0,0,0,0c0,0,0.01,0.01,0.01,0.01c0,0,0,0,0,0
			c0,0,0.01,0.01,0.01,0.01c0,0,0,0,0,0c0,0,0.01,0,0.01,0.01c0,0,0,0,0,0c0,0,0.01,0,0.01,0.01c0,0,0,0,0,0c0,0,0.01,0,0.01,0.01
			c0,0,0,0,0,0c0,0,0.01,0,0.01,0.01c0,0,0,0,0,0c0,0,0.01,0,0.01,0.01c0,0,0,0,0,0c0,0,0.01,0,0.01,0.01c0,0,0,0,0,0
			c0,0,0.01,0,0.01,0.01c0,0,0,0,0,0c0,0,0.01,0,0.01,0.01c0,0,0,0,0,0c0,0,0.01,0,0.01,0.01c0,0,0,0,0,0c0,0,0.01,0,0.01,0.01
			c0,0,0,0,0,0c0,0,0.01,0,0.01,0.01c0,0,0,0,0,0c0,0,0.01,0,0.01,0.01c0,0,0,0,0,0c0,0,0.01,0,0.01,0.01c0,0,0,0,0,0
			c0,0,0.01,0,0.01,0.01c0,0,0,0,0,0c0,0,0.01,0,0.01,0.01c0,0,0,0,0,0c0,0,0.01,0,0.01,0.01c0,0,0,0,0,0c0,0,0.01,0,0.01,0.01
			c0,0,0,0,0,0c0,0,0.01,0,0.01,0.01c0,0,0,0,0,0c0,0,0.01,0,0.01,0.01c0,0,0,0,0,0c0,0,0.01,0,0.01,0.01c0,0,0,0,0,0
			c0,0,0.01,0,0.01,0.01c0,0,0,0,0,0c0,0,0,0,0.01,0.01c0,0,0,0,0.01,0c0,0,0,0,0.01,0.01c0,0,0,0,0.01,0c0,0,0,0,0.01,0.01
			c0,0,0,0,0.01,0c0,0,0,0,0.01,0c0,0,0,0,0.01,0c0,0,0,0,0.01,0c0,0,0,0,0.01,0c0,0,0,0,0.01,0c0,0,0,0,0.01,0.01c0,0,0,0,0.01,0
			c0,0,0,0,0.01,0.01c0,0,0,0,0.01,0c0,0,0,0,0.01,0.01c0,0,0,0,0,0c0,0,0.01,0,0.01,0.01c0,0,0,0,0,0c0,0,0.01,0,0.01,0.01
			c0,0,0,0,0,0c0,0,0.01,0,0.01,0.01c0,0,0,0,0,0c0,0,0.01,0,0.01,0.01c0,0,0,0,0,0c0,0,0.01,0,0.01,0.01c0,0,0,0,0,0
			c0,0,0.01,0,0.01,0.01c0,0,0,0,0,0c0,0,0.01,0,0.01,0.01c0,0,0,0,0,0c0,0,0.01,0,0.01,0.01c0,0,0,0,0,0c0,0,0.01,0,0.01,0.01
			c0,0,0,0,0,0c0,0,0.01,0,0.01,0.01c0,0,0,0,0,0c0,0,0.01,0,0.01,0.01c0,0,0,0,0,0c0,0,0.01,0.01,0.01,0.01c0,0,0,0,0,0
			c0,0,0.01,0.01,0.01,0.01c0,0,0,0,0,0c0,0,0.01,0.01,0.01,0.01c0,0,0,0,0,0c0,0,0.01,0.01,0.01,0.01c0,0,0,0,0,0
			c0,0,0.01,0.01,0.01,0.01c0,0,0,0,0,0c0,0,0.01,0.01,0.01,0.01c0,0,0,0,0,0c0,0,0.01,0.01,0.01,0.01c0,0,0,0,0,0
			c0,0,0.01,0.01,0.01,0.01l0,0c0.21,0.16,0.42,0.32,0.63,0.47l0.58-0.81C12.38,40.57,11.41,39.73,10.53,38.81L10.53,38.81z
			 M15.85,42.79l-0.46,0.89c0.79,0.41,1.62,0.77,2.47,1.08l0,0c0.05,0.02,0.11,0.04,0.16,0.06c0,0,0,0,0,0c0,0,0,0,0.01,0
			c0,0,0,0,0,0c0,0,0,0,0,0c0,0,0,0,0,0c0,0,0,0,0,0c0,0,0,0,0,0c0,0,0,0,0,0c0,0,0,0,0,0c0,0,0,0,0,0c0,0,0,0,0,0c0,0,0,0,0,0
			c0,0,0,0,0,0c0,0,0,0,0,0c0,0,0,0,0,0c0,0,0,0,0,0c0,0,0,0,0,0c0,0,0,0,0,0c0,0,0,0,0,0c0,0,0,0,0,0c0,0,0,0,0,0c0,0,0,0,0,0
			c0,0,0,0,0,0c0,0,0,0,0,0c0,0,0,0,0,0c0,0,0,0,0,0c0,0,0,0,0.01,0c0,0,0,0,0,0c0,0,0,0,0.01,0c0,0,0,0,0,0c0,0,0,0,0.01,0
			c0,0,0,0,0,0c0,0,0,0,0.01,0c0,0,0,0,0,0c0,0,0,0,0.01,0l0,0c0,0,0,0,0.01,0c0,0,0,0,0,0c0,0,0,0,0.01,0c0,0,0,0,0,0
			c0,0,0,0,0.01,0c0,0,0,0,0,0c0,0,0,0,0.01,0l0,0c0,0,0,0,0.01,0l0,0c0.3,0.1,0.61,0.2,0.91,0.29l0.28-0.96
			C18.16,43.84,16.98,43.37,15.85,42.79L15.85,42.79z M22.17,44.8l-0.14,0.99c0.68,0.1,1.36,0.16,2.06,0.19h0c0.01,0,0.02,0,0.03,0
			l0,0c0.01,0,0.02,0,0.03,0c0,0,0,0,0,0c0.01,0,0.02,0,0.02,0c0,0,0,0,0,0c0.01,0,0.02,0,0.03,0c0,0,0,0,0,0c0.01,0,0.02,0,0.02,0
			c0,0,0,0,0,0c0,0,0,0,0.01,0c0,0,0,0,0,0c0.01,0,0.01,0,0.02,0c0,0,0,0,0,0c0,0,0,0,0.01,0c0,0,0,0,0,0c0.01,0,0.01,0,0.02,0
			c0,0,0,0,0,0c0,0,0,0,0.01,0c0,0,0,0,0,0c0.01,0,0.01,0,0.02,0c0,0,0,0,0,0c0,0,0,0,0.01,0c0,0,0,0,0,0c0,0,0.01,0,0.01,0
			c0,0,0,0,0,0c0,0,0,0,0.01,0c0,0,0,0,0,0c0,0,0.01,0,0.01,0c0,0,0,0,0,0c0,0,0,0,0.01,0c0,0,0,0,0,0c0,0,0,0,0.01,0c0,0,0,0,0,0
			c0,0,0.01,0,0.01,0c0,0,0,0,0,0c0,0,0,0,0.01,0c0,0,0,0,0,0c0,0,0,0,0.01,0c0,0,0.01,0,0.01,0c0,0,0,0,0.01,0c0,0,0,0,0,0
			c0,0,0,0,0.01,0c0,0,0,0,0.01,0c0,0,0,0,0.01,0c0,0,0,0,0.01,0c0,0,0,0,0,0c0,0,0,0,0.01,0c0,0,0,0,0,0c0,0,0.01,0,0.01,0
			c0,0,0,0,0,0c0,0,0,0,0.01,0c0,0,0,0,0.01,0c0,0,0,0,0.01,0c0,0,0,0,0.01,0c0,0,0,0,0.01,0c0,0,0,0,0,0c0,0,0,0,0.01,0
			c0,0,0,0,0,0c0,0,0.01,0,0.01,0c0,0,0,0,0,0c0,0,0,0,0.01,0c0,0,0,0,0,0c0,0,0,0,0.01,0c0,0,0,0,0,0c0,0,0.01,0,0.01,0
			c0,0,0,0,0,0c0,0,0,0,0.01,0c0,0,0,0,0,0c0,0,0.01,0,0.01,0c0,0,0,0,0,0c0,0,0,0,0.01,0c0,0,0,0,0,0c0,0,0,0,0.01,0c0,0,0,0,0,0
			c0,0,0.01,0,0.01,0c0,0,0,0,0,0c0,0,0,0,0.01,0c0,0,0,0,0,0c0,0,0.01,0,0.01,0c0,0,0,0,0,0c0,0,0.01,0,0.01,0c0,0,0,0,0,0
			c0,0,0,0,0.01,0c0,0,0,0,0,0c0,0,0.01,0,0.01,0c0,0,0,0,0,0c0,0,0,0,0.01,0c0,0,0,0,0,0c0,0,0.01,0,0.01,0l0,0c0,0,0.01,0,0.01,0
			c0,0,0,0,0,0c0,0,0,0,0.01,0c0,0,0,0,0,0c0,0,0.01,0,0.01,0c0,0,0,0,0,0c0,0,0,0,0.01,0c0,0,0,0,0,0c0,0,0.01,0,0.01,0
			c0,0,0,0,0,0c0,0,0.01,0,0.01,0c0,0,0,0,0,0c0,0,0,0,0.01,0c0,0,0,0,0,0c0,0,0.01,0,0.01,0c0,0,0,0,0,0c0,0,0.01,0,0.01,0
			c0,0,0,0,0,0c0,0,0.01,0,0.01,0c0,0,0,0,0,0c0,0,0.01,0,0.01,0c0,0,0,0,0,0c0,0,0.01,0,0.01,0c0,0,0,0,0,0c0,0,0.01,0,0.01,0
			c0,0,0,0,0,0c0,0,0.01,0,0.01,0c0,0,0,0,0,0c0,0,0.01,0,0.01,0c0,0,0,0,0,0c0,0,0.01,0,0.01,0c0,0,0,0,0,0c0,0,0.01,0,0.01,0
			c0,0,0,0,0,0c0,0,0.01,0,0.01,0c0,0,0,0,0,0c0,0,0.01,0,0.01,0c0,0,0,0,0,0c0,0,0.01,0,0.01,0c0,0,0,0,0,0c0,0,0.01,0,0.01,0
			c0,0,0,0,0,0c0,0,0.01,0,0.01,0c0,0,0,0,0,0c0,0,0.01,0,0.01,0l0,0c0,0,0.01,0,0.01,0c0,0,0,0,0,0c0,0,0,0,0.01,0c0,0,0,0,0,0
			c0,0,0,0,0.01,0c0,0,0,0,0,0c0,0,0,0,0.01,0c0,0,0,0,0,0c0,0,0,0,0.01,0c0,0,0,0,0,0c0,0,0,0,0.01,0c0,0,0,0,0,0c0,0,0,0,0.01,0
			c0,0,0,0,0,0c0,0,0,0,0.01,0c0,0,0,0,0,0c0,0,0,0,0.01,0c0,0,0,0,0,0c0,0,0,0,0.01,0c0,0,0,0,0,0c0,0,0,0,0.01,0c0,0,0,0,0,0
			c0,0,0,0,0.01,0c0,0,0,0,0,0c0,0,0,0,0.01,0c0,0,0,0,0,0c0,0,0,0,0.01,0c0,0,0,0,0,0c0.01,0,0.03,0,0.04,0c0,0,0,0,0,0
			c0,0,0,0,0.01,0c0,0,0,0,0,0c0,0,0,0,0.01,0c0,0,0,0,0,0c0,0,0,0,0.01,0c0,0,0,0,0,0c0,0,0,0,0.01,0c0,0,0,0,0,0c0,0,0,0,0.01,0
			c0,0,0,0,0,0c0,0,0,0,0.01,0c0,0,0,0,0,0c0,0,0,0,0.01,0c0,0,0,0,0,0c0,0,0,0,0.01,0c0,0,0,0,0,0c0,0,0,0,0.01,0c0,0,0,0,0,0
			c0,0,0,0,0.01,0c0,0,0,0,0,0c0.02,0,0.03,0,0.05,0c0,0,0,0,0,0c0,0,0,0,0.01,0c0,0,0,0,0,0c0,0,0,0,0.01,0c0,0,0,0,0,0
			c0,0,0,0,0.01,0c0,0,0,0,0,0c0,0,0,0,0.01,0c0,0,0,0,0,0c0,0,0,0,0.01,0c0,0,0,0,0,0c0,0,0,0,0.01,0c0,0,0,0,0,0c0,0,0,0,0.01,0
			c0,0,0,0,0,0c0,0,0,0,0.01,0c0,0,0,0,0,0c0,0,0,0,0.01,0c0,0,0,0,0,0c0.03,0,0.06,0,0.08,0c0,0,0,0,0,0c0,0,0,0,0.01,0
			c0,0,0,0,0,0c0,0,0,0,0.01,0c0,0,0,0,0,0c0,0,0,0,0.01,0c0,0,0,0,0,0c0,0,0,0,0.01,0c0,0,0,0,0,0c0,0,0.01,0,0.01,0c0,0,0,0,0,0
			c0,0,0.01,0,0.01,0c0,0,0,0,0,0c0.03,0,0.05,0,0.08,0c0,0,0,0,0,0c0,0,0,0,0.01,0c0,0,0,0,0,0c0,0,0,0,0.01,0c0,0,0,0,0,0
			c0,0,0,0,0.01,0c0,0,0,0,0,0c0,0,0,0,0.01,0c0,0,0,0,0,0c0,0,0,0,0.01,0c0,0,0,0,0,0c0,0,0,0,0.01,0c0,0,0,0,0,0c0,0,0,0,0.01,0
			c0,0,0,0,0,0c0,0,0,0,0.01,0c0,0,0,0,0,0c0,0,0,0,0.01,0c0,0,0,0,0,0c0,0,0,0,0.01,0c0,0,0,0,0,0c0,0,0,0,0.01,0c0,0,0,0,0,0
			c0.01,0,0.02,0,0.03,0c0,0,0,0,0,0c0,0,0,0,0.01,0c0,0,0,0,0,0c0,0,0,0,0.01,0c0,0,0,0,0,0c0,0,0,0,0.01,0c0,0,0,0,0,0
			c0,0,0,0,0.01,0c0,0,0,0,0,0c0,0,0,0,0,0c0,0,0,0,0,0c0,0,0,0,0,0c0,0,0,0,0,0c0,0,0,0,0,0c0,0,0,0,0,0c0,0,0,0,0,0c0,0,0,0,0,0
			c0,0,0,0,0,0c0,0,0,0,0,0c0,0,0,0,0,0c0,0,0,0,0,0c0,0,0,0,0,0c0,0,0,0,0.01,0l0,0c0.02,0,0.04,0,0.05,0l0,0c0,0,0,0,0.01,0
			c0,0,0,0,0,0c0,0,0,0,0.01,0c0,0,0,0,0,0c0,0,0,0,0.01,0l0,0c0,0,0,0,0.01,0l0,0c0,0,0,0,0.01,0l0,0c0.04,0,0.08,0,0.12-0.01
			l-0.05-1C25.65,44.99,25.33,45,25,45C24.05,45,23.1,44.93,22.17,44.8L22.17,44.8z M32.45,43.57c-1.18,0.47-2.4,0.83-3.65,1.07
			L29,45.62c0.29-0.06,0.59-0.12,0.87-0.19l0,0c0.01,0,0.02,0,0.03-0.01c0,0,0,0,0,0c0.01,0,0.02-0.01,0.03-0.01l0,0
			c0.04-0.01,0.08-0.02,0.12-0.03c0,0,0,0,0,0c0,0,0,0,0.01,0c0,0,0,0,0,0c0,0,0,0,0.01,0c0,0,0,0,0,0c0,0,0,0,0.01,0c0,0,0,0,0,0
			c0,0,0,0,0.01,0c0,0,0,0,0,0c0,0,0,0,0.01,0c0,0,0,0,0,0c0,0,0,0,0.01,0c0,0,0,0,0,0c0,0,0,0,0.01,0c0,0,0,0,0,0c0,0,0,0,0.01,0
			c0,0,0,0,0,0c0,0,0,0,0.01,0c0,0,0,0,0,0c0,0,0,0,0,0c0,0,0,0,0,0c0,0,0,0,0.01,0c0,0,0,0,0,0c0,0,0,0,0.01,0c0,0,0,0,0,0
			c0,0,0,0,0.01,0c0,0,0,0,0,0c0,0,0,0,0.01,0c0,0,0,0,0,0c0,0,0,0,0.01,0c0,0,0,0,0,0c0,0,0,0,0.01,0c0,0,0,0,0,0c0,0,0,0,0.01,0
			c0,0,0,0,0,0c0,0,0,0,0.01,0c0,0,0,0,0,0c0,0,0,0,0.01,0c0,0,0,0,0,0c0.01,0,0.02-0.01,0.03-0.01c0,0,0,0,0,0c0,0,0,0,0.01,0
			c0,0,0,0,0,0c0,0,0,0,0,0c0,0,0,0,0,0c0,0,0,0,0,0c0,0,0,0,0,0c0,0,0,0,0,0c0,0,0,0,0,0c0,0,0,0,0,0c0,0,0,0,0,0c0,0,0,0,0,0
			c0,0,0,0,0,0c0,0,0,0,0,0c0,0,0,0,0,0c0,0,0,0,0,0c0,0,0,0,0,0c0,0,0,0,0,0c0,0,0,0,0,0c0,0,0,0,0,0c0,0,0,0,0,0c0,0,0,0,0,0
			c0,0,0,0,0,0c0,0,0,0,0,0c0,0,0,0,0,0c0,0,0,0,0,0c0,0,0,0,0,0c0,0,0,0,0,0c0,0,0,0,0,0c0,0,0,0,0,0c0,0,0,0,0,0c0,0,0,0,0,0
			c0,0,0,0,0,0c0,0,0,0,0,0c0,0,0,0,0,0c0,0,0,0,0,0c0,0,0,0,0,0c0,0,0,0,0,0c0,0,0,0,0,0c0,0,0,0,0,0c0,0,0,0,0,0c0,0,0,0,0,0
			c0,0,0,0,0,0c0,0,0,0,0,0c0,0,0,0,0,0c0,0,0,0,0.01,0c0,0,0,0,0,0c0,0,0,0,0.01,0c0,0,0,0,0,0c0,0,0,0,0.01,0c0,0,0,0,0,0
			c0,0,0,0,0,0c0,0,0,0,0,0c0.01,0,0.02-0.01,0.03-0.01c0,0,0,0,0,0c0,0,0,0,0.01,0c0,0,0,0,0,0c0,0,0,0,0.01,0c0,0,0,0,0,0
			c0,0,0,0,0,0c0,0,0,0,0,0c0,0,0,0,0,0c0,0,0,0,0,0c0,0,0,0,0,0c0,0,0,0,0,0c0,0,0,0,0,0c0,0,0,0,0,0c0,0,0,0,0,0c0,0,0,0,0,0
			c0,0,0,0,0.01,0c0,0,0,0,0,0c0,0,0,0,0,0c0,0,0,0,0,0c0,0,0,0,0,0c0,0,0,0,0,0c0,0,0,0,0,0c0,0,0,0,0,0c0,0,0,0,0,0c0,0,0,0,0,0
			c0,0,0,0,0,0c0,0,0,0,0,0c0,0,0,0,0,0c0,0,0,0,0,0c0,0,0,0,0,0c0,0,0,0,0,0c0,0,0,0,0,0c0,0,0,0,0,0c0,0,0,0,0,0c0,0,0,0,0,0
			c0,0,0,0,0,0c0,0,0,0,0,0c0,0,0,0,0,0c0,0,0,0,0,0c0,0,0,0,0,0c0,0,0,0,0,0c0,0,0,0,0,0c0,0,0,0,0,0c0,0,0,0,0,0c0,0,0,0,0,0
			c0,0,0,0,0.01,0c0,0,0,0,0,0c0,0,0,0,0,0c0,0,0,0,0,0c0,0,0,0,0.01,0c0,0,0,0,0,0c0,0,0.01,0,0.01,0c0,0,0,0,0,0c0,0,0,0,0.01,0
			c0,0,0,0,0,0c0,0,0,0,0.01,0c0,0,0,0,0,0c0,0,0,0,0,0c0,0,0,0,0,0c0,0,0,0,0.01,0c0,0,0,0,0,0c0,0,0,0,0.01,0c0,0,0,0,0,0
			c0,0,0,0,0.01,0c0,0,0,0,0,0c0,0,0,0,0,0c0,0,0,0,0,0c0,0,0,0,0,0c0,0,0,0,0,0c0,0,0,0,0,0c0,0,0,0,0,0c0,0,0,0,0,0c0,0,0,0,0,0
			c0,0,0,0,0,0c0,0,0,0,0,0c0,0,0,0,0,0c0,0,0,0,0,0c0,0,0,0,0,0c0,0,0,0,0,0c0,0,0,0,0,0c0,0,0,0,0,0c0,0,0,0,0,0c0,0,0,0,0,0
			c0,0,0,0,0,0c0,0,0,0,0,0c0,0,0,0,0,0c0,0,0,0,0,0c0,0,0,0,0,0c0,0,0,0,0,0c0,0,0,0,0,0c0,0,0,0,0,0c0,0,0,0,0,0c0,0,0,0,0,0
			c0,0,0,0,0.01,0c0,0,0,0,0,0c0,0,0,0,0,0c0,0,0,0,0,0c0,0,0,0,0,0c0,0,0,0,0,0c0,0,0,0,0.01,0c0,0,0,0,0,0c0,0,0,0,0,0
			c0,0,0,0,0,0c0,0,0,0,0,0c0,0,0,0,0,0c0.01,0,0.02-0.01,0.03-0.01c0,0,0,0,0,0c0,0,0,0,0.01,0l0,0c0,0,0.01,0,0.01,0c0,0,0,0,0,0
			c0,0,0,0,0.01,0c0,0,0,0,0,0c0,0,0,0,0.01,0c0,0,0,0,0,0c0,0,0,0,0.01,0c0,0,0,0,0,0c0,0,0,0,0.01,0c0,0,0,0,0,0c0,0,0,0,0.01,0
			c0,0,0,0,0,0c0,0,0,0,0.01,0c0,0,0,0,0,0c0,0,0,0,0.01,0c0,0,0,0,0,0c0,0,0,0,0.01,0c0,0,0,0,0,0c0,0,0,0,0.01,0c0,0,0,0,0,0
			c0,0,0,0,0,0c0,0,0,0,0,0c0,0,0,0,0,0c0,0,0,0,0,0c0,0,0,0,0.01,0c0,0,0,0,0,0c0,0,0,0,0.01,0c0,0,0,0,0,0c0,0,0,0,0,0
			c0,0,0,0,0,0c0,0,0,0,0.01,0c0,0,0,0,0,0c0,0,0,0,0.01,0c0,0,0,0,0,0c0,0,0,0,0.01,0c0,0,0,0,0,0c0,0,0,0,0.01,0c0,0,0,0,0,0
			c0.01,0,0.01,0,0.01,0c0,0,0,0,0,0c0.01,0,0.01,0,0.01,0c0,0,0,0,0,0c0.01,0,0.02-0.01,0.03-0.01c0,0,0,0,0,0c0,0,0,0,0.01,0l0,0
			c0,0,0,0,0.01,0c0,0,0,0,0,0c0,0,0,0,0.01,0c0,0,0,0,0,0c0,0,0,0,0.01,0c0,0,0,0,0,0c0,0,0,0,0.01,0c0,0,0,0,0,0c0,0,0,0,0.01,0
			c0,0,0,0,0,0c0,0,0,0,0.01,0c0,0,0,0,0,0c0,0,0,0,0.01,0c0,0,0,0,0,0c0,0,0,0,0.01,0c0,0,0,0,0,0c0,0,0,0,0.01,0c0,0,0,0,0,0
			c0,0,0,0,0.01,0c0,0,0,0,0,0c0,0,0,0,0.01,0c0,0,0,0,0,0c0,0,0,0,0.01,0c0,0,0,0,0,0c0,0,0,0,0,0c0,0,0,0,0,0c0,0,0,0,0,0
			c0,0,0,0,0,0c0,0,0,0,0,0c0,0,0,0,0,0c0,0,0,0,0,0c0,0,0,0,0,0c0,0,0,0,0,0c0,0,0,0,0,0c0,0,0,0,0,0c0,0,0,0,0,0c0,0,0,0,0,0
			c0,0,0,0,0,0c0,0,0,0,0.01,0c0,0,0,0,0,0c0,0,0,0,0.01,0c0,0,0,0,0,0c0,0,0,0,0.01,0c0,0,0,0,0,0c0.02,0,0.03-0.01,0.05-0.01
			c0,0,0,0,0,0c0,0,0,0,0.01,0c0,0,0,0,0,0c0,0,0,0,0.01,0c0,0,0,0,0,0c0,0,0,0,0.01,0c0,0,0,0,0,0c0,0,0,0,0.01,0c0,0,0,0,0,0
			c0,0,0,0,0.01,0c0,0,0,0,0,0c0,0,0,0,0.01,0c0,0,0,0,0,0c0,0,0,0,0.01,0c0,0,0,0,0,0c0,0,0,0,0.01,0c0,0,0,0,0,0c0,0,0,0,0.01,0
			c0,0,0,0,0,0c0,0,0,0,0.01,0c0,0,0,0,0,0c0,0,0,0,0.01,0c0,0,0,0,0,0c0,0,0,0,0.01,0c0,0,0,0,0,0c0,0,0,0,0.01,0c0,0,0,0,0,0
			c0,0,0,0,0.01,0c0,0,0,0,0,0c0,0,0,0,0.01,0c0,0,0,0,0,0c0,0,0,0,0.01,0c0,0,0,0,0,0c0,0,0,0,0.01,0c0,0,0,0,0,0c0,0,0,0,0.01,0
			c0,0,0,0,0,0c0,0,0,0,0.01,0c0,0,0,0,0,0c0,0,0,0,0.01,0c0,0,0,0,0,0c0,0,0,0,0.01,0c0,0,0,0,0,0c0.01,0,0.01,0,0.01,0
			c0,0,0,0,0,0c0.02,0,0.03-0.01,0.05-0.01c0,0,0,0,0,0c0,0,0,0,0.01,0h0c0,0,0,0,0.01,0c0,0,0,0,0,0c0,0,0,0,0.01,0c0,0,0,0,0,0
			c0,0,0,0,0.01,0c0,0,0,0,0,0c0,0,0,0,0.01,0c0,0,0,0,0,0c0,0,0,0,0.01,0c0,0,0,0,0,0c0,0,0,0,0.01,0c0,0,0,0,0,0c0,0,0,0,0.01,0
			c0,0,0,0,0,0c0,0,0,0,0.01,0c0,0,0,0,0,0c0,0,0,0,0.01,0c0,0,0,0,0,0c0,0,0,0,0.01,0c0,0,0,0,0,0c0,0,0,0,0.01,0c0,0,0,0,0,0
			c0,0,0,0,0.01,0c0,0,0,0,0,0c0,0,0,0,0.01,0c0,0,0,0,0,0c0,0,0,0,0.01,0c0,0,0,0,0,0c0,0,0,0,0.01,0c0,0,0,0,0,0c0,0,0,0,0.01,0
			c0,0,0,0,0,0c0,0,0,0,0.01,0c0,0,0,0,0,0c0,0,0,0,0.01,0c0,0,0,0,0,0c0,0,0,0,0.01,0c0,0,0,0,0,0c0,0,0,0,0.01,0c0,0,0,0,0,0
			c0,0,0,0,0,0c0,0,0,0,0,0c0,0,0,0,0,0c0,0,0,0,0,0c0.01,0,0.01-0.01,0.02-0.01c0,0,0,0,0,0c0,0,0,0,0.01,0c0,0,0,0,0,0
			c0,0,0,0,0.01,0c0,0,0,0,0,0c0,0,0,0,0.01,0c0,0,0,0,0,0c0,0,0,0,0,0c0,0,0,0,0,0c0,0,0,0,0,0c0,0,0,0,0,0c0,0,0,0,0,0
			c0,0,0,0,0,0c0,0,0,0,0,0c0,0,0,0,0,0c0,0,0,0,0,0c0,0,0,0,0,0c0,0,0,0,0,0c0,0,0,0,0,0c0,0,0,0,0,0c0,0,0,0,0,0c0,0,0,0,0,0
			c0,0,0,0,0,0c0,0,0,0,0,0c0,0,0,0,0,0c0,0,0,0,0,0c0,0,0,0,0,0c0,0,0,0,0,0c0,0,0,0,0,0c0,0,0,0,0,0c0,0,0,0,0,0c0,0,0,0,0,0
			c0,0,0,0,0,0c0,0,0,0,0,0c0,0,0,0,0,0c0,0,0,0,0,0c0,0,0,0,0,0c0,0,0,0,0,0c0,0,0,0,0,0c0,0,0,0,0,0c0,0,0,0,0,0c0,0,0,0,0,0
			c0,0,0,0,0,0c0,0,0,0,0,0c0,0,0,0,0,0c0,0,0,0,0,0c0,0,0,0,0.01,0c0,0,0,0,0,0c0,0,0,0,0.01,0c0,0,0,0,0,0c0,0,0,0,0.01,0
			c0,0,0,0,0,0c0.01,0,0.03-0.01,0.04-0.01c0,0,0,0,0,0c0,0,0.01,0,0.01,0l0,0c0,0,0,0,0.01,0c0,0,0,0,0,0c0,0,0,0,0.01,0
			c0,0,0,0,0,0c0,0,0,0,0.01,0l0,0c0,0,0,0,0.01,0c0,0,0,0,0,0c0,0,0,0,0.01,0c0,0,0,0,0,0c0,0,0,0,0.01,0c0,0,0,0,0,0
			c0,0,0,0,0.01,0l0,0c0,0,0,0,0.01,0l0,0c0,0,0,0,0.01,0h0c0,0,0,0,0.01,0l0,0c0.25-0.09,0.49-0.18,0.74-0.28L32.45,43.57
			L32.45,43.57z M38.11,40.1c-0.96,0.83-2,1.58-3.09,2.21l0.5,0.87c0.69-0.4,1.35-0.84,1.99-1.31l0,0c0.01-0.01,0.02-0.01,0.03-0.02
			l0,0c0.01-0.01,0.02-0.01,0.02-0.02l0,0c0,0,0.01-0.01,0.01-0.01l0,0c0,0,0.01-0.01,0.01-0.01l0,0c0,0,0.01-0.01,0.01-0.01l0,0
			c0,0,0.01-0.01,0.01-0.01l0,0c0,0,0.01-0.01,0.01-0.01l0,0c0,0,0.01-0.01,0.01-0.01c0,0,0,0,0,0c0,0,0.01-0.01,0.01-0.01
			c0,0,0,0,0,0c0,0,0.01-0.01,0.01-0.01c0,0,0,0,0,0c0,0,0.01-0.01,0.01-0.01c0,0,0,0,0,0c0,0,0.01-0.01,0.01-0.01c0,0,0,0,0,0
			c0,0,0.01-0.01,0.01-0.01c0,0,0,0,0,0c0,0,0.01-0.01,0.01-0.01c0,0,0,0,0,0c0,0,0.01-0.01,0.01-0.01c0,0,0,0,0,0
			c0,0,0.01-0.01,0.01-0.01c0,0,0,0,0,0c0,0,0.01-0.01,0.01-0.01c0,0,0,0,0,0c0,0,0.01-0.01,0.01-0.01c0,0,0,0,0,0
			c0,0,0.01-0.01,0.01-0.01c0,0,0,0,0,0c0,0,0.01-0.01,0.01-0.01c0,0,0,0,0,0c0,0,0.01,0,0.01-0.01c0,0,0,0,0,0
			c0,0,0.01,0,0.01-0.01c0,0,0,0,0,0c0,0,0.01,0,0.01-0.01c0,0,0,0,0,0c0,0,0.01,0,0.01-0.01c0,0,0,0,0,0c0,0,0.01,0,0.01-0.01
			c0,0,0,0,0,0c0,0,0,0,0.01-0.01c0,0,0,0,0.01,0c0,0,0.01,0,0.01-0.01c0,0,0,0,0,0c0,0,0,0,0.01-0.01c0,0,0,0,0.01,0
			c0,0,0,0,0.01-0.01c0,0,0,0,0.01,0c0,0,0,0,0.01,0c0,0,0,0,0.01,0c0,0,0,0,0.01,0c0,0,0,0,0.01,0c0,0,0,0,0.01,0c0,0,0,0,0.01,0
			c0,0,0,0,0.01,0c0,0,0,0,0.01-0.01c0,0,0,0,0.01,0c0,0,0,0,0.01-0.01c0,0,0,0,0.01,0c0,0,0,0,0.01-0.01c0,0,0,0,0.01,0
			c0,0,0.01,0,0.01-0.01c0,0,0,0,0,0c0,0,0.01,0,0.01-0.01c0,0,0,0,0,0c0,0,0.01,0,0.01-0.01c0,0,0,0,0,0c0,0,0.01,0,0.01-0.01
			c0,0,0,0,0,0c0,0,0.01-0.01,0.01-0.01c0,0,0,0,0,0c0,0,0.01-0.01,0.01-0.01c0,0,0,0,0,0c0,0,0.01-0.01,0.01-0.01c0,0,0,0,0,0
			c0,0,0.01-0.01,0.01-0.01c0,0,0,0,0,0c0,0,0.01-0.01,0.01-0.01c0,0,0,0,0,0c0.23-0.19,0.46-0.38,0.69-0.57L38.11,40.1L38.11,40.1z
			 M42.34,34.98c-0.63,1.1-1.37,2.14-2.21,3.1l0.76,0.65c0.32-0.37,0.62-0.74,0.91-1.13l0,0c0,0,0.01-0.01,0.01-0.01l0,0
			c0,0,0.01-0.01,0.01-0.01l0,0c0,0,0.01-0.01,0.01-0.01l0,0c0,0,0.01-0.01,0.01-0.01l0,0c0,0,0.01-0.01,0.01-0.01l0,0
			c0,0,0.01-0.01,0.01-0.01c0,0,0,0,0,0c0,0,0.01-0.01,0.01-0.01c0,0,0,0,0,0c0,0,0.01-0.01,0.01-0.01c0,0,0,0,0,0
			c0,0,0.01-0.01,0.01-0.01c0,0,0,0,0,0c0,0,0.01-0.01,0.01-0.01c0,0,0,0,0,0c0,0,0.01-0.01,0.01-0.01c0,0,0,0,0,0
			c0,0,0.01-0.01,0.01-0.01c0,0,0,0,0,0c0,0,0.01-0.01,0.01-0.01c0,0,0,0,0,0c0,0,0.01-0.01,0.01-0.01l0,0c0,0,0.01-0.01,0.01-0.01
			l0,0c0,0,0.01-0.01,0.01-0.01l0,0c0,0,0.01-0.01,0.01-0.01c0,0,0,0,0,0c0,0,0.01-0.01,0.01-0.01c0,0,0,0,0,0
			c0,0,0.01-0.01,0.01-0.01c0,0,0,0,0,0c0,0,0.01-0.01,0.01-0.01c0,0,0,0,0,0c0,0,0.01-0.01,0.01-0.01c0,0,0,0,0,0
			c0,0,0.01-0.01,0.01-0.01c0,0,0,0,0,0c0,0,0.01-0.01,0.01-0.01c0,0,0,0,0,0c0,0,0.01-0.01,0.01-0.01c0,0,0,0,0,0
			c0,0,0.01-0.01,0.01-0.01c0,0,0,0,0,0c0,0,0.01-0.01,0.01-0.01c0,0,0,0,0,0c0,0,0.01-0.01,0.01-0.01c0,0,0,0,0,0
			c0,0,0.01-0.01,0.01-0.01c0,0,0,0,0,0c0,0,0.01-0.01,0.01-0.01c0,0,0,0,0,0c0,0,0-0.01,0.01-0.01c0,0,0,0,0,0
			c0,0,0-0.01,0.01-0.01c0,0,0,0,0,0c0,0,0-0.01,0.01-0.01c0,0,0,0,0,0c0,0,0-0.01,0.01-0.01c0,0,0,0,0,0c0,0,0-0.01,0.01-0.01
			c0,0,0,0,0,0c0,0,0-0.01,0.01-0.01c0,0,0,0,0,0c0,0,0-0.01,0.01-0.01c0,0,0,0,0,0c0,0,0-0.01,0.01-0.01c0,0,0,0,0,0
			c0,0,0-0.01,0.01-0.01c0,0,0,0,0,0c0,0,0-0.01,0.01-0.01c0,0,0,0,0,0c0,0,0-0.01,0.01-0.01c0,0,0,0,0,0c0,0,0-0.01,0.01-0.01
			c0,0,0,0,0,0c0,0,0-0.01,0.01-0.01c0,0,0,0,0,0c0,0,0-0.01,0.01-0.01c0,0,0,0,0,0c0,0,0-0.01,0.01-0.01c0,0,0,0,0,0
			c0,0,0-0.01,0.01-0.01c0,0,0,0,0,0c0,0,0-0.01,0.01-0.01c0,0,0,0,0,0c0,0,0-0.01,0.01-0.01c0,0,0,0,0,0c0,0,0-0.01,0.01-0.01
			c0,0,0,0,0,0c0,0,0-0.01,0.01-0.01c0,0,0,0,0,0c0,0,0-0.01,0.01-0.01c0,0,0,0,0,0c0,0,0-0.01,0.01-0.01c0,0,0,0,0,0
			c0,0,0-0.01,0.01-0.01c0,0,0,0,0,0c0,0,0-0.01,0.01-0.01c0,0,0,0,0,0c0,0,0-0.01,0.01-0.01c0,0,0,0,0,0c0,0,0-0.01,0.01-0.01
			c0,0,0,0,0,0c0,0,0-0.01,0.01-0.01c0,0,0,0,0,0c0,0,0-0.01,0.01-0.01c0,0,0,0,0,0c0,0,0-0.01,0.01-0.01c0,0,0,0,0,0
			c0,0,0-0.01,0.01-0.01c0,0,0,0,0,0c0,0,0-0.01,0.01-0.01c0,0,0,0,0,0c0,0,0-0.01,0.01-0.01c0,0,0,0,0,0c0,0,0-0.01,0.01-0.01
			c0,0,0,0,0,0c0,0,0-0.01,0.01-0.01c0,0,0,0,0,0c0,0,0-0.01,0.01-0.01c0,0,0,0,0,0c0,0,0-0.01,0.01-0.01c0,0,0,0,0,0
			c0,0,0-0.01,0.01-0.01c0,0,0,0,0,0c0,0,0-0.01,0.01-0.01c0,0,0,0,0,0c0,0,0-0.01,0.01-0.01c0,0,0,0,0,0c0,0,0-0.01,0.01-0.01
			c0,0,0,0,0,0c0,0,0-0.01,0.01-0.01c0,0,0,0,0,0c0,0,0-0.01,0.01-0.01c0,0,0,0,0,0c0,0,0-0.01,0.01-0.01c0,0,0,0,0,0
			c0,0,0-0.01,0.01-0.01c0,0,0,0,0,0c0,0,0-0.01,0.01-0.01c0,0,0,0,0,0c0,0,0-0.01,0.01-0.01c0,0,0,0,0,0c0,0,0-0.01,0.01-0.01
			c0,0,0,0,0,0c0,0,0-0.01,0.01-0.01c0,0,0,0,0,0c0,0,0-0.01,0.01-0.01c0,0,0,0,0,0c0,0,0-0.01,0.01-0.01c0,0,0,0,0,0
			c0,0,0-0.01,0.01-0.01c0,0,0,0,0,0c0,0,0-0.01,0.01-0.01c0,0,0,0,0,0c0,0,0-0.01,0.01-0.01c0,0,0,0,0,0c0,0,0-0.01,0.01-0.01
			c0,0,0,0,0,0c0,0,0-0.01,0.01-0.01c0,0,0,0,0,0c0,0,0-0.01,0.01-0.01c0,0,0,0,0,0c0,0,0-0.01,0.01-0.01c0,0,0,0,0,0
			c0,0,0-0.01,0.01-0.01c0,0,0,0,0,0c0,0,0-0.01,0.01-0.01c0,0,0,0,0,0c0,0,0-0.01,0.01-0.01c0,0,0,0,0,0c0,0,0-0.01,0.01-0.01
			c0,0,0,0,0,0c0,0,0-0.01,0.01-0.01c0,0,0,0,0,0c0,0,0-0.01,0.01-0.01c0,0,0,0,0,0c0,0,0-0.01,0.01-0.01c0,0,0,0,0,0
			c0,0,0-0.01,0.01-0.01c0,0,0,0,0,0c0,0,0-0.01,0.01-0.01c0,0,0,0,0,0c0,0,0-0.01,0.01-0.01c0,0,0,0,0,0c0,0,0.01-0.01,0.01-0.01
			c0,0,0,0,0,0c0,0,0-0.01,0.01-0.01c0,0,0,0,0,0c0,0,0-0.01,0.01-0.01c0,0,0,0,0,0c0,0,0.01-0.01,0.01-0.01c0,0,0,0,0,0
			c0,0,0.01-0.01,0.01-0.01c0,0,0,0,0,0c0,0,0.01-0.01,0.01-0.01c0,0,0,0,0,0c0,0,0.01-0.01,0.01-0.01c0,0,0,0,0,0
			c0,0,0.01-0.01,0.01-0.01l0,0c0,0,0.01-0.01,0.01-0.01l0,0c0.01-0.01,0.01-0.02,0.02-0.03l0,0c0.16-0.25,0.31-0.5,0.45-0.75
			L42.34,34.98L42.34,34.98z M44.65,28.76c-0.24,1.25-0.6,2.47-1.07,3.65l0.93,0.37c0.18-0.44,0.34-0.89,0.48-1.34v0
			c0-0.01,0.01-0.02,0.01-0.03l0,0c0,0,0-0.01,0-0.01c0,0,0,0,0,0c0,0,0-0.01,0-0.01l0,0c0.02-0.05,0.03-0.1,0.05-0.15l0,0
			c0,0,0-0.01,0-0.01l0,0c0,0,0,0,0-0.01l0,0c0,0,0,0,0-0.01l0,0c0,0,0,0,0-0.01l0,0c0,0,0,0,0-0.01c0,0,0,0,0,0c0,0,0,0,0-0.01
			c0,0,0,0,0,0c0,0,0,0,0-0.01c0,0,0,0,0,0c0,0,0,0,0-0.01c0,0,0,0,0,0c0,0,0,0,0-0.01c0,0,0,0,0,0c0,0,0,0,0-0.01l0,0
			c0,0,0,0,0-0.01l0,0c0.01-0.03,0.02-0.06,0.03-0.09l0,0c0,0,0,0,0-0.01l0,0c0,0,0,0,0-0.01c0,0,0,0,0,0c0,0,0,0,0-0.01
			c0,0,0,0,0,0c0,0,0,0,0-0.01c0,0,0,0,0,0c0,0,0,0,0-0.01c0,0,0,0,0,0c0,0,0,0,0-0.01c0,0,0,0,0,0c0,0,0,0,0-0.01c0,0,0,0,0,0
			c0,0,0,0,0-0.01c0,0,0,0,0,0c0,0,0,0,0-0.01c0,0,0,0,0,0c0,0,0,0,0-0.01c0,0,0,0,0,0c0,0,0,0,0-0.01c0,0,0,0,0,0c0,0,0,0,0-0.01
			c0,0,0,0,0,0c0,0,0,0,0-0.01c0,0,0,0,0,0c0,0,0,0,0-0.01c0,0,0,0,0,0c0,0,0,0,0-0.01c0,0,0,0,0,0c0,0,0,0,0-0.01l0,0
			c0,0,0,0,0-0.01l0,0c0,0,0,0,0-0.01l0,0c0,0,0,0,0-0.01l0,0c0.01-0.03,0.02-0.06,0.03-0.09l0,0c0,0,0,0,0-0.01c0,0,0,0,0,0
			c0,0,0,0,0-0.01c0,0,0,0,0,0c0,0,0,0,0-0.01c0,0,0,0,0,0c0,0,0,0,0-0.01c0,0,0,0,0,0c0,0,0,0,0-0.01c0,0,0,0,0,0c0,0,0,0,0-0.01
			l0,0c0,0,0,0,0-0.01l0,0c0,0,0,0,0-0.01l0,0c0,0,0,0,0-0.01l0,0c0-0.01,0.01-0.02,0.01-0.03l0,0c0.01-0.05,0.03-0.09,0.04-0.14
			l0,0c0,0,0-0.01,0-0.01l0,0c0-0.01,0-0.01,0.01-0.02l0,0c0,0,0,0,0-0.01l0,0c0.14-0.52,0.27-1.05,0.37-1.59L44.65,28.76
			L44.65,28.76z M45.78,21.98l-0.99,0.14C44.93,23.07,45,24.04,45,25c0,0.31-0.01,0.62-0.02,0.93l1,0.05c0-0.08,0.01-0.17,0.01-0.25
			c0,0,0,0,0,0c0,0,0,0,0-0.01l0,0c0,0,0,0,0-0.01l0,0c0,0,0,0,0-0.01c0,0,0,0,0,0c0,0,0,0,0-0.01l0,0c0,0,0,0,0-0.01l0,0
			c0-0.01,0-0.01,0-0.02c0,0,0,0,0,0c0,0,0,0,0,0c0,0,0,0,0,0c0,0,0,0,0,0c0,0,0,0,0,0c0,0,0,0,0,0c0,0,0,0,0-0.01c0,0,0,0,0,0
			c0,0,0,0,0-0.01c0,0,0,0,0,0c0,0,0,0,0-0.01c0,0,0,0,0,0c0,0,0,0,0-0.01c0,0,0,0,0,0c0-0.01,0-0.02,0-0.03c0,0,0,0,0,0
			c0,0,0,0,0-0.01c0,0,0,0,0,0c0,0,0,0,0-0.01c0,0,0,0,0,0c0,0,0,0,0-0.01c0,0,0,0,0,0c0,0,0,0,0-0.01c0,0,0,0,0,0
			c0,0,0-0.01,0-0.01c0,0,0,0,0,0c0-0.07,0-0.14,0-0.2c0,0,0,0,0,0c0-0.02,0-0.04,0-0.06c0,0,0,0,0,0c0,0,0,0,0-0.01c0,0,0,0,0,0
			c0,0,0,0,0-0.01c0,0,0,0,0,0c0,0,0-0.01,0-0.01c0,0,0,0,0,0c0-0.02,0-0.03,0-0.05c0,0,0,0,0,0c0,0,0,0,0-0.01c0,0,0,0,0,0
			c0,0,0,0,0-0.01c0,0,0,0,0,0c0,0,0,0,0-0.01c0,0,0,0,0,0c0,0,0,0,0-0.01c0,0,0,0,0,0c0,0,0-0.01,0-0.01c0,0,0,0,0,0
			c0-0.01,0-0.02,0-0.02c0,0,0,0,0,0c0,0,0,0,0-0.01c0,0,0,0,0,0c0,0,0,0,0-0.01c0,0,0,0,0,0c0,0,0,0,0-0.01c0,0,0,0,0,0
			c0,0,0,0,0-0.01c0,0,0,0,0,0c0,0,0,0,0-0.01c0,0,0,0,0,0c0,0,0,0,0-0.01c0,0,0,0,0,0c0-0.01,0-0.01,0-0.02c0,0,0,0,0,0
			c0,0,0,0,0-0.01c0,0,0,0,0,0c0,0,0,0,0-0.01c0,0,0,0,0,0c0,0,0,0,0-0.01c0,0,0,0,0,0c0,0,0,0,0-0.01c0,0,0,0,0,0c0,0,0,0,0,0
			c0,0,0,0,0,0c0,0,0,0,0,0c0,0,0,0,0,0c0,0,0,0,0-0.01c0,0,0,0,0,0c0,0,0-0.01,0-0.01l0,0l0,0c0,0,0-0.01,0-0.01c0,0,0,0,0,0
			c0,0,0-0.01,0-0.01c0,0,0,0,0,0c0,0,0-0.01,0-0.01c0,0,0,0,0,0c0,0,0-0.01,0-0.01c0,0,0,0,0,0c0,0,0-0.01,0-0.01c0,0,0,0,0,0
			c0,0,0-0.01,0-0.01c0,0,0,0,0,0c0,0,0-0.01,0-0.01c0,0,0,0,0,0c0,0,0-0.01,0-0.01c0,0,0,0,0,0c0,0,0-0.01,0-0.01c0,0,0,0,0,0
			c0,0,0-0.01,0-0.01c0,0,0,0,0,0c0,0,0-0.01,0-0.01c0,0,0,0,0,0c0,0,0-0.01,0-0.01c0,0,0,0,0,0c0,0,0-0.01,0-0.01c0,0,0,0,0,0
			c0,0,0-0.01,0-0.01c0,0,0,0,0,0c0,0,0-0.01,0-0.01c0,0,0,0,0,0c0,0,0-0.01,0-0.01c0,0,0,0,0,0c0,0,0-0.01,0-0.01c0,0,0,0,0,0
			c0,0,0-0.01,0-0.01c0,0,0,0,0,0c0,0,0-0.01,0-0.01c0,0,0,0,0,0c0,0,0-0.01,0-0.01c0,0,0,0,0,0c0,0,0-0.01,0-0.01c0,0,0,0,0,0
			c0,0,0-0.01,0-0.01c0,0,0,0,0,0c0,0,0-0.01,0-0.01c0,0,0,0,0,0c0,0,0-0.01,0-0.01c0,0,0,0,0,0c0,0,0-0.01,0-0.01c0,0,0,0,0,0
			c0,0,0-0.01,0-0.01c0,0,0,0,0,0c0,0,0-0.01,0-0.01c0,0,0,0,0,0c0,0,0-0.01,0-0.01c0,0,0,0,0,0c0,0,0-0.01,0-0.01l0,0
			c0,0,0-0.01,0-0.01c0,0,0,0,0,0c0,0,0-0.01,0-0.01c0,0,0,0,0,0c0,0,0-0.01,0-0.01c0,0,0,0,0,0c0,0,0-0.01,0-0.01c0,0,0,0,0,0
			c0,0,0-0.01,0-0.01c0,0,0,0,0,0c0,0,0-0.01,0-0.01c0,0,0,0,0,0c0,0,0-0.01,0-0.01c0,0,0,0,0,0c0,0,0-0.01,0-0.01c0,0,0,0,0,0
			c0,0,0-0.01,0-0.01c0,0,0,0,0,0c0,0,0-0.01,0-0.01c0,0,0,0,0,0c0,0,0-0.01,0-0.01c0,0,0,0,0,0c0,0,0-0.01,0-0.01l0,0
			c0,0,0-0.01,0-0.01c0,0,0,0,0,0c0,0,0-0.01,0-0.01l0,0c0,0,0-0.01,0-0.01c0,0,0,0,0,0c0,0,0-0.01,0-0.01c0,0,0,0,0,0
			c0,0,0-0.01,0-0.01l0,0c0,0,0-0.01,0-0.01c0,0,0,0,0,0c0,0,0-0.01,0-0.01c0,0,0,0,0,0c0,0,0-0.01,0-0.01c0,0,0,0,0,0
			c0,0,0-0.01,0-0.01c0,0,0,0,0,0c0,0,0-0.01,0-0.01c0,0,0,0,0,0c0,0,0-0.01,0-0.01c0,0,0,0,0,0c0,0,0-0.01,0-0.01c0,0,0,0,0,0
			c0,0,0-0.01,0-0.01c0,0,0,0,0,0c0,0,0-0.01,0-0.01c0,0,0,0,0,0c0,0,0-0.01,0-0.01c0,0,0,0,0,0c0,0,0-0.01,0-0.01c0,0,0,0,0,0
			c0-0.01,0-0.01,0-0.02c0,0,0,0,0,0c0,0,0-0.01,0-0.01c0,0,0,0,0,0c0,0,0-0.01,0-0.01c0,0,0,0,0,0c0,0,0-0.01,0-0.01c0,0,0,0,0,0
			c0,0,0-0.01,0-0.01c0,0,0,0,0,0c0,0,0-0.01,0-0.01c0,0,0,0,0,0c0,0,0-0.01,0-0.01c0,0,0,0,0,0c0,0,0-0.01,0-0.01c0,0,0,0,0,0
			c0,0,0-0.01,0-0.01c0,0,0,0,0,0c0,0,0-0.01,0-0.01c0,0,0,0,0,0c0,0,0-0.01,0-0.01c0,0,0,0,0,0c0-0.01,0-0.01,0-0.02c0,0,0,0,0,0
			c0,0,0-0.01,0-0.01c0,0,0,0,0,0c0,0,0-0.01,0-0.01l0,0c0,0,0-0.01,0-0.01c0,0,0,0,0,0c0-0.01,0-0.01,0-0.02c0,0,0,0,0,0
			c0,0,0-0.01,0-0.01c0,0,0,0,0,0c0,0,0-0.01,0-0.01c0,0,0,0,0,0c0,0,0-0.01,0-0.01c0,0,0,0,0,0c0,0,0-0.01,0-0.01c0,0,0,0,0,0
			c0,0,0-0.01,0-0.01c0,0,0,0,0,0c0-0.01,0-0.01,0-0.02c0,0,0,0,0,0c0,0,0-0.01,0-0.01l0,0c0,0,0-0.01,0-0.01l0,0c0,0,0-0.01,0-0.01
			c0,0,0,0,0,0c0-0.01,0-0.01,0-0.02c0,0,0,0,0,0c0,0,0-0.01,0-0.01l0,0c0,0,0-0.01,0-0.01l0,0c0,0,0-0.01,0-0.01c0,0,0,0,0,0
			c0-0.01,0-0.01,0-0.02l0,0c0-0.01,0-0.01,0-0.02c0,0,0,0,0,0c0,0,0-0.01,0-0.01c0,0,0,0,0,0c0,0,0-0.01,0-0.01l0,0
			c0,0,0-0.01,0-0.01c0,0,0,0,0,0c0-0.01,0-0.01,0-0.02c0,0,0,0,0,0c0,0,0-0.01,0-0.01l0,0c0,0,0-0.01,0-0.01l0,0c0,0,0-0.01,0-0.01
			c0,0,0,0,0,0c0-0.01,0-0.01,0-0.02c0,0,0,0,0,0c0-0.01,0-0.02,0-0.02l0,0c0,0,0-0.01,0-0.01l0,0c0-0.01,0-0.02,0-0.02l0,0
			c0-0.01,0-0.02,0-0.02c0,0,0,0,0,0c0,0,0-0.01,0-0.01l0,0c0,0,0-0.01,0-0.01v0c0,0,0-0.01,0-0.01c0,0,0,0,0,0
			c0-0.01,0-0.02,0-0.02c0,0,0,0,0,0c0-0.01,0-0.02,0-0.02l0,0c0,0,0-0.01,0-0.01c0,0,0,0,0,0c0-0.01,0-0.02,0-0.02l0,0
			c0-0.01,0-0.02,0-0.02l0,0c0-0.01,0-0.02,0-0.03l0,0c0-0.01,0-0.02,0-0.02c0,0,0,0,0,0c0-0.01,0-0.02,0-0.03c0,0,0,0,0,0
			c0-0.01,0-0.02,0-0.02l0,0C45.9,22.93,45.85,22.45,45.78,21.98L45.78,21.98z M43.66,15.35l-0.89,0.46
			c0.58,1.13,1.06,2.31,1.42,3.53l0.96-0.28C44.77,17.76,44.26,16.52,43.66,15.35L43.66,15.35z M39.47,9.78l-0.69,0.72
			c0.92,0.87,1.76,1.84,2.5,2.87l0.81-0.58c-0.19-0.26-0.38-0.52-0.58-0.78l0,0c0,0-0.01-0.01-0.01-0.01l0,0
			c0,0-0.01-0.01-0.01-0.01c0,0,0,0,0,0c0,0-0.01-0.01-0.01-0.01c0,0,0,0,0,0c0,0-0.01-0.01-0.01-0.01c0,0,0,0,0,0
			c0,0-0.01-0.01-0.01-0.01c0,0,0,0,0,0c0,0-0.01-0.01-0.01-0.01c0,0,0,0,0,0c0,0-0.01-0.01-0.01-0.01c0,0,0,0,0,0
			c0,0-0.01-0.01-0.01-0.01c0,0,0,0,0,0c0,0-0.01-0.01-0.01-0.01c0,0,0,0,0,0c0,0-0.01-0.01-0.01-0.01c0,0,0,0,0,0
			c0,0,0-0.01-0.01-0.01c0,0,0,0,0,0c0,0,0-0.01-0.01-0.01c0,0,0,0,0,0c0,0,0-0.01-0.01-0.01c0,0,0,0,0,0c0,0,0-0.01-0.01-0.01
			c0,0,0,0,0,0c0,0,0-0.01-0.01-0.01c0,0,0,0,0,0c0,0,0-0.01-0.01-0.01c0,0,0,0,0,0c0,0,0-0.01-0.01-0.01c0,0,0,0,0,0
			c0,0,0-0.01-0.01-0.01c0,0,0,0,0,0c0,0,0-0.01-0.01-0.01c0,0,0,0,0,0c0,0,0-0.01-0.01-0.01c0,0,0,0,0,0c0,0,0,0-0.01-0.01
			c0,0,0,0,0,0c0,0,0,0-0.01-0.01c0,0,0,0,0,0c0,0,0,0-0.01-0.01c0,0,0,0,0,0c0,0,0,0-0.01-0.01c0,0,0,0,0-0.01c0,0,0,0-0.01-0.01
			c0,0,0,0,0-0.01c0,0,0,0-0.01-0.01c0,0,0,0,0-0.01c0,0,0,0-0.01-0.01c0,0,0,0,0-0.01c0,0,0,0-0.01-0.01c0,0,0,0,0-0.01
			c0,0,0,0-0.01-0.01c0,0,0,0,0-0.01c0,0,0,0-0.01-0.01c0,0,0,0,0-0.01c0,0,0,0-0.01-0.01c0,0,0,0,0-0.01c0,0,0,0,0-0.01
			c0,0,0,0-0.01-0.01c0,0,0,0,0,0c0,0,0-0.01-0.01-0.01c0,0,0,0,0,0c0,0-0.01-0.01-0.01-0.01c0,0,0,0,0,0c0,0-0.01-0.01-0.01-0.01
			c0,0,0,0,0,0c0,0-0.01-0.01-0.01-0.01c0,0,0,0,0,0c0,0-0.01-0.01-0.01-0.01c0,0,0,0,0,0c0,0-0.01-0.01-0.01-0.01c0,0,0,0,0,0
			c0,0-0.01-0.01-0.01-0.01c0,0,0,0,0,0c0,0-0.01-0.01-0.01-0.01c0,0,0,0,0,0c0,0-0.01-0.01-0.01-0.01c0,0,0,0,0,0
			c0,0-0.01-0.01-0.01-0.01c0,0,0,0,0,0c0,0-0.01-0.01-0.01-0.01c0,0,0,0,0,0c0,0-0.01-0.01-0.01-0.01c0,0,0,0,0,0
			c0,0-0.01-0.01-0.01-0.01c0,0,0,0,0,0c0,0-0.01-0.01-0.01-0.01c0,0,0,0,0,0c0,0-0.01-0.01-0.01-0.01c0,0,0,0,0,0
			c0,0-0.01-0.01-0.01-0.01c0,0,0,0,0,0c0,0-0.01-0.01-0.01-0.01c0,0,0,0,0,0c0,0-0.01-0.01-0.01-0.01l0,0c0,0-0.01-0.01-0.01-0.01
			c0,0,0,0,0,0c0,0-0.01-0.01-0.01-0.01l0,0c-0.01-0.01-0.01-0.02-0.02-0.02c0,0,0,0,0,0c0,0-0.01-0.01-0.01-0.01c0,0,0,0,0,0
			c-0.03-0.03-0.05-0.06-0.08-0.1l0,0c-0.08-0.09-0.16-0.19-0.24-0.28c0,0,0,0,0,0c0,0-0.01-0.01-0.01-0.01c0,0,0,0,0,0
			c0,0,0-0.01-0.01-0.01c0,0,0,0,0,0c0,0-0.01-0.01-0.01-0.01c0,0,0,0,0,0c0,0,0-0.01-0.01-0.01c0,0,0,0,0,0c0,0,0,0-0.01-0.01
			c0,0,0,0-0.01-0.01c0,0,0,0-0.01-0.01c0,0,0,0,0-0.01c0,0,0,0-0.01-0.01c0,0,0,0-0.01-0.01c0,0,0,0,0,0c0,0,0,0-0.01-0.01
			c0,0,0,0,0-0.01c0,0,0,0-0.01-0.01c0,0,0,0,0-0.01c0,0,0,0-0.01-0.01c0,0,0,0-0.01-0.01c0,0,0,0,0-0.01c0,0,0,0-0.01-0.01
			c0,0,0,0-0.01-0.01c0,0,0,0,0,0c0,0,0,0-0.01-0.01c0,0,0,0,0,0c0,0,0,0-0.01-0.01c0,0,0,0,0,0c0,0,0,0-0.01-0.01c0,0,0,0,0,0
			c0,0,0,0-0.01-0.01c0,0,0,0,0,0c0,0,0,0-0.01-0.01c0,0,0,0,0,0c0,0,0,0-0.01-0.01c0,0,0,0,0,0c0,0,0,0-0.01-0.01c0,0,0,0,0,0
			c0,0,0-0.01-0.01-0.01c0,0,0,0,0,0c0,0-0.01-0.01-0.01-0.01c0,0,0,0,0,0c0,0-0.01-0.01-0.01-0.01c0,0,0,0,0,0
			c0,0-0.01-0.01-0.01-0.01c0,0,0,0,0,0c0,0-0.01-0.01-0.01-0.01c0,0,0,0,0,0c0,0-0.01-0.01-0.01-0.01c0,0,0,0,0,0
			c0,0-0.01-0.01-0.01-0.01c0,0,0,0,0,0c0,0-0.01-0.01-0.01-0.01c0,0,0,0,0,0c0,0-0.01-0.01-0.01-0.01l0,0c0,0-0.01-0.01-0.01-0.01
			l0,0c0,0-0.01-0.01-0.01-0.01l0,0c0,0-0.01-0.01-0.01-0.01l0,0c0,0-0.01-0.01-0.01-0.01l0,0c0,0-0.01-0.01-0.01-0.01l0,0
			c0,0-0.01-0.01-0.01-0.01c0,0,0,0,0,0C40,10.3,39.74,10.04,39.47,9.78L39.47,9.78z M33.69,5.88l-0.41,0.91
			c1.15,0.52,2.26,1.16,3.3,1.9l0.58-0.82C36.07,7.1,34.91,6.43,33.69,5.88L33.69,5.88z M26.96,4.09l-0.09,1
			c1.26,0.12,2.52,0.36,3.74,0.71l0.28-0.96c-0.26-0.08-0.53-0.15-0.8-0.22l0,0c0,0,0,0-0.01,0c0,0,0,0,0,0c0,0,0,0-0.01,0l0,0
			c0,0,0,0-0.01,0l0,0c0,0,0,0-0.01,0l0,0c0,0,0,0-0.01,0c0,0,0,0,0,0c0,0,0,0-0.01,0c0,0,0,0,0,0c0,0,0,0-0.01,0c0,0,0,0,0,0
			c0,0,0,0-0.01,0c0,0,0,0,0,0c0,0,0,0-0.01,0c0,0,0,0,0,0c0,0,0,0-0.01,0l0,0c-0.02,0-0.03-0.01-0.05-0.01c0,0,0,0,0,0c0,0,0,0,0,0
			c0,0,0,0,0,0c0,0,0,0,0,0c0,0,0,0,0,0c0,0,0,0,0,0c0,0,0,0,0,0c0,0,0,0,0,0c0,0,0,0,0,0c0,0,0,0,0,0c0,0,0,0,0,0c0,0,0,0,0,0
			c0,0,0,0,0,0c0,0,0,0,0,0c0,0,0,0,0,0c0,0,0,0,0,0c0,0,0,0,0,0c0,0,0,0,0,0c0,0,0,0,0,0c0,0,0,0,0,0c0,0,0,0,0,0c0,0,0,0,0,0
			c0,0,0,0,0,0c0,0,0,0,0,0c0,0,0,0,0,0c0,0,0,0,0,0c0,0,0,0-0.01,0c0,0,0,0,0,0c0,0,0,0-0.01,0c0,0,0,0,0,0
			c-0.02-0.01-0.05-0.01-0.07-0.02c0,0,0,0,0,0c0,0,0,0-0.01,0c0,0,0,0,0,0c0,0,0,0-0.01,0c0,0,0,0,0,0c0,0,0,0-0.01,0c0,0,0,0,0,0
			c0,0,0,0-0.01,0c0,0,0,0,0,0c0,0,0,0-0.01,0c0,0,0,0,0,0c0,0,0,0-0.01,0c0,0,0,0,0,0c0,0,0,0-0.01,0l0,0c0,0-0.01,0-0.01,0
			c0,0,0,0,0,0c-0.75-0.17-1.52-0.3-2.3-0.39c0,0,0,0,0,0c-0.01,0-0.01,0-0.02,0l0,0c-0.02,0-0.04,0-0.07-0.01c0,0,0,0,0,0
			c0,0,0,0-0.01,0c0,0,0,0,0,0c0,0,0,0-0.01,0c0,0,0,0,0,0c0,0,0,0-0.01,0c0,0,0,0,0,0c0,0,0,0,0,0c0,0,0,0,0,0c0,0,0,0,0,0
			c0,0,0,0,0,0c0,0,0,0,0,0c0,0,0,0,0,0c0,0,0,0,0,0c0,0,0,0,0,0c0,0,0,0,0,0c0,0,0,0,0,0c0,0,0,0,0,0c0,0,0,0,0,0c0,0,0,0,0,0
			c0,0,0,0,0,0c0,0,0,0,0,0c0,0,0,0-0.01,0c0,0,0,0,0,0c0,0,0,0-0.01,0c0,0,0,0,0,0c0,0,0,0-0.01,0l0,0
			C27.13,4.11,27.05,4.1,26.96,4.09L26.96,4.09z"/>
	</g>
</g>
<g>
	<g>
		<path class="st1" d="M15.08,20.3c0.23-0.18,0.47-0.36,0.72-0.5c0.25-0.14,0.51-0.27,0.78-0.37c0.27-0.1,0.55-0.19,0.83-0.25
			c0.18-0.04,0.35-0.07,0.53-0.1c0.25-0.03,0.51-0.05,0.77-0.07c0.19-0.01,0.37,0,0.56,0.01c0.27,0.01,0.53,0.07,0.79,0.13
			c0.26,0.06,0.53,0.13,0.78,0.22c0.38,0.13,0.75,0.3,1.09,0.51c0.25,0.16,0.49,0.33,0.72,0.52c0.24,0.2,0.47,0.41,0.68,0.64
			c0.24,0.26,0.47,0.53,0.69,0.81c0.18,0.23,0.35,0.47,0.52,0.72c0.22,0.32,0.43,0.66,0.63,0.99c0.13,0.22,0.25,0.45,0.38,0.67
			c0.2,0.36,0.38,0.74,0.57,1.1c0.14,0.28,0.3,0.54,0.47,0.8c0.16,0.25,0.33,0.49,0.51,0.73c0.11,0.14,0.22,0.28,0.34,0.41
			c0.09,0.1,0.18,0.21,0.28,0.3c0.36,0.35,0.74,0.66,1.18,0.91c0.41,0.23,0.82,0.43,1.27,0.57c0.22,0.07,0.44,0.12,0.67,0.15
			c0.23,0.03,0.46,0.05,0.69,0.05c0.33,0,0.64-0.05,0.96-0.13c0.39-0.11,0.76-0.28,1.09-0.51c0.17-0.12,0.32-0.25,0.46-0.4
			c0.27-0.29,0.48-0.61,0.64-0.97c0.15-0.32,0.25-0.66,0.31-1.01c0.04-0.21,0.06-0.42,0.08-0.63c0.03-0.29,0.03-0.58,0.02-0.86
			c-0.01-0.18-0.02-0.36-0.04-0.54c-0.04-0.36-0.12-0.71-0.24-1.05c-0.12-0.35-0.29-0.67-0.52-0.96c-0.09-0.11-0.18-0.22-0.28-0.32
			c-0.25-0.24-0.52-0.44-0.83-0.61c-0.23-0.12-0.47-0.22-0.72-0.3c-0.23-0.07-0.45-0.13-0.69-0.16c-0.14-0.02-0.29-0.04-0.43-0.05
			c-0.2-0.02-0.41-0.01-0.61-0.01c-0.16,0-0.32,0.05-0.48,0.09c-0.27,0.07-0.54,0.14-0.8,0.25c-0.21,0.09-0.41,0.19-0.61,0.31
			c-0.22,0.14-0.43,0.29-0.63,0.46c-0.17,0.14-0.33,0.3-0.49,0.46c-0.22,0.22-0.42,0.46-0.61,0.7c-0.12,0.15-0.24,0.3-0.35,0.46
			c-0.05,0.08-0.19,0.08-0.25-0.03c-0.11-0.2-0.22-0.4-0.34-0.6c-0.13-0.23-0.27-0.45-0.4-0.68c-0.08-0.14-0.1-0.14,0.02-0.28
			c0.13-0.16,0.27-0.32,0.41-0.48c0.17-0.19,0.35-0.38,0.54-0.56c0.2-0.19,0.42-0.37,0.64-0.54c0.37-0.29,0.78-0.53,1.2-0.73
			c0.3-0.14,0.61-0.25,0.93-0.34c0.23-0.06,0.47-0.12,0.71-0.17c0.11-0.02,0.22-0.03,0.34-0.04C30.76,19,30.94,19,31.12,19
			c0.22,0.01,0.44,0.02,0.66,0.05c0.32,0.04,0.63,0.1,0.95,0.18c0.26,0.07,0.52,0.16,0.77,0.26c0.35,0.14,0.69,0.32,1,0.53
			c0.17,0.12,0.34,0.25,0.5,0.38c0.15,0.13,0.28,0.27,0.42,0.41c0.08,0.08,0.15,0.17,0.22,0.26c0.04,0.08,0.1,0.14,0.15,0.21
			c0.1,0.15,0.2,0.3,0.28,0.45c0.2,0.36,0.36,0.74,0.48,1.13c0.07,0.24,0.13,0.48,0.17,0.72c0.04,0.22,0.07,0.45,0.09,0.68
			c0.01,0.13,0.01,0.27,0.03,0.4c0.02,0.21,0.01,0.42,0.01,0.63c-0.01,0.21-0.02,0.43-0.04,0.64c-0.02,0.17-0.04,0.34-0.07,0.5
			c-0.04,0.21-0.08,0.42-0.14,0.63c-0.12,0.43-0.28,0.84-0.49,1.23c-0.15,0.27-0.32,0.53-0.51,0.76c-0.1,0.12-0.21,0.24-0.31,0.35
			c-0.26,0.27-0.54,0.51-0.85,0.71c-0.43,0.28-0.89,0.49-1.37,0.64c-0.22,0.07-0.45,0.12-0.68,0.15c-0.19,0.03-0.37,0.04-0.56,0.06
			C31.63,31,31.46,31,31.3,31c-0.18-0.01-0.36-0.02-0.54-0.05c-0.18-0.02-0.35-0.06-0.53-0.09c-0.27-0.05-0.54-0.13-0.8-0.22
			c-0.26-0.09-0.5-0.2-0.75-0.32c-0.4-0.19-0.79-0.41-1.15-0.66c-0.16-0.11-0.32-0.24-0.47-0.36c-0.25-0.21-0.49-0.43-0.71-0.67
			c-0.18-0.2-0.36-0.4-0.53-0.61c-0.23-0.29-0.45-0.59-0.65-0.9c-0.15-0.23-0.29-0.47-0.42-0.71c-0.19-0.34-0.36-0.7-0.54-1.04
			c-0.19-0.35-0.38-0.7-0.58-1.05c-0.17-0.29-0.35-0.58-0.55-0.86c-0.17-0.25-0.36-0.5-0.55-0.73c-0.2-0.24-0.41-0.48-0.64-0.7
			c-0.28-0.27-0.58-0.5-0.91-0.7c-0.4-0.24-0.83-0.38-1.28-0.49c-0.14-0.03-0.28-0.07-0.43-0.09c-0.15-0.02-0.3-0.01-0.45-0.01
			c-0.33,0-0.65,0.05-0.97,0.12c-0.36,0.08-0.7,0.2-1.02,0.37c-0.24,0.12-0.46,0.27-0.66,0.45c-0.22,0.19-0.41,0.41-0.58,0.66
			c-0.16,0.24-0.28,0.49-0.38,0.76c-0.09,0.23-0.15,0.47-0.2,0.71c-0.03,0.16-0.05,0.32-0.07,0.48c-0.05,0.38-0.04,0.75-0.03,1.13
			c0,0.2,0.03,0.39,0.06,0.59c0.06,0.4,0.18,0.79,0.37,1.15c0.13,0.24,0.28,0.46,0.45,0.67c0.26,0.32,0.57,0.56,0.92,0.77
			c0.35,0.21,0.73,0.36,1.13,0.46c0.2,0.05,0.41,0.08,0.61,0.09c0.22,0.02,0.44,0.01,0.67,0.01c0.16-0.01,0.32-0.03,0.48-0.06
			c0.21-0.03,0.41-0.08,0.61-0.15c0.27-0.1,0.52-0.23,0.76-0.38c0.04-0.02,0.04-0.04,0.01-0.07c-0.15-0.13-0.3-0.27-0.45-0.4
			c-0.11-0.1-0.22-0.2-0.33-0.31c-0.03-0.03-0.04-0.07-0.03-0.12c0.02-0.05,0.05-0.09,0.1-0.09c0.12-0.02,0.23-0.06,0.35-0.09
			c0.34-0.09,0.67-0.18,1.01-0.28c0.25-0.07,0.5-0.14,0.75-0.21c0.35-0.1,0.7-0.19,1.05-0.29c0.11-0.03,0.22-0.06,0.33-0.09
			c0.12-0.03,0.21,0.05,0.18,0.18c-0.03,0.14-0.04,0.29-0.07,0.43c-0.03,0.16-0.05,0.32-0.08,0.48c-0.02,0.14-0.05,0.28-0.07,0.42
			c-0.03,0.17-0.06,0.35-0.09,0.52c-0.03,0.16-0.05,0.33-0.08,0.49c-0.03,0.17-0.06,0.34-0.09,0.52c-0.02,0.14-0.04,0.28-0.07,0.42
			c-0.02,0.11-0.03,0.22-0.05,0.33c-0.01,0.08-0.12,0.11-0.19,0.07c-0.06-0.04-0.11-0.1-0.17-0.15c-0.11-0.1-0.22-0.2-0.33-0.3
			c-0.1-0.09-0.2-0.18-0.3-0.27c-0.02-0.02-0.03-0.02-0.05,0c-0.22,0.17-0.45,0.32-0.69,0.45c-0.33,0.18-0.66,0.33-1.02,0.44
			c-0.23,0.07-0.46,0.13-0.7,0.16c-0.16,0.02-0.33,0.05-0.5,0.06c-0.15,0.01-0.3,0.01-0.45,0.03c-0.17,0.02-0.35,0-0.52-0.01
			c-0.18,0-0.35-0.03-0.53-0.06c-0.22-0.03-0.45-0.08-0.66-0.14c-0.23-0.06-0.45-0.14-0.66-0.23c-0.37-0.16-0.73-0.35-1.06-0.58
			c-0.15-0.1-0.29-0.21-0.43-0.33c-0.16-0.13-0.31-0.28-0.45-0.43c-0.16-0.16-0.29-0.34-0.42-0.52c-0.2-0.28-0.38-0.59-0.53-0.9
			c-0.15-0.32-0.26-0.66-0.34-1c-0.04-0.17-0.07-0.35-0.1-0.52c-0.02-0.15-0.03-0.3-0.04-0.45c-0.03-0.33-0.03-0.66-0.02-0.98
			c0-0.21,0.02-0.42,0.05-0.63c0.03-0.25,0.06-0.51,0.12-0.75c0.07-0.34,0.17-0.67,0.3-0.99c0.07-0.16,0.13-0.32,0.21-0.47
			c0.15-0.29,0.33-0.57,0.53-0.84c0.16-0.21,0.35-0.4,0.54-0.59C14.96,20.4,15.02,20.35,15.08,20.3z"/>
	</g>
</g>
</svg>
