<?xml version="1.0" encoding="utf-8"?>
<!-- Generator: Adobe Illustrator 25.4.1, SVG Export Plug-In . SVG Version: 6.00 Build 0)  -->
<svg version="1.1" id="Layer_1" xmlns="http://www.w3.org/2000/svg" xmlns:xlink="http://www.w3.org/1999/xlink" x="0px" y="0px"
	 viewBox="0 0 50 50" style="enable-background:new 0 0 50 50;" xml:space="preserve">
<style type="text/css">
	.st0{fill:#C0DFC3;}
	.st1{fill:#CABEDA;}
	.st2{fill:#262580;}
	.st3{fill:#D5D0BD;}
</style>
<g>
	<circle class="st0" cx="25" cy="25" r="24"/>
</g>
<g>
	<path class="st2" d="M25,4C25,4,24.99,4,25,4c-0.01,0-0.01,0-0.01,0c0,0,0,0-0.01,0c0,0,0,0,0,0c0,0,0,0-0.01,0c0,0,0,0,0,0
		c0,0,0,0-0.01,0c0,0,0,0,0,0c0,0,0,0-0.01,0c0,0,0,0,0,0c0,0,0,0,0,0c0,0,0,0,0,0c0,0,0,0,0,0c0,0,0,0,0,0c0,0,0,0,0,0c0,0,0,0,0,0
		c0,0,0,0,0,0c0,0,0,0,0,0c0,0,0,0,0,0c0,0,0,0,0,0c0,0,0,0-0.01,0c0,0,0,0,0,0c0,0,0,0-0.01,0c0,0,0,0,0,0c0,0,0,0-0.01,0
		c0,0,0,0,0,0c0,0,0,0-0.01,0c0,0,0,0,0,0c-0.01,0-0.01,0-0.02,0c0,0,0,0,0,0c0,0,0,0-0.01,0c0,0,0,0,0,0c0,0,0,0-0.01,0
		c0,0,0,0,0,0c0,0,0,0-0.01,0c0,0,0,0,0,0c0,0,0,0,0,0c0,0,0,0,0,0c0,0,0,0,0,0c0,0,0,0,0,0c0,0,0,0,0,0c0,0,0,0,0,0c0,0,0,0-0.01,0
		c0,0,0,0,0,0c0,0,0,0,0,0c0,0,0,0,0,0c0,0,0,0,0,0c0,0,0,0,0,0c0,0,0,0,0,0c0,0,0,0,0,0c0,0,0,0-0.01,0c0,0,0,0,0,0c0,0,0,0-0.01,0
		c0,0,0,0,0,0c0,0,0,0-0.01,0c0,0,0,0,0,0c-0.01,0-0.01,0-0.02,0c0,0,0,0,0,0c0,0,0,0-0.01,0c0,0,0,0,0,0c0,0,0,0,0,0c0,0,0,0,0,0
		c0,0,0,0,0,0c0,0,0,0,0,0c0,0,0,0,0,0c0,0,0,0,0,0c0,0,0,0,0,0c0,0,0,0,0,0c0,0,0,0,0,0c0,0,0,0,0,0c0,0,0,0,0,0c0,0,0,0,0,0
		c0,0,0,0,0,0c0,0,0,0,0,0c0,0,0,0,0,0c0,0,0,0,0,0c0,0,0,0,0,0c0,0,0,0,0,0c0,0,0,0-0.01,0c0,0,0,0,0,0c0,0,0,0-0.01,0c0,0,0,0,0,0
		c0,0,0,0-0.01,0c0,0,0,0,0,0c-0.01,0-0.01,0-0.02,0c0,0,0,0,0,0c0,0,0,0,0,0c0,0,0,0,0,0c0,0,0,0,0,0c0,0,0,0,0,0c0,0,0,0,0,0
		c0,0,0,0,0,0c0,0,0,0,0,0c0,0,0,0,0,0c0,0,0,0,0,0c0,0,0,0,0,0c0,0,0,0,0,0c0,0,0,0,0,0c0,0,0,0,0,0c0,0,0,0,0,0c0,0,0,0,0,0
		c0,0,0,0,0,0c0,0,0,0,0,0c0,0,0,0,0,0c0,0,0,0,0,0c0,0,0,0,0,0c0,0,0,0,0,0c0,0,0,0,0,0c0,0,0,0-0.01,0c0,0,0,0,0,0c0,0,0,0-0.01,0
		c0,0,0,0,0,0c-0.01,0-0.01,0-0.02,0c0,0,0,0,0,0c0,0,0,0-0.01,0c0,0,0,0,0,0c0,0,0,0,0,0c0,0,0,0,0,0c0,0,0,0,0,0c0,0,0,0,0,0
		c0,0,0,0,0,0c0,0,0,0,0,0c0,0,0,0,0,0c0,0,0,0,0,0c0,0,0,0,0,0c0,0,0,0,0,0c0,0,0,0,0,0c0,0,0,0,0,0c0,0,0,0,0,0c0,0,0,0,0,0
		c0,0,0,0,0,0c0,0,0,0,0,0c0,0,0,0,0,0c0,0,0,0,0,0c0,0,0,0,0,0c0,0,0,0,0,0c0,0,0,0,0,0c0,0,0,0,0,0c0,0,0,0,0,0c0,0,0,0,0,0
		c0,0,0,0-0.01,0c0,0,0,0,0,0c0,0,0,0-0.01,0c0,0,0,0-0.01,0c0,0,0,0,0,0c0,0,0,0,0,0c0,0,0,0,0,0c0,0,0,0,0,0c0,0,0,0,0,0
		c0,0,0,0,0,0c0,0,0,0,0,0c0,0,0,0,0,0c0,0,0,0,0,0c0,0,0,0,0,0c0,0,0,0,0,0c0,0,0,0,0,0c0,0,0,0,0,0c0,0,0,0,0,0c0,0,0,0,0,0
		c0,0,0,0,0,0c0,0,0,0,0,0c0,0,0,0,0,0c0,0,0,0,0,0c0,0,0,0,0,0c0,0,0,0,0,0c0,0,0,0,0,0c0,0,0,0,0,0c0,0,0,0-0.01,0c0,0,0,0,0,0
		c0,0,0,0,0,0c0,0,0,0-0.01,0c0,0,0,0,0,0c0,0-0.01,0-0.01,0c0,0,0,0-0.01,0c0,0,0,0,0,0c0,0,0,0-0.01,0c0,0,0,0,0,0c0,0,0,0,0,0
		c0,0,0,0,0,0c0,0,0,0-0.01,0c0,0,0,0,0,0c0,0,0,0-0.01,0c0,0,0,0,0,0c0,0,0,0-0.01,0c0,0,0,0,0,0c0,0,0,0,0,0c0,0,0,0,0,0
		c0,0,0,0,0,0c0,0,0,0,0,0c0,0,0,0,0,0c0,0,0,0,0,0c0,0,0,0,0,0c0,0,0,0,0,0c0,0,0,0,0,0c0,0,0,0,0,0c0,0,0,0,0,0c0,0,0,0,0,0
		c0,0,0,0,0,0c0,0,0,0,0,0c0,0,0,0,0,0c0,0,0,0,0,0c0,0,0,0,0,0c0,0,0,0-0.01,0c0,0-0.01,0-0.01,0c0,0,0,0,0,0c0,0,0,0-0.01,0
		c0,0,0,0,0,0c0,0,0,0-0.01,0c0,0,0,0,0,0c0,0,0,0,0,0c0,0,0,0,0,0c0,0,0,0,0,0c0,0,0,0,0,0c0,0,0,0,0,0c0,0,0,0,0,0c0,0,0,0,0,0
		c0,0,0,0,0,0c0,0,0,0,0,0c0,0,0,0,0,0c0,0,0,0,0,0c0,0,0,0,0,0c0,0,0,0-0.01,0c0,0,0,0,0,0c0,0,0,0-0.01,0c0,0,0,0,0,0c0,0,0,0,0,0
		c0,0,0,0,0,0c0,0,0,0-0.01,0c0,0,0,0,0,0c0,0,0,0-0.01,0c0,0,0,0,0,0c-0.01,0-0.01,0-0.02,0c0,0,0,0,0,0c0,0,0,0-0.01,0
		c0,0,0,0,0,0c0,0,0,0,0,0c0,0,0,0,0,0c0,0,0,0-0.01,0c0,0,0,0,0,0c0,0,0,0-0.01,0c0,0,0,0,0,0c0,0,0,0-0.01,0c0,0,0,0,0,0
		c0,0,0,0-0.01,0c0,0,0,0,0,0c0,0,0,0-0.01,0c0,0,0,0,0,0c0,0,0,0-0.01,0c0,0,0,0,0,0c0,0,0,0-0.01,0c0,0,0,0,0,0c0,0,0,0-0.01,0
		c0,0,0,0,0,0c0,0,0,0-0.01,0l0,0c0,0,0,0-0.01,0l0,0c-0.01,0-0.03,0-0.04,0c0,0,0,0,0,0c0,0,0,0-0.01,0c0,0,0,0,0,0c0,0,0,0-0.01,0
		c0,0,0,0,0,0c0,0,0,0-0.01,0c0,0,0,0,0,0c0,0,0,0-0.01,0c0,0,0,0,0,0c0,0,0,0-0.01,0c0,0,0,0,0,0c0,0,0,0-0.01,0c0,0,0,0,0,0
		c0,0,0,0-0.01,0c0,0,0,0,0,0c0,0,0,0-0.01,0c0,0,0,0,0,0c0,0,0,0-0.01,0c0,0,0,0,0,0c0,0,0,0-0.01,0l0,0c0,0,0,0-0.01,0
		c0,0,0,0,0,0c-0.01,0-0.03,0-0.04,0l0,0c0,0,0,0-0.01,0l0,0c0,0,0,0-0.01,0c0,0,0,0,0,0c0,0,0,0-0.01,0c0,0,0,0,0,0c0,0,0,0-0.01,0
		c0,0,0,0,0,0c0,0,0,0-0.01,0l0,0c0,0,0,0-0.01,0c0,0,0,0,0,0c0,0,0,0-0.01,0c0,0,0,0,0,0c0,0,0,0-0.01,0c0,0,0,0,0,0
		c0,0,0,0-0.01,0l0,0c0,0-0.01,0-0.01,0l0,0c-0.02,0-0.03,0-0.05,0l0,0c0,0,0,0-0.01,0l0,0c0,0,0,0-0.01,0c0,0,0,0,0,0
		c0,0,0,0-0.01,0c0,0,0,0,0,0c0,0,0,0-0.01,0c0,0,0,0,0,0c0,0,0,0-0.01,0l0,0c0,0,0,0-0.01,0c0,0,0,0,0,0c0,0,0,0-0.01,0
		c0,0,0,0,0,0c0,0-0.01,0-0.01,0l0,0c-0.03,0-0.05,0-0.08,0.01l0,0c0,0-0.01,0-0.01,0c0,0,0,0,0,0c0,0,0,0-0.01,0l0,0
		c0,0,0,0-0.01,0l0,0c0,0,0,0-0.01,0l0,0c-0.04,0-0.07,0.01-0.11,0.01l0,0c-0.01,0-0.01,0-0.02,0l0,0
		c-0.76,0.06-1.52,0.16-2.26,0.31l0.19,0.98C22.45,5.12,23.73,5,25,5V4L25,4L25,4z M18.13,5.15C18.13,5.15,18.13,5.15,18.13,5.15
		C18.12,5.15,18.12,5.15,18.13,5.15c-0.01,0-0.01,0-0.01,0c0,0,0,0,0,0c0,0,0,0,0,0c0,0,0,0,0,0c0,0,0,0,0,0c0,0,0,0,0,0
		c0,0,0,0,0,0c0,0,0,0,0,0c0,0,0,0,0,0c0,0,0,0,0,0c0,0,0,0,0,0c0,0,0,0,0,0c0,0,0,0,0,0c0,0,0,0-0.01,0c0,0,0,0,0,0c0,0,0,0,0,0
		c0,0,0,0,0,0c0,0,0,0,0,0c0,0,0,0,0,0c0,0,0,0,0,0c0,0,0,0,0,0c0,0,0,0-0.01,0c0,0,0,0,0,0c0,0,0,0,0,0c0,0,0,0,0,0c0,0,0,0,0,0
		c0,0,0,0,0,0c0,0,0,0,0,0c0,0,0,0,0,0c0,0,0,0-0.01,0c0,0,0,0,0,0c0,0,0,0-0.01,0c0,0,0,0,0,0c0,0,0,0-0.01,0c0,0,0,0,0,0
		c0,0,0,0-0.01,0c0,0,0,0,0,0c0,0,0,0-0.01,0c0,0,0,0,0,0c0,0,0,0-0.01,0c0,0,0,0,0,0c0,0,0,0-0.01,0c0,0,0,0,0,0c0,0,0,0-0.01,0
		c0,0,0,0,0,0c0,0,0,0-0.01,0c0,0,0,0,0,0c0,0,0,0-0.01,0c0,0,0,0,0,0c0,0,0,0-0.01,0c0,0,0,0,0,0c0,0,0,0-0.01,0c0,0,0,0,0,0
		c0,0,0,0-0.01,0c0,0,0,0,0,0c-0.01,0-0.01,0-0.01,0.01c0,0,0,0,0,0c-0.97,0.35-1.9,0.76-2.8,1.24c0,0,0,0,0,0c0,0-0.01,0-0.01,0.01
		c0,0,0,0,0,0c0,0,0,0-0.01,0c0,0,0,0,0,0c0,0,0,0-0.01,0c0,0,0,0,0,0c0,0,0,0-0.01,0c0,0,0,0,0,0c0,0,0,0-0.01,0c0,0,0,0,0,0
		c0,0-0.01,0-0.01,0.01c0,0,0,0,0,0c0,0-0.01,0-0.01,0.01c0,0,0,0,0,0c0,0,0,0-0.01,0c0,0,0,0,0,0c0,0,0,0,0,0c0,0,0,0,0,0
		c0,0,0,0,0,0c0,0,0,0-0.01,0l0,0c-0.03,0.01-0.05,0.03-0.08,0.04l0,0c-0.01,0-0.02,0.01-0.03,0.01l0,0
		c-0.14,0.07-0.27,0.15-0.41,0.23L15,7.68c1.1-0.64,2.26-1.17,3.46-1.58L18.13,5.15L18.13,5.15z M12.02,8.49
		c-0.08,0.06-0.16,0.13-0.24,0.2l0,0c0,0-0.01,0.01-0.01,0.01l0,0c0,0-0.01,0.01-0.01,0.01l0,0c0,0-0.01,0.01-0.01,0.01l0,0
		c0,0-0.01,0.01-0.01,0.01l0,0c0,0-0.01,0.01-0.01,0.01l0,0c0,0-0.01,0.01-0.01,0.01l0,0c0,0-0.01,0.01-0.01,0.01l0,0
		c0,0-0.01,0.01-0.01,0.01c0,0,0,0,0,0c0,0-0.01,0.01-0.01,0.01c0,0,0,0,0,0c0,0-0.01,0.01-0.01,0.01c0,0,0,0,0,0
		c0,0-0.01,0.01-0.01,0.01c0,0,0,0,0,0c0,0-0.01,0.01-0.01,0.01c0,0,0,0,0,0c0,0-0.01,0.01-0.01,0.01c0,0,0,0,0,0
		c0,0-0.01,0.01-0.01,0.01c0,0,0,0,0,0c0,0-0.01,0.01-0.01,0.01c0,0,0,0,0,0c0,0-0.01,0.01-0.01,0.01c0,0,0,0,0,0
		c0,0-0.01,0.01-0.01,0.01c0,0,0,0,0,0c0,0-0.01,0.01-0.01,0.01c0,0,0,0,0,0c0,0-0.01,0.01-0.01,0.01c0,0,0,0,0,0
		c0,0-0.01,0-0.01,0.01c0,0,0,0,0,0c0,0-0.01,0-0.01,0.01c0,0,0,0,0,0c0,0-0.01,0-0.01,0.01c0,0,0,0,0,0c0,0-0.01,0-0.01,0.01
		c0,0,0,0,0,0c0,0-0.01,0-0.01,0.01c0,0,0,0,0,0c0,0-0.01,0-0.01,0.01c0,0,0,0,0,0c0,0-0.01,0-0.01,0.01c0,0,0,0,0,0
		c0,0-0.01,0-0.01,0.01c0,0,0,0,0,0c0,0-0.01,0-0.01,0.01c0,0,0,0,0,0c0,0-0.01,0-0.01,0.01c0,0,0,0,0,0c0,0-0.01,0-0.01,0.01
		c0,0,0,0,0,0c0,0-0.01,0-0.01,0.01c0,0,0,0,0,0c0,0-0.01,0-0.01,0.01c0,0,0,0,0,0c0,0-0.01,0-0.01,0.01c0,0,0,0,0,0
		c0,0-0.01,0-0.01,0.01c0,0,0,0,0,0c0,0-0.01,0-0.01,0.01c0,0,0,0,0,0c0,0,0,0-0.01,0.01c0,0,0,0-0.01,0c0,0,0,0-0.01,0.01
		c0,0,0,0-0.01,0c0,0,0,0-0.01,0.01c0,0,0,0-0.01,0.01c0,0,0,0-0.01,0.01c0,0,0,0-0.01,0c0,0,0,0-0.01,0c0,0,0,0-0.01,0.01
		c0,0,0,0-0.01,0c0,0,0,0-0.01,0.01c0,0,0,0-0.01,0c0,0,0,0-0.01,0.01c0,0,0,0-0.01,0c0,0,0,0-0.01,0.01c0,0,0,0,0,0
		c0,0-0.01,0-0.01,0.01c0,0,0,0,0,0c0,0-0.01,0-0.01,0.01c0,0,0,0,0,0c0,0-0.01,0-0.01,0.01c0,0,0,0,0,0c0,0-0.01,0-0.01,0.01
		c0,0,0,0,0,0c0,0-0.01,0-0.01,0.01c0,0,0,0,0,0c0,0-0.01,0-0.01,0.01c0,0,0,0,0,0c0,0-0.01,0-0.01,0.01c0,0,0,0,0,0
		c0,0-0.01,0-0.01,0.01c0,0,0,0,0,0c0,0-0.01,0.01-0.01,0.01c0,0,0,0,0,0c0,0-0.01,0.01-0.01,0.01c0,0,0,0,0,0
		c0,0-0.01,0.01-0.01,0.01c0,0,0,0,0,0c0,0-0.01,0-0.01,0.01c0,0,0,0,0,0c0,0-0.01,0.01-0.01,0.01c0,0,0,0,0,0
		c0,0-0.01,0.01-0.01,0.01c0,0,0,0,0,0c0,0-0.01,0.01-0.01,0.01c0,0,0,0,0,0c0,0-0.01,0.01-0.01,0.01c0,0,0,0,0,0
		c0,0-0.01,0.01-0.01,0.01c0,0,0,0,0,0c0,0-0.01,0.01-0.01,0.01c0,0,0,0,0,0c0,0-0.01,0.01-0.01,0.01c0,0,0,0,0,0
		c0,0-0.01,0.01-0.01,0.01c0,0,0,0,0,0c0,0-0.01,0.01-0.01,0.01c0,0,0,0,0,0c0,0-0.01,0.01-0.01,0.01c0,0,0,0,0,0
		c0,0-0.01,0.01-0.01,0.01c0,0,0,0,0,0c0,0-0.01,0.01-0.01,0.01c0,0,0,0,0,0c0,0-0.01,0.01-0.01,0.01c0,0,0,0,0,0
		c0,0-0.01,0.01-0.01,0.01c0,0,0,0,0,0c0,0-0.01,0.01-0.01,0.01c0,0,0,0,0,0c0,0-0.01,0.01-0.01,0.01c0,0,0,0,0,0
		c0,0-0.01,0.01-0.01,0.01c0,0,0,0,0,0c0,0-0.01,0.01-0.01,0.01c0,0,0,0,0,0c0,0-0.01,0.01-0.01,0.01c0,0,0,0,0,0
		c0,0-0.01,0.01-0.01,0.01l0,0c-0.62,0.56-1.2,1.16-1.75,1.79l0.76,0.65c0.83-0.96,1.76-1.84,2.75-2.63L12.02,8.49L12.02,8.49z
		 M7.33,13.65c-0.56,0.87-1.06,1.79-1.49,2.74l0,0c0,0,0,0,0,0.01l0,0c0,0,0,0,0,0.01l0,0c0,0,0,0.01-0.01,0.01l0,0
		c0,0,0,0.01-0.01,0.01c0,0,0,0,0,0c0,0,0,0.01-0.01,0.01c0,0,0,0,0,0c0,0,0,0,0,0.01l0,0c0,0,0,0,0,0.01l0,0c0,0,0,0,0,0.01l0,0
		c0,0,0,0,0,0.01l0,0c0,0,0,0,0,0.01l0,0c0,0,0,0,0,0.01l0,0c0,0,0,0,0,0.01l0,0c0,0,0,0,0,0.01c0,0,0,0,0,0c0,0,0,0,0,0.01l0,0
		c0,0,0,0,0,0.01l0,0c0,0,0,0,0,0.01l0,0c0,0,0,0,0,0.01c0,0,0,0,0,0c0,0,0,0,0,0.01c0,0,0,0,0,0c0,0,0,0,0,0.01c0,0,0,0,0,0
		c0,0,0,0,0,0.01c0,0,0,0,0,0c0,0,0,0,0,0.01c0,0,0,0,0,0c0,0,0,0,0,0.01c0,0,0,0,0,0c0,0.01-0.01,0.02-0.01,0.02c0,0,0,0,0,0l0,0
		c0,0.01-0.01,0.02-0.01,0.03l0,0c0,0,0,0.01-0.01,0.01c0,0,0,0,0,0c0,0,0,0,0,0.01c0,0,0,0,0,0c0,0,0,0,0,0.01c0,0,0,0,0,0
		c0,0,0,0,0,0.01c0,0,0,0,0,0c0,0,0,0.01-0.01,0.01l0,0c0,0,0,0.01-0.01,0.01l0,0c0,0,0,0,0,0.01c0,0,0,0,0,0c0,0,0,0,0,0.01
		c0,0,0,0,0,0c-0.07,0.16-0.14,0.33-0.2,0.49l0.93,0.37c0.47-1.18,1.06-2.31,1.74-3.38L7.33,13.65L7.33,13.65z M4.59,20.06
		c-0.1,0.41-0.19,0.83-0.26,1.25l0,0c0,0,0,0,0,0.01l0,0c0,0,0,0,0,0.01l0,0c0,0,0,0,0,0.01c0,0,0,0,0,0
		c-0.01,0.03-0.01,0.06-0.02,0.09l0,0c0,0,0,0,0,0.01c0,0,0,0,0,0c0,0,0,0,0,0.01c0,0,0,0,0,0c0,0,0,0,0,0.01c0,0,0,0,0,0
		c0,0,0,0,0,0.01c0,0,0,0,0,0c0,0,0,0,0,0c0,0,0,0,0,0c0,0,0,0,0,0c0,0,0,0,0,0c0,0,0,0,0,0c0,0,0,0,0,0c0,0,0,0,0,0c0,0,0,0,0,0
		c0,0,0,0,0,0c0,0,0,0,0,0c0,0,0,0,0,0c0,0,0,0,0,0c0,0,0,0,0,0c0,0,0,0,0,0c0,0,0,0,0,0c0,0,0,0,0,0.01c0,0,0,0,0,0c0,0,0,0,0,0
		c0,0,0,0.01,0,0.01c0,0,0,0,0,0c0,0,0,0,0,0c0,0,0,0,0,0c0,0,0,0,0,0c0,0,0,0,0,0c0,0,0,0,0,0c0,0,0,0,0,0c0,0,0,0,0,0c0,0,0,0,0,0
		c0,0,0,0,0,0c0,0,0,0,0,0c0,0,0,0,0,0c0,0,0,0,0,0c0,0,0,0,0,0c0,0,0,0,0,0c0,0,0,0,0,0c0,0,0,0,0,0c0,0,0,0,0,0c0,0,0,0,0,0
		c0,0,0,0,0,0c0,0,0,0,0,0c0,0,0,0,0,0c0,0,0,0,0,0.01c0,0,0,0,0,0c0,0,0,0,0,0.01c0,0,0,0,0,0c0,0,0,0,0,0.01c0,0,0,0,0,0
		c0,0.02-0.01,0.03-0.01,0.05c0,0,0,0,0,0c0,0,0,0.01,0,0.01l0,0c0,0,0,0,0,0.01c0,0,0,0,0,0c0,0,0,0,0,0.01c0,0,0,0,0,0
		c0,0,0,0,0,0.01c0,0,0,0,0,0c0,0,0,0,0,0.01c0,0,0,0,0,0c0,0,0,0,0,0.01c0,0,0,0,0,0c0,0,0,0,0,0.01c0,0,0,0,0,0c0,0,0,0,0,0.01
		c0,0,0,0,0,0c0,0,0,0.01,0,0.01c0,0,0,0,0,0c0,0,0,0,0,0.01c0,0,0,0,0,0c0,0,0,0,0,0.01c0,0,0,0,0,0c0,0.03-0.01,0.05-0.01,0.08
		c0,0,0,0,0,0c0,0,0,0,0,0.01c0,0,0,0,0,0c0,0,0,0,0,0.01c0,0,0,0,0,0c0,0,0,0.01,0,0.01c0,0,0,0,0,0c0,0.01,0,0.01,0,0.02
		c0,0,0,0,0,0c-0.1,0.69-0.17,1.4-0.2,2.11l1,0.05c0.06-1.27,0.24-2.54,0.54-3.77L4.59,20.06L4.59,20.06z M5.09,26.91l-1,0.09
		c0,0.01,0,0.02,0,0.02c0,0,0,0,0,0c0,0,0,0,0,0.01c0,0,0,0,0,0c0,0,0,0,0,0.01c0,0,0,0,0,0c0,0,0,0,0,0.01c0,0,0,0,0,0c0,0,0,0,0,0
		c0,0,0,0,0,0c0,0,0,0,0,0c0,0,0,0,0,0c0,0,0,0,0,0c0,0,0,0,0,0c0,0,0,0,0,0c0,0,0,0,0,0c0,0,0,0,0,0c0,0,0,0,0,0c0,0,0,0,0,0
		c0,0,0,0,0,0c0,0,0,0,0,0c0,0,0,0,0,0.01c0,0,0,0,0,0c0,0,0,0,0,0.01c0,0,0,0,0,0c0,0,0,0,0,0.01c0,0,0,0,0,0c0,0,0,0,0,0.01l0,0
		c0.13,1.3,0.38,2.57,0.74,3.79l0.96-0.28C5.45,29.43,5.21,28.18,5.09,26.91L5.09,26.91z M6.81,33.32L5.9,33.74
		c0.26,0.56,0.54,1.11,0.84,1.64l0,0c0.01,0.01,0.01,0.02,0.02,0.03l0,0c0,0,0.01,0.01,0.01,0.01l0,0c0,0,0,0,0,0.01l0,0
		c0,0,0,0,0,0.01l0,0c0,0,0,0,0,0.01l0,0c0,0.01,0.01,0.01,0.01,0.02c0,0,0,0,0,0c0,0,0,0,0,0.01l0,0c0,0,0,0,0,0.01c0,0,0,0,0,0
		c0,0,0,0,0,0.01c0,0,0,0,0,0c0,0,0,0,0,0.01c0,0,0,0,0,0c0,0,0,0,0,0.01c0,0,0,0,0,0c0,0,0,0,0,0.01c0,0,0,0,0,0c0,0,0,0,0,0.01
		c0,0,0,0,0,0c0,0,0,0,0,0.01c0,0,0,0,0,0c0,0,0,0,0,0.01c0,0,0,0,0,0c0,0,0,0,0,0.01c0,0,0,0,0,0c0,0,0,0,0,0.01c0,0,0,0,0,0
		c0,0,0,0,0,0.01c0,0,0,0,0,0c0,0,0,0,0,0.01l0,0c0,0,0,0,0,0.01l0,0c0,0,0,0,0,0.01l0,0c0,0,0,0,0,0.01c0,0,0,0,0,0c0,0,0,0,0,0
		c0,0,0,0,0,0c0,0,0,0,0,0c0,0,0,0,0,0c0,0,0,0,0,0c0,0,0,0,0,0c0,0,0,0,0,0c0,0,0,0,0,0c0,0,0,0,0,0c0,0,0,0,0,0c0,0,0,0,0,0
		c0,0,0,0,0,0c0,0,0,0,0,0c0,0,0,0,0,0c0,0,0,0,0,0c0,0,0,0,0,0c0,0,0,0,0,0c0,0,0,0,0,0c0,0,0,0,0,0c0,0,0,0,0,0c0,0,0,0.01,0,0.01
		c0,0,0,0.01,0.01,0.01c0,0,0,0,0,0c0,0,0,0,0,0c0,0,0,0,0,0.01l0,0c0,0,0,0,0,0c0,0,0,0,0,0c0,0,0,0,0,0c0,0,0,0,0,0.01
		c0,0,0,0,0,0c0,0,0,0.01,0.01,0.01c0,0,0,0,0,0c0,0,0,0.01,0.01,0.01c0,0,0,0,0,0c0,0,0,0,0,0.01c0,0,0,0,0,0c0,0,0,0,0,0.01
		c0,0,0,0,0,0c0,0,0,0.01,0.01,0.01l0,0c0,0,0.01,0.01,0.01,0.01c0,0,0,0,0,0c0,0,0,0,0,0.01c0,0,0,0,0,0c0,0,0,0,0,0.01
		c0,0,0,0,0,0c0,0,0,0,0,0.01c0,0,0,0,0,0c0,0,0,0,0,0.01c0,0,0,0,0,0c0,0,0,0,0,0.01c0,0,0,0,0,0c0,0,0,0,0,0.01c0,0,0,0,0,0
		c0,0,0,0,0,0.01c0,0,0,0,0,0c0,0,0,0,0,0.01c0,0,0,0,0,0c0,0,0,0,0,0.01c0,0,0,0,0,0c0,0,0,0,0,0.01c0,0,0,0,0,0c0,0,0,0,0,0.01
		c0,0,0,0,0,0c0,0,0,0,0,0.01c0,0,0,0,0,0c0,0,0.01,0.01,0.01,0.01c0,0,0,0,0,0c0,0,0.01,0.01,0.01,0.01l0,0
		c0,0,0.01,0.01,0.01,0.01c0,0,0,0,0,0c0,0,0.01,0.01,0.01,0.01c0,0,0,0,0,0c0.27,0.45,0.56,0.88,0.86,1.3l0.81-0.58
		C7.98,35.58,7.33,34.47,6.81,33.32L6.81,33.32z M10.53,38.81L9.81,39.5c0.37,0.39,0.76,0.77,1.17,1.13l0,0c0,0,0.01,0.01,0.01,0.01
		l0,0c0,0,0.01,0.01,0.01,0.01l0,0c0,0,0.01,0.01,0.01,0.01l0,0c0,0,0.01,0.01,0.01,0.01l0,0c0,0,0.01,0.01,0.01,0.01l0,0
		c0,0,0.01,0.01,0.01,0.01l0,0c0,0,0.01,0.01,0.01,0.01l0,0c0,0,0.01,0.01,0.01,0.01c0,0,0,0,0,0c0,0,0.01,0.01,0.01,0.01
		c0,0,0,0,0,0c0,0,0.01,0.01,0.01,0.01c0,0,0,0,0,0c0,0,0.01,0.01,0.01,0.01c0,0,0,0,0,0c0,0,0.01,0.01,0.01,0.01c0,0,0,0,0,0
		c0,0,0.01,0.01,0.01,0.01c0,0,0,0,0,0c0,0,0.01,0.01,0.01,0.01c0,0,0,0,0,0c0,0,0.01,0.01,0.01,0.01c0,0,0,0,0,0
		c0,0,0.01,0.01,0.01,0.01c0,0,0,0,0,0c0,0,0.01,0.01,0.01,0.01c0,0,0,0,0,0c0,0,0.01,0.01,0.01,0.01l0,0c0,0,0.01,0.01,0.01,0.01
		l0,0c0,0,0.01,0.01,0.01,0.01l0,0c0,0,0.01,0.01,0.01,0.01l0,0c0,0,0.01,0.01,0.01,0.01l0,0c0,0,0.01,0.01,0.01,0.01c0,0,0,0,0,0
		c0,0,0.01,0.01,0.01,0.01c0,0,0,0,0,0c0,0,0.01,0.01,0.01,0.01c0,0,0,0,0,0c0,0,0.01,0.01,0.01,0.01c0,0,0,0,0,0
		c0,0,0.01,0.01,0.01,0.01c0,0,0,0,0,0c0,0,0.01,0.01,0.01,0.01c0,0,0,0,0,0c0,0,0.01,0.01,0.01,0.01c0,0,0,0,0,0
		c0,0,0.01,0.01,0.01,0.01c0,0,0,0,0,0c0,0,0.01,0.01,0.01,0.01l0,0c0,0,0.01,0.01,0.01,0.01l0,0c0,0,0.01,0.01,0.01,0.01l0,0
		c0,0,0.01,0.01,0.01,0.01c0,0,0,0,0,0c0,0,0.01,0.01,0.01,0.01c0,0,0,0,0,0c0,0,0.01,0.01,0.01,0.01c0,0,0,0,0,0
		c0,0,0.01,0.01,0.01,0.01c0,0,0,0,0,0c0,0,0.01,0.01,0.01,0.01c0,0,0,0,0,0c0,0,0.01,0.01,0.01,0.01c0,0,0,0,0,0
		c0,0,0.01,0.01,0.01,0.01c0,0,0,0,0,0c0,0,0.01,0.01,0.01,0.01c0,0,0,0,0,0c0,0,0.01,0.01,0.01,0.01c0,0,0,0,0,0
		c0,0,0.01,0.01,0.01,0.01c0,0,0,0,0,0c0,0,0.01,0.01,0.01,0.01c0,0,0,0,0,0c0,0,0.01,0.01,0.01,0.01c0,0,0,0,0,0
		c0,0,0.01,0.01,0.01,0.01c0,0,0,0,0,0c0,0,0.01,0.01,0.01,0.01c0,0,0,0,0,0c0,0,0.01,0.01,0.01,0.01c0,0,0,0,0,0
		c0,0,0.01,0.01,0.01,0.01c0,0,0,0,0,0c0,0,0.01,0.01,0.01,0.01c0,0,0,0,0,0c0,0,0.01,0.01,0.01,0.01c0,0,0,0,0,0
		c0,0,0.01,0.01,0.01,0.01c0,0,0,0,0,0c0,0,0.01,0.01,0.01,0.01c0,0,0,0,0,0c0,0,0.01,0,0.01,0.01c0,0,0,0,0,0c0,0,0.01,0,0.01,0.01
		c0,0,0,0,0,0c0,0,0.01,0,0.01,0.01c0,0,0,0,0,0c0,0,0.01,0,0.01,0.01c0,0,0,0,0,0c0,0,0.01,0,0.01,0.01c0,0,0,0,0,0
		c0,0,0.01,0,0.01,0.01c0,0,0,0,0,0c0,0,0.01,0,0.01,0.01c0,0,0,0,0,0c0,0,0.01,0,0.01,0.01c0,0,0,0,0,0c0,0,0.01,0,0.01,0.01
		c0,0,0,0,0,0c0,0,0.01,0,0.01,0.01c0,0,0,0,0,0c0,0,0.01,0,0.01,0.01c0,0,0,0,0,0c0,0,0.01,0,0.01,0.01c0,0,0,0,0,0
		c0,0,0.01,0,0.01,0.01c0,0,0,0,0,0c0,0,0.01,0,0.01,0.01c0,0,0,0,0,0c0,0,0.01,0,0.01,0.01c0,0,0,0,0,0c0,0,0.01,0,0.01,0.01
		c0,0,0,0,0,0c0,0,0.01,0,0.01,0.01c0,0,0,0,0,0c0,0,0.01,0,0.01,0.01c0,0,0,0,0,0c0,0,0.01,0,0.01,0.01c0,0,0,0,0,0
		c0,0,0.01,0,0.01,0.01c0,0,0,0,0,0c0,0,0.01,0,0.01,0.01c0,0,0,0,0,0c0,0,0,0,0.01,0.01c0,0,0,0,0.01,0c0,0,0,0,0.01,0.01
		c0,0,0,0,0.01,0c0,0,0,0,0.01,0.01c0,0,0,0,0.01,0c0,0,0,0,0.01,0c0,0,0,0,0.01,0c0,0,0,0,0.01,0c0,0,0,0,0.01,0c0,0,0,0,0.01,0
		c0,0,0,0,0.01,0.01c0,0,0,0,0.01,0c0,0,0,0,0.01,0.01c0,0,0,0,0.01,0c0,0,0,0,0.01,0.01c0,0,0,0,0,0c0,0,0.01,0,0.01,0.01
		c0,0,0,0,0,0c0,0,0.01,0,0.01,0.01c0,0,0,0,0,0c0,0,0.01,0,0.01,0.01c0,0,0,0,0,0c0,0,0.01,0,0.01,0.01c0,0,0,0,0,0
		c0,0,0.01,0,0.01,0.01c0,0,0,0,0,0c0,0,0.01,0,0.01,0.01c0,0,0,0,0,0c0,0,0.01,0,0.01,0.01c0,0,0,0,0,0c0,0,0.01,0,0.01,0.01
		c0,0,0,0,0,0c0,0,0.01,0,0.01,0.01c0,0,0,0,0,0c0,0,0.01,0,0.01,0.01c0,0,0,0,0,0c0,0,0.01,0,0.01,0.01c0,0,0,0,0,0
		c0,0,0.01,0.01,0.01,0.01c0,0,0,0,0,0c0,0,0.01,0.01,0.01,0.01c0,0,0,0,0,0c0,0,0.01,0.01,0.01,0.01c0,0,0,0,0,0
		c0,0,0.01,0.01,0.01,0.01c0,0,0,0,0,0c0,0,0.01,0.01,0.01,0.01c0,0,0,0,0,0c0,0,0.01,0.01,0.01,0.01c0,0,0,0,0,0
		c0,0,0.01,0.01,0.01,0.01c0,0,0,0,0,0c0,0,0.01,0.01,0.01,0.01l0,0c0.21,0.16,0.42,0.32,0.63,0.47l0.58-0.81
		C12.38,40.57,11.41,39.73,10.53,38.81L10.53,38.81z M15.85,42.79l-0.46,0.89c0.79,0.41,1.62,0.77,2.47,1.08l0,0
		c0.05,0.02,0.11,0.04,0.16,0.06c0,0,0,0,0,0c0,0,0,0,0.01,0c0,0,0,0,0,0c0,0,0,0,0,0c0,0,0,0,0,0c0,0,0,0,0,0c0,0,0,0,0,0
		c0,0,0,0,0,0c0,0,0,0,0,0c0,0,0,0,0,0c0,0,0,0,0,0c0,0,0,0,0,0c0,0,0,0,0,0c0,0,0,0,0,0c0,0,0,0,0,0c0,0,0,0,0,0c0,0,0,0,0,0
		c0,0,0,0,0,0c0,0,0,0,0,0c0,0,0,0,0,0c0,0,0,0,0,0c0,0,0,0,0,0c0,0,0,0,0,0c0,0,0,0,0,0c0,0,0,0,0,0c0,0,0,0,0,0c0,0,0,0,0.01,0
		c0,0,0,0,0,0c0,0,0,0,0.01,0c0,0,0,0,0,0c0,0,0,0,0.01,0c0,0,0,0,0,0c0,0,0,0,0.01,0c0,0,0,0,0,0c0,0,0,0,0.01,0l0,0
		c0,0,0,0,0.01,0c0,0,0,0,0,0c0,0,0,0,0.01,0c0,0,0,0,0,0c0,0,0,0,0.01,0c0,0,0,0,0,0c0,0,0,0,0.01,0l0,0c0,0,0,0,0.01,0l0,0
		c0.3,0.1,0.61,0.2,0.91,0.29l0.28-0.96C18.16,43.84,16.98,43.37,15.85,42.79L15.85,42.79z M22.17,44.8l-0.14,0.99
		c0.68,0.1,1.36,0.16,2.06,0.19h0c0.01,0,0.02,0,0.03,0l0,0c0.01,0,0.02,0,0.03,0c0,0,0,0,0,0c0.01,0,0.02,0,0.02,0c0,0,0,0,0,0
		c0.01,0,0.02,0,0.03,0c0,0,0,0,0,0c0.01,0,0.02,0,0.02,0c0,0,0,0,0,0c0,0,0,0,0.01,0c0,0,0,0,0,0c0.01,0,0.01,0,0.02,0c0,0,0,0,0,0
		c0,0,0,0,0.01,0c0,0,0,0,0,0c0.01,0,0.01,0,0.02,0c0,0,0,0,0,0c0,0,0,0,0.01,0c0,0,0,0,0,0c0.01,0,0.01,0,0.02,0c0,0,0,0,0,0
		c0,0,0,0,0.01,0c0,0,0,0,0,0c0,0,0.01,0,0.01,0c0,0,0,0,0,0c0,0,0,0,0.01,0c0,0,0,0,0,0c0,0,0.01,0,0.01,0c0,0,0,0,0,0
		c0,0,0,0,0.01,0c0,0,0,0,0,0c0,0,0,0,0.01,0c0,0,0,0,0,0c0,0,0.01,0,0.01,0c0,0,0,0,0,0c0,0,0,0,0.01,0c0,0,0,0,0,0c0,0,0,0,0.01,0
		c0,0,0.01,0,0.01,0c0,0,0,0,0.01,0c0,0,0,0,0,0c0,0,0,0,0.01,0c0,0,0,0,0.01,0c0,0,0,0,0.01,0c0,0,0,0,0.01,0c0,0,0,0,0,0
		c0,0,0,0,0.01,0c0,0,0,0,0,0c0,0,0.01,0,0.01,0c0,0,0,0,0,0c0,0,0,0,0.01,0c0,0,0,0,0.01,0c0,0,0,0,0.01,0c0,0,0,0,0.01,0
		c0,0,0,0,0.01,0c0,0,0,0,0,0c0,0,0,0,0.01,0c0,0,0,0,0,0c0,0,0.01,0,0.01,0c0,0,0,0,0,0c0,0,0,0,0.01,0c0,0,0,0,0,0c0,0,0,0,0.01,0
		c0,0,0,0,0,0c0,0,0.01,0,0.01,0c0,0,0,0,0,0c0,0,0,0,0.01,0c0,0,0,0,0,0c0,0,0.01,0,0.01,0c0,0,0,0,0,0c0,0,0,0,0.01,0c0,0,0,0,0,0
		c0,0,0,0,0.01,0c0,0,0,0,0,0c0,0,0.01,0,0.01,0c0,0,0,0,0,0c0,0,0,0,0.01,0c0,0,0,0,0,0c0,0,0.01,0,0.01,0c0,0,0,0,0,0
		c0,0,0.01,0,0.01,0c0,0,0,0,0,0c0,0,0,0,0.01,0c0,0,0,0,0,0c0,0,0.01,0,0.01,0c0,0,0,0,0,0c0,0,0,0,0.01,0c0,0,0,0,0,0
		c0,0,0.01,0,0.01,0l0,0c0,0,0.01,0,0.01,0c0,0,0,0,0,0c0,0,0,0,0.01,0c0,0,0,0,0,0c0,0,0.01,0,0.01,0c0,0,0,0,0,0c0,0,0,0,0.01,0
		c0,0,0,0,0,0c0,0,0.01,0,0.01,0c0,0,0,0,0,0c0,0,0.01,0,0.01,0c0,0,0,0,0,0c0,0,0,0,0.01,0c0,0,0,0,0,0c0,0,0.01,0,0.01,0
		c0,0,0,0,0,0c0,0,0.01,0,0.01,0c0,0,0,0,0,0c0,0,0.01,0,0.01,0c0,0,0,0,0,0c0,0,0.01,0,0.01,0c0,0,0,0,0,0c0,0,0.01,0,0.01,0
		c0,0,0,0,0,0c0,0,0.01,0,0.01,0c0,0,0,0,0,0c0,0,0.01,0,0.01,0c0,0,0,0,0,0c0,0,0.01,0,0.01,0c0,0,0,0,0,0c0,0,0.01,0,0.01,0
		c0,0,0,0,0,0c0,0,0.01,0,0.01,0c0,0,0,0,0,0c0,0,0.01,0,0.01,0c0,0,0,0,0,0c0,0,0.01,0,0.01,0c0,0,0,0,0,0c0,0,0.01,0,0.01,0
		c0,0,0,0,0,0c0,0,0.01,0,0.01,0c0,0,0,0,0,0c0,0,0.01,0,0.01,0c0,0,0,0,0,0c0,0,0.01,0,0.01,0l0,0c0,0,0.01,0,0.01,0c0,0,0,0,0,0
		c0,0,0,0,0.01,0c0,0,0,0,0,0c0,0,0,0,0.01,0c0,0,0,0,0,0c0,0,0,0,0.01,0c0,0,0,0,0,0c0,0,0,0,0.01,0c0,0,0,0,0,0c0,0,0,0,0.01,0
		c0,0,0,0,0,0c0,0,0,0,0.01,0c0,0,0,0,0,0c0,0,0,0,0.01,0c0,0,0,0,0,0c0,0,0,0,0.01,0c0,0,0,0,0,0c0,0,0,0,0.01,0c0,0,0,0,0,0
		c0,0,0,0,0.01,0c0,0,0,0,0,0c0,0,0,0,0.01,0c0,0,0,0,0,0c0,0,0,0,0.01,0c0,0,0,0,0,0c0,0,0,0,0.01,0c0,0,0,0,0,0
		c0.01,0,0.03,0,0.04,0c0,0,0,0,0,0c0,0,0,0,0.01,0c0,0,0,0,0,0c0,0,0,0,0.01,0c0,0,0,0,0,0c0,0,0,0,0.01,0c0,0,0,0,0,0
		c0,0,0,0,0.01,0c0,0,0,0,0,0c0,0,0,0,0.01,0c0,0,0,0,0,0c0,0,0,0,0.01,0c0,0,0,0,0,0c0,0,0,0,0.01,0c0,0,0,0,0,0c0,0,0,0,0.01,0
		c0,0,0,0,0,0c0,0,0,0,0.01,0c0,0,0,0,0,0c0,0,0,0,0.01,0c0,0,0,0,0,0c0.02,0,0.03,0,0.05,0c0,0,0,0,0,0c0,0,0,0,0.01,0c0,0,0,0,0,0
		c0,0,0,0,0.01,0c0,0,0,0,0,0c0,0,0,0,0.01,0c0,0,0,0,0,0c0,0,0,0,0.01,0c0,0,0,0,0,0c0,0,0,0,0.01,0c0,0,0,0,0,0c0,0,0,0,0.01,0
		c0,0,0,0,0,0c0,0,0,0,0.01,0c0,0,0,0,0,0c0,0,0,0,0.01,0c0,0,0,0,0,0c0,0,0,0,0.01,0c0,0,0,0,0,0c0.03,0,0.06,0,0.08,0c0,0,0,0,0,0
		c0,0,0,0,0.01,0c0,0,0,0,0,0c0,0,0,0,0.01,0c0,0,0,0,0,0c0,0,0,0,0.01,0c0,0,0,0,0,0c0,0,0,0,0.01,0c0,0,0,0,0,0c0,0,0.01,0,0.01,0
		c0,0,0,0,0,0c0,0,0.01,0,0.01,0c0,0,0,0,0,0c0.03,0,0.05,0,0.08,0c0,0,0,0,0,0c0,0,0,0,0.01,0c0,0,0,0,0,0c0,0,0,0,0.01,0
		c0,0,0,0,0,0c0,0,0,0,0.01,0c0,0,0,0,0,0c0,0,0,0,0.01,0c0,0,0,0,0,0c0,0,0,0,0.01,0c0,0,0,0,0,0c0,0,0,0,0.01,0c0,0,0,0,0,0
		c0,0,0,0,0.01,0c0,0,0,0,0,0c0,0,0,0,0.01,0c0,0,0,0,0,0c0,0,0,0,0.01,0c0,0,0,0,0,0c0,0,0,0,0.01,0c0,0,0,0,0,0c0,0,0,0,0.01,0
		c0,0,0,0,0,0c0.01,0,0.02,0,0.03,0c0,0,0,0,0,0c0,0,0,0,0.01,0c0,0,0,0,0,0c0,0,0,0,0.01,0c0,0,0,0,0,0c0,0,0,0,0.01,0c0,0,0,0,0,0
		c0,0,0,0,0.01,0c0,0,0,0,0,0c0,0,0,0,0,0c0,0,0,0,0,0c0,0,0,0,0,0c0,0,0,0,0,0c0,0,0,0,0,0c0,0,0,0,0,0c0,0,0,0,0,0c0,0,0,0,0,0
		c0,0,0,0,0,0c0,0,0,0,0,0c0,0,0,0,0,0c0,0,0,0,0,0c0,0,0,0,0,0c0,0,0,0,0.01,0l0,0c0.02,0,0.04,0,0.05,0l0,0c0,0,0,0,0.01,0
		c0,0,0,0,0,0c0,0,0,0,0.01,0c0,0,0,0,0,0c0,0,0,0,0.01,0l0,0c0,0,0,0,0.01,0l0,0c0,0,0,0,0.01,0l0,0c0.04,0,0.08,0,0.12-0.01
		l-0.05-1C25.65,44.99,25.33,45,25,45C24.05,45,23.1,44.93,22.17,44.8L22.17,44.8z M32.45,43.57c-1.18,0.47-2.4,0.83-3.65,1.07
		L29,45.62c0.29-0.06,0.59-0.12,0.87-0.19l0,0c0.01,0,0.02,0,0.03-0.01c0,0,0,0,0,0c0.01,0,0.02-0.01,0.03-0.01l0,0
		c0.04-0.01,0.08-0.02,0.12-0.03c0,0,0,0,0,0c0,0,0,0,0.01,0c0,0,0,0,0,0c0,0,0,0,0.01,0c0,0,0,0,0,0c0,0,0,0,0.01,0c0,0,0,0,0,0
		c0,0,0,0,0.01,0c0,0,0,0,0,0c0,0,0,0,0.01,0c0,0,0,0,0,0c0,0,0,0,0.01,0c0,0,0,0,0,0c0,0,0,0,0.01,0c0,0,0,0,0,0c0,0,0,0,0.01,0
		c0,0,0,0,0,0c0,0,0,0,0.01,0c0,0,0,0,0,0c0,0,0,0,0,0c0,0,0,0,0,0c0,0,0,0,0.01,0c0,0,0,0,0,0c0,0,0,0,0.01,0c0,0,0,0,0,0
		c0,0,0,0,0.01,0c0,0,0,0,0,0c0,0,0,0,0.01,0c0,0,0,0,0,0c0,0,0,0,0.01,0c0,0,0,0,0,0c0,0,0,0,0.01,0c0,0,0,0,0,0c0,0,0,0,0.01,0
		c0,0,0,0,0,0c0,0,0,0,0.01,0c0,0,0,0,0,0c0,0,0,0,0.01,0c0,0,0,0,0,0c0.01,0,0.02-0.01,0.03-0.01c0,0,0,0,0,0c0,0,0,0,0.01,0
		c0,0,0,0,0,0c0,0,0,0,0,0c0,0,0,0,0,0c0,0,0,0,0,0c0,0,0,0,0,0c0,0,0,0,0,0c0,0,0,0,0,0c0,0,0,0,0,0c0,0,0,0,0,0c0,0,0,0,0,0
		c0,0,0,0,0,0c0,0,0,0,0,0c0,0,0,0,0,0c0,0,0,0,0,0c0,0,0,0,0,0c0,0,0,0,0,0c0,0,0,0,0,0c0,0,0,0,0,0c0,0,0,0,0,0c0,0,0,0,0,0
		c0,0,0,0,0,0c0,0,0,0,0,0c0,0,0,0,0,0c0,0,0,0,0,0c0,0,0,0,0,0c0,0,0,0,0,0c0,0,0,0,0,0c0,0,0,0,0,0c0,0,0,0,0,0c0,0,0,0,0,0
		c0,0,0,0,0,0c0,0,0,0,0,0c0,0,0,0,0,0c0,0,0,0,0,0c0,0,0,0,0,0c0,0,0,0,0,0c0,0,0,0,0,0c0,0,0,0,0,0c0,0,0,0,0,0c0,0,0,0,0,0
		c0,0,0,0,0,0c0,0,0,0,0,0c0,0,0,0,0,0c0,0,0,0,0.01,0c0,0,0,0,0,0c0,0,0,0,0.01,0c0,0,0,0,0,0c0,0,0,0,0.01,0c0,0,0,0,0,0
		c0,0,0,0,0,0c0,0,0,0,0,0c0.01,0,0.02-0.01,0.03-0.01c0,0,0,0,0,0c0,0,0,0,0.01,0c0,0,0,0,0,0c0,0,0,0,0.01,0c0,0,0,0,0,0
		c0,0,0,0,0,0c0,0,0,0,0,0c0,0,0,0,0,0c0,0,0,0,0,0c0,0,0,0,0,0c0,0,0,0,0,0c0,0,0,0,0,0c0,0,0,0,0,0c0,0,0,0,0,0c0,0,0,0,0,0
		c0,0,0,0,0.01,0c0,0,0,0,0,0c0,0,0,0,0,0c0,0,0,0,0,0c0,0,0,0,0,0c0,0,0,0,0,0c0,0,0,0,0,0c0,0,0,0,0,0c0,0,0,0,0,0c0,0,0,0,0,0
		c0,0,0,0,0,0c0,0,0,0,0,0c0,0,0,0,0,0c0,0,0,0,0,0c0,0,0,0,0,0c0,0,0,0,0,0c0,0,0,0,0,0c0,0,0,0,0,0c0,0,0,0,0,0c0,0,0,0,0,0
		c0,0,0,0,0,0c0,0,0,0,0,0c0,0,0,0,0,0c0,0,0,0,0,0c0,0,0,0,0,0c0,0,0,0,0,0c0,0,0,0,0,0c0,0,0,0,0,0c0,0,0,0,0,0c0,0,0,0,0,0
		c0,0,0,0,0.01,0c0,0,0,0,0,0c0,0,0,0,0,0c0,0,0,0,0,0c0,0,0,0,0.01,0c0,0,0,0,0,0c0,0,0.01,0,0.01,0c0,0,0,0,0,0c0,0,0,0,0.01,0
		c0,0,0,0,0,0c0,0,0,0,0.01,0c0,0,0,0,0,0c0,0,0,0,0,0c0,0,0,0,0,0c0,0,0,0,0.01,0c0,0,0,0,0,0c0,0,0,0,0.01,0c0,0,0,0,0,0
		c0,0,0,0,0.01,0c0,0,0,0,0,0c0,0,0,0,0,0c0,0,0,0,0,0c0,0,0,0,0,0c0,0,0,0,0,0c0,0,0,0,0,0c0,0,0,0,0,0c0,0,0,0,0,0c0,0,0,0,0,0
		c0,0,0,0,0,0c0,0,0,0,0,0c0,0,0,0,0,0c0,0,0,0,0,0c0,0,0,0,0,0c0,0,0,0,0,0c0,0,0,0,0,0c0,0,0,0,0,0c0,0,0,0,0,0c0,0,0,0,0,0
		c0,0,0,0,0,0c0,0,0,0,0,0c0,0,0,0,0,0c0,0,0,0,0,0c0,0,0,0,0,0c0,0,0,0,0,0c0,0,0,0,0,0c0,0,0,0,0,0c0,0,0,0,0,0c0,0,0,0,0,0
		c0,0,0,0,0.01,0c0,0,0,0,0,0c0,0,0,0,0,0c0,0,0,0,0,0c0,0,0,0,0,0c0,0,0,0,0,0c0,0,0,0,0.01,0c0,0,0,0,0,0c0,0,0,0,0,0c0,0,0,0,0,0
		c0,0,0,0,0,0c0,0,0,0,0,0c0.01,0,0.02-0.01,0.03-0.01c0,0,0,0,0,0c0,0,0,0,0.01,0l0,0c0,0,0.01,0,0.01,0c0,0,0,0,0,0
		c0,0,0,0,0.01,0c0,0,0,0,0,0c0,0,0,0,0.01,0c0,0,0,0,0,0c0,0,0,0,0.01,0c0,0,0,0,0,0c0,0,0,0,0.01,0c0,0,0,0,0,0c0,0,0,0,0.01,0
		c0,0,0,0,0,0c0,0,0,0,0.01,0c0,0,0,0,0,0c0,0,0,0,0.01,0c0,0,0,0,0,0c0,0,0,0,0.01,0c0,0,0,0,0,0c0,0,0,0,0.01,0c0,0,0,0,0,0
		c0,0,0,0,0,0c0,0,0,0,0,0c0,0,0,0,0,0c0,0,0,0,0,0c0,0,0,0,0.01,0c0,0,0,0,0,0c0,0,0,0,0.01,0c0,0,0,0,0,0c0,0,0,0,0,0c0,0,0,0,0,0
		c0,0,0,0,0.01,0c0,0,0,0,0,0c0,0,0,0,0.01,0c0,0,0,0,0,0c0,0,0,0,0.01,0c0,0,0,0,0,0c0,0,0,0,0.01,0c0,0,0,0,0,0
		c0.01,0,0.01,0,0.01,0c0,0,0,0,0,0c0.01,0,0.01,0,0.01,0c0,0,0,0,0,0c0.01,0,0.02-0.01,0.03-0.01c0,0,0,0,0,0c0,0,0,0,0.01,0l0,0
		c0,0,0,0,0.01,0c0,0,0,0,0,0c0,0,0,0,0.01,0c0,0,0,0,0,0c0,0,0,0,0.01,0c0,0,0,0,0,0c0,0,0,0,0.01,0c0,0,0,0,0,0c0,0,0,0,0.01,0
		c0,0,0,0,0,0c0,0,0,0,0.01,0c0,0,0,0,0,0c0,0,0,0,0.01,0c0,0,0,0,0,0c0,0,0,0,0.01,0c0,0,0,0,0,0c0,0,0,0,0.01,0c0,0,0,0,0,0
		c0,0,0,0,0.01,0c0,0,0,0,0,0c0,0,0,0,0.01,0c0,0,0,0,0,0c0,0,0,0,0.01,0c0,0,0,0,0,0c0,0,0,0,0,0c0,0,0,0,0,0c0,0,0,0,0,0
		c0,0,0,0,0,0c0,0,0,0,0,0c0,0,0,0,0,0c0,0,0,0,0,0c0,0,0,0,0,0c0,0,0,0,0,0c0,0,0,0,0,0c0,0,0,0,0,0c0,0,0,0,0,0c0,0,0,0,0,0
		c0,0,0,0,0,0c0,0,0,0,0.01,0c0,0,0,0,0,0c0,0,0,0,0.01,0c0,0,0,0,0,0c0,0,0,0,0.01,0c0,0,0,0,0,0c0.02,0,0.03-0.01,0.05-0.01
		c0,0,0,0,0,0c0,0,0,0,0.01,0c0,0,0,0,0,0c0,0,0,0,0.01,0c0,0,0,0,0,0c0,0,0,0,0.01,0c0,0,0,0,0,0c0,0,0,0,0.01,0c0,0,0,0,0,0
		c0,0,0,0,0.01,0c0,0,0,0,0,0c0,0,0,0,0.01,0c0,0,0,0,0,0c0,0,0,0,0.01,0c0,0,0,0,0,0c0,0,0,0,0.01,0c0,0,0,0,0,0c0,0,0,0,0.01,0
		c0,0,0,0,0,0c0,0,0,0,0.01,0c0,0,0,0,0,0c0,0,0,0,0.01,0c0,0,0,0,0,0c0,0,0,0,0.01,0c0,0,0,0,0,0c0,0,0,0,0.01,0c0,0,0,0,0,0
		c0,0,0,0,0.01,0c0,0,0,0,0,0c0,0,0,0,0.01,0c0,0,0,0,0,0c0,0,0,0,0.01,0c0,0,0,0,0,0c0,0,0,0,0.01,0c0,0,0,0,0,0c0,0,0,0,0.01,0
		c0,0,0,0,0,0c0,0,0,0,0.01,0c0,0,0,0,0,0c0,0,0,0,0.01,0c0,0,0,0,0,0c0,0,0,0,0.01,0c0,0,0,0,0,0c0.01,0,0.01,0,0.01,0c0,0,0,0,0,0
		c0.02,0,0.03-0.01,0.05-0.01c0,0,0,0,0,0c0,0,0,0,0.01,0h0c0,0,0,0,0.01,0c0,0,0,0,0,0c0,0,0,0,0.01,0c0,0,0,0,0,0c0,0,0,0,0.01,0
		c0,0,0,0,0,0c0,0,0,0,0.01,0c0,0,0,0,0,0c0,0,0,0,0.01,0c0,0,0,0,0,0c0,0,0,0,0.01,0c0,0,0,0,0,0c0,0,0,0,0.01,0c0,0,0,0,0,0
		c0,0,0,0,0.01,0c0,0,0,0,0,0c0,0,0,0,0.01,0c0,0,0,0,0,0c0,0,0,0,0.01,0c0,0,0,0,0,0c0,0,0,0,0.01,0c0,0,0,0,0,0c0,0,0,0,0.01,0
		c0,0,0,0,0,0c0,0,0,0,0.01,0c0,0,0,0,0,0c0,0,0,0,0.01,0c0,0,0,0,0,0c0,0,0,0,0.01,0c0,0,0,0,0,0c0,0,0,0,0.01,0c0,0,0,0,0,0
		c0,0,0,0,0.01,0c0,0,0,0,0,0c0,0,0,0,0.01,0c0,0,0,0,0,0c0,0,0,0,0.01,0c0,0,0,0,0,0c0,0,0,0,0.01,0c0,0,0,0,0,0c0,0,0,0,0,0
		c0,0,0,0,0,0c0,0,0,0,0,0c0,0,0,0,0,0c0.01,0,0.01-0.01,0.02-0.01c0,0,0,0,0,0c0,0,0,0,0.01,0c0,0,0,0,0,0c0,0,0,0,0.01,0
		c0,0,0,0,0,0c0,0,0,0,0.01,0c0,0,0,0,0,0c0,0,0,0,0,0c0,0,0,0,0,0c0,0,0,0,0,0c0,0,0,0,0,0c0,0,0,0,0,0c0,0,0,0,0,0c0,0,0,0,0,0
		c0,0,0,0,0,0c0,0,0,0,0,0c0,0,0,0,0,0c0,0,0,0,0,0c0,0,0,0,0,0c0,0,0,0,0,0c0,0,0,0,0,0c0,0,0,0,0,0c0,0,0,0,0,0c0,0,0,0,0,0
		c0,0,0,0,0,0c0,0,0,0,0,0c0,0,0,0,0,0c0,0,0,0,0,0c0,0,0,0,0,0c0,0,0,0,0,0c0,0,0,0,0,0c0,0,0,0,0,0c0,0,0,0,0,0c0,0,0,0,0,0
		c0,0,0,0,0,0c0,0,0,0,0,0c0,0,0,0,0,0c0,0,0,0,0,0c0,0,0,0,0,0c0,0,0,0,0,0c0,0,0,0,0,0c0,0,0,0,0,0c0,0,0,0,0,0c0,0,0,0,0,0
		c0,0,0,0,0,0c0,0,0,0,0,0c0,0,0,0,0.01,0c0,0,0,0,0,0c0,0,0,0,0.01,0c0,0,0,0,0,0c0,0,0,0,0.01,0c0,0,0,0,0,0
		c0.01,0,0.03-0.01,0.04-0.01c0,0,0,0,0,0c0,0,0.01,0,0.01,0l0,0c0,0,0,0,0.01,0c0,0,0,0,0,0c0,0,0,0,0.01,0c0,0,0,0,0,0
		c0,0,0,0,0.01,0l0,0c0,0,0,0,0.01,0c0,0,0,0,0,0c0,0,0,0,0.01,0c0,0,0,0,0,0c0,0,0,0,0.01,0c0,0,0,0,0,0c0,0,0,0,0.01,0l0,0
		c0,0,0,0,0.01,0l0,0c0,0,0,0,0.01,0h0c0,0,0,0,0.01,0l0,0c0.25-0.09,0.49-0.18,0.74-0.28L32.45,43.57L32.45,43.57z M38.11,40.1
		c-0.96,0.83-2,1.58-3.09,2.21l0.5,0.87c0.69-0.4,1.35-0.84,1.99-1.31l0,0c0.01-0.01,0.02-0.01,0.03-0.02l0,0
		c0.01-0.01,0.02-0.01,0.02-0.02l0,0c0,0,0.01-0.01,0.01-0.01l0,0c0,0,0.01-0.01,0.01-0.01l0,0c0,0,0.01-0.01,0.01-0.01l0,0
		c0,0,0.01-0.01,0.01-0.01l0,0c0,0,0.01-0.01,0.01-0.01l0,0c0,0,0.01-0.01,0.01-0.01c0,0,0,0,0,0c0,0,0.01-0.01,0.01-0.01
		c0,0,0,0,0,0c0,0,0.01-0.01,0.01-0.01c0,0,0,0,0,0c0,0,0.01-0.01,0.01-0.01c0,0,0,0,0,0c0,0,0.01-0.01,0.01-0.01c0,0,0,0,0,0
		c0,0,0.01-0.01,0.01-0.01c0,0,0,0,0,0c0,0,0.01-0.01,0.01-0.01c0,0,0,0,0,0c0,0,0.01-0.01,0.01-0.01c0,0,0,0,0,0
		c0,0,0.01-0.01,0.01-0.01c0,0,0,0,0,0c0,0,0.01-0.01,0.01-0.01c0,0,0,0,0,0c0,0,0.01-0.01,0.01-0.01c0,0,0,0,0,0
		c0,0,0.01-0.01,0.01-0.01c0,0,0,0,0,0c0,0,0.01-0.01,0.01-0.01c0,0,0,0,0,0c0,0,0.01,0,0.01-0.01c0,0,0,0,0,0c0,0,0.01,0,0.01-0.01
		c0,0,0,0,0,0c0,0,0.01,0,0.01-0.01c0,0,0,0,0,0c0,0,0.01,0,0.01-0.01c0,0,0,0,0,0c0,0,0.01,0,0.01-0.01c0,0,0,0,0,0
		c0,0,0,0,0.01-0.01c0,0,0,0,0.01,0c0,0,0.01,0,0.01-0.01c0,0,0,0,0,0c0,0,0,0,0.01-0.01c0,0,0,0,0.01,0c0,0,0,0,0.01-0.01
		c0,0,0,0,0.01,0c0,0,0,0,0.01,0c0,0,0,0,0.01,0c0,0,0,0,0.01,0c0,0,0,0,0.01,0c0,0,0,0,0.01,0c0,0,0,0,0.01,0c0,0,0,0,0.01,0
		c0,0,0,0,0.01-0.01c0,0,0,0,0.01,0c0,0,0,0,0.01-0.01c0,0,0,0,0.01,0c0,0,0,0,0.01-0.01c0,0,0,0,0.01,0c0,0,0.01,0,0.01-0.01
		c0,0,0,0,0,0c0,0,0.01,0,0.01-0.01c0,0,0,0,0,0c0,0,0.01,0,0.01-0.01c0,0,0,0,0,0c0,0,0.01,0,0.01-0.01c0,0,0,0,0,0
		c0,0,0.01-0.01,0.01-0.01c0,0,0,0,0,0c0,0,0.01-0.01,0.01-0.01c0,0,0,0,0,0c0,0,0.01-0.01,0.01-0.01c0,0,0,0,0,0
		c0,0,0.01-0.01,0.01-0.01c0,0,0,0,0,0c0,0,0.01-0.01,0.01-0.01c0,0,0,0,0,0c0.23-0.19,0.46-0.38,0.69-0.57L38.11,40.1L38.11,40.1z
		 M42.34,34.98c-0.63,1.1-1.37,2.14-2.21,3.1l0.76,0.65c0.32-0.37,0.62-0.74,0.91-1.13l0,0c0,0,0.01-0.01,0.01-0.01l0,0
		c0,0,0.01-0.01,0.01-0.01l0,0c0,0,0.01-0.01,0.01-0.01l0,0c0,0,0.01-0.01,0.01-0.01l0,0c0,0,0.01-0.01,0.01-0.01l0,0
		c0,0,0.01-0.01,0.01-0.01c0,0,0,0,0,0c0,0,0.01-0.01,0.01-0.01c0,0,0,0,0,0c0,0,0.01-0.01,0.01-0.01c0,0,0,0,0,0
		c0,0,0.01-0.01,0.01-0.01c0,0,0,0,0,0c0,0,0.01-0.01,0.01-0.01c0,0,0,0,0,0c0,0,0.01-0.01,0.01-0.01c0,0,0,0,0,0
		c0,0,0.01-0.01,0.01-0.01c0,0,0,0,0,0c0,0,0.01-0.01,0.01-0.01c0,0,0,0,0,0c0,0,0.01-0.01,0.01-0.01l0,0c0,0,0.01-0.01,0.01-0.01
		l0,0c0,0,0.01-0.01,0.01-0.01l0,0c0,0,0.01-0.01,0.01-0.01c0,0,0,0,0,0c0,0,0.01-0.01,0.01-0.01c0,0,0,0,0,0
		c0,0,0.01-0.01,0.01-0.01c0,0,0,0,0,0c0,0,0.01-0.01,0.01-0.01c0,0,0,0,0,0c0,0,0.01-0.01,0.01-0.01c0,0,0,0,0,0
		c0,0,0.01-0.01,0.01-0.01c0,0,0,0,0,0c0,0,0.01-0.01,0.01-0.01c0,0,0,0,0,0c0,0,0.01-0.01,0.01-0.01c0,0,0,0,0,0
		c0,0,0.01-0.01,0.01-0.01c0,0,0,0,0,0c0,0,0.01-0.01,0.01-0.01c0,0,0,0,0,0c0,0,0.01-0.01,0.01-0.01c0,0,0,0,0,0
		c0,0,0.01-0.01,0.01-0.01c0,0,0,0,0,0c0,0,0.01-0.01,0.01-0.01c0,0,0,0,0,0c0,0,0-0.01,0.01-0.01c0,0,0,0,0,0c0,0,0-0.01,0.01-0.01
		c0,0,0,0,0,0c0,0,0-0.01,0.01-0.01c0,0,0,0,0,0c0,0,0-0.01,0.01-0.01c0,0,0,0,0,0c0,0,0-0.01,0.01-0.01c0,0,0,0,0,0
		c0,0,0-0.01,0.01-0.01c0,0,0,0,0,0c0,0,0-0.01,0.01-0.01c0,0,0,0,0,0c0,0,0-0.01,0.01-0.01c0,0,0,0,0,0c0,0,0-0.01,0.01-0.01
		c0,0,0,0,0,0c0,0,0-0.01,0.01-0.01c0,0,0,0,0,0c0,0,0-0.01,0.01-0.01c0,0,0,0,0,0c0,0,0-0.01,0.01-0.01c0,0,0,0,0,0
		c0,0,0-0.01,0.01-0.01c0,0,0,0,0,0c0,0,0-0.01,0.01-0.01c0,0,0,0,0,0c0,0,0-0.01,0.01-0.01c0,0,0,0,0,0c0,0,0-0.01,0.01-0.01
		c0,0,0,0,0,0c0,0,0-0.01,0.01-0.01c0,0,0,0,0,0c0,0,0-0.01,0.01-0.01c0,0,0,0,0,0c0,0,0-0.01,0.01-0.01c0,0,0,0,0,0
		c0,0,0-0.01,0.01-0.01c0,0,0,0,0,0c0,0,0-0.01,0.01-0.01c0,0,0,0,0,0c0,0,0-0.01,0.01-0.01c0,0,0,0,0,0c0,0,0-0.01,0.01-0.01
		c0,0,0,0,0,0c0,0,0-0.01,0.01-0.01c0,0,0,0,0,0c0,0,0-0.01,0.01-0.01c0,0,0,0,0,0c0,0,0-0.01,0.01-0.01c0,0,0,0,0,0
		c0,0,0-0.01,0.01-0.01c0,0,0,0,0,0c0,0,0-0.01,0.01-0.01c0,0,0,0,0,0c0,0,0-0.01,0.01-0.01c0,0,0,0,0,0c0,0,0-0.01,0.01-0.01
		c0,0,0,0,0,0c0,0,0-0.01,0.01-0.01c0,0,0,0,0,0c0,0,0-0.01,0.01-0.01c0,0,0,0,0,0c0,0,0-0.01,0.01-0.01c0,0,0,0,0,0
		c0,0,0-0.01,0.01-0.01c0,0,0,0,0,0c0,0,0-0.01,0.01-0.01c0,0,0,0,0,0c0,0,0-0.01,0.01-0.01c0,0,0,0,0,0c0,0,0-0.01,0.01-0.01
		c0,0,0,0,0,0c0,0,0-0.01,0.01-0.01c0,0,0,0,0,0c0,0,0-0.01,0.01-0.01c0,0,0,0,0,0c0,0,0-0.01,0.01-0.01c0,0,0,0,0,0
		c0,0,0-0.01,0.01-0.01c0,0,0,0,0,0c0,0,0-0.01,0.01-0.01c0,0,0,0,0,0c0,0,0-0.01,0.01-0.01c0,0,0,0,0,0c0,0,0-0.01,0.01-0.01
		c0,0,0,0,0,0c0,0,0-0.01,0.01-0.01c0,0,0,0,0,0c0,0,0-0.01,0.01-0.01c0,0,0,0,0,0c0,0,0-0.01,0.01-0.01c0,0,0,0,0,0
		c0,0,0-0.01,0.01-0.01c0,0,0,0,0,0c0,0,0-0.01,0.01-0.01c0,0,0,0,0,0c0,0,0-0.01,0.01-0.01c0,0,0,0,0,0c0,0,0-0.01,0.01-0.01
		c0,0,0,0,0,0c0,0,0-0.01,0.01-0.01c0,0,0,0,0,0c0,0,0-0.01,0.01-0.01c0,0,0,0,0,0c0,0,0-0.01,0.01-0.01c0,0,0,0,0,0
		c0,0,0-0.01,0.01-0.01c0,0,0,0,0,0c0,0,0-0.01,0.01-0.01c0,0,0,0,0,0c0,0,0-0.01,0.01-0.01c0,0,0,0,0,0c0,0,0-0.01,0.01-0.01
		c0,0,0,0,0,0c0,0,0-0.01,0.01-0.01c0,0,0,0,0,0c0,0,0-0.01,0.01-0.01c0,0,0,0,0,0c0,0,0-0.01,0.01-0.01c0,0,0,0,0,0
		c0,0,0-0.01,0.01-0.01c0,0,0,0,0,0c0,0,0-0.01,0.01-0.01c0,0,0,0,0,0c0,0,0-0.01,0.01-0.01c0,0,0,0,0,0c0,0,0-0.01,0.01-0.01
		c0,0,0,0,0,0c0,0,0-0.01,0.01-0.01c0,0,0,0,0,0c0,0,0-0.01,0.01-0.01c0,0,0,0,0,0c0,0,0.01-0.01,0.01-0.01c0,0,0,0,0,0
		c0,0,0-0.01,0.01-0.01c0,0,0,0,0,0c0,0,0-0.01,0.01-0.01c0,0,0,0,0,0c0,0,0.01-0.01,0.01-0.01c0,0,0,0,0,0c0,0,0.01-0.01,0.01-0.01
		c0,0,0,0,0,0c0,0,0.01-0.01,0.01-0.01c0,0,0,0,0,0c0,0,0.01-0.01,0.01-0.01c0,0,0,0,0,0c0,0,0.01-0.01,0.01-0.01l0,0
		c0,0,0.01-0.01,0.01-0.01l0,0c0.01-0.01,0.01-0.02,0.02-0.03l0,0c0.16-0.25,0.31-0.5,0.45-0.75L42.34,34.98L42.34,34.98z
		 M44.65,28.76c-0.24,1.25-0.6,2.47-1.07,3.65l0.93,0.37c0.18-0.44,0.34-0.89,0.48-1.34v0c0-0.01,0.01-0.02,0.01-0.03l0,0
		c0,0,0-0.01,0-0.01c0,0,0,0,0,0c0,0,0-0.01,0-0.01l0,0c0.02-0.05,0.03-0.1,0.05-0.15l0,0c0,0,0-0.01,0-0.01l0,0c0,0,0,0,0-0.01l0,0
		c0,0,0,0,0-0.01l0,0c0,0,0,0,0-0.01l0,0c0,0,0,0,0-0.01c0,0,0,0,0,0c0,0,0,0,0-0.01c0,0,0,0,0,0c0,0,0,0,0-0.01c0,0,0,0,0,0
		c0,0,0,0,0-0.01c0,0,0,0,0,0c0,0,0,0,0-0.01c0,0,0,0,0,0c0,0,0,0,0-0.01l0,0c0,0,0,0,0-0.01l0,0c0.01-0.03,0.02-0.06,0.03-0.09l0,0
		c0,0,0,0,0-0.01l0,0c0,0,0,0,0-0.01c0,0,0,0,0,0c0,0,0,0,0-0.01c0,0,0,0,0,0c0,0,0,0,0-0.01c0,0,0,0,0,0c0,0,0,0,0-0.01
		c0,0,0,0,0,0c0,0,0,0,0-0.01c0,0,0,0,0,0c0,0,0,0,0-0.01c0,0,0,0,0,0c0,0,0,0,0-0.01c0,0,0,0,0,0c0,0,0,0,0-0.01c0,0,0,0,0,0
		c0,0,0,0,0-0.01c0,0,0,0,0,0c0,0,0,0,0-0.01c0,0,0,0,0,0c0,0,0,0,0-0.01c0,0,0,0,0,0c0,0,0,0,0-0.01c0,0,0,0,0,0c0,0,0,0,0-0.01
		c0,0,0,0,0,0c0,0,0,0,0-0.01c0,0,0,0,0,0c0,0,0,0,0-0.01l0,0c0,0,0,0,0-0.01l0,0c0,0,0,0,0-0.01l0,0c0,0,0,0,0-0.01l0,0
		c0.01-0.03,0.02-0.06,0.03-0.09l0,0c0,0,0,0,0-0.01c0,0,0,0,0,0c0,0,0,0,0-0.01c0,0,0,0,0,0c0,0,0,0,0-0.01c0,0,0,0,0,0
		c0,0,0,0,0-0.01c0,0,0,0,0,0c0,0,0,0,0-0.01c0,0,0,0,0,0c0,0,0,0,0-0.01l0,0c0,0,0,0,0-0.01l0,0c0,0,0,0,0-0.01l0,0c0,0,0,0,0-0.01
		l0,0c0-0.01,0.01-0.02,0.01-0.03l0,0c0.01-0.05,0.03-0.09,0.04-0.14l0,0c0,0,0-0.01,0-0.01l0,0c0-0.01,0-0.01,0.01-0.02l0,0
		c0,0,0,0,0-0.01l0,0c0.14-0.52,0.27-1.05,0.37-1.59L44.65,28.76L44.65,28.76z M45.78,21.98l-0.99,0.14C44.93,23.07,45,24.04,45,25
		c0,0.31-0.01,0.62-0.02,0.93l1,0.05c0-0.08,0.01-0.17,0.01-0.25c0,0,0,0,0,0c0,0,0,0,0-0.01l0,0c0,0,0,0,0-0.01l0,0c0,0,0,0,0-0.01
		c0,0,0,0,0,0c0,0,0,0,0-0.01l0,0c0,0,0,0,0-0.01l0,0c0-0.01,0-0.01,0-0.02c0,0,0,0,0,0c0,0,0,0,0,0c0,0,0,0,0,0c0,0,0,0,0,0
		c0,0,0,0,0,0c0,0,0,0,0,0c0,0,0,0,0-0.01c0,0,0,0,0,0c0,0,0,0,0-0.01c0,0,0,0,0,0c0,0,0,0,0-0.01c0,0,0,0,0,0c0,0,0,0,0-0.01
		c0,0,0,0,0,0c0-0.01,0-0.02,0-0.03c0,0,0,0,0,0c0,0,0,0,0-0.01c0,0,0,0,0,0c0,0,0,0,0-0.01c0,0,0,0,0,0c0,0,0,0,0-0.01c0,0,0,0,0,0
		c0,0,0,0,0-0.01c0,0,0,0,0,0c0,0,0-0.01,0-0.01c0,0,0,0,0,0c0-0.07,0-0.14,0-0.2c0,0,0,0,0,0c0-0.02,0-0.04,0-0.06c0,0,0,0,0,0
		c0,0,0,0,0-0.01c0,0,0,0,0,0c0,0,0,0,0-0.01c0,0,0,0,0,0c0,0,0-0.01,0-0.01c0,0,0,0,0,0c0-0.02,0-0.03,0-0.05c0,0,0,0,0,0
		c0,0,0,0,0-0.01c0,0,0,0,0,0c0,0,0,0,0-0.01c0,0,0,0,0,0c0,0,0,0,0-0.01c0,0,0,0,0,0c0,0,0,0,0-0.01c0,0,0,0,0,0c0,0,0-0.01,0-0.01
		c0,0,0,0,0,0c0-0.01,0-0.02,0-0.02c0,0,0,0,0,0c0,0,0,0,0-0.01c0,0,0,0,0,0c0,0,0,0,0-0.01c0,0,0,0,0,0c0,0,0,0,0-0.01c0,0,0,0,0,0
		c0,0,0,0,0-0.01c0,0,0,0,0,0c0,0,0,0,0-0.01c0,0,0,0,0,0c0,0,0,0,0-0.01c0,0,0,0,0,0c0-0.01,0-0.01,0-0.02c0,0,0,0,0,0
		c0,0,0,0,0-0.01c0,0,0,0,0,0c0,0,0,0,0-0.01c0,0,0,0,0,0c0,0,0,0,0-0.01c0,0,0,0,0,0c0,0,0,0,0-0.01c0,0,0,0,0,0c0,0,0,0,0,0
		c0,0,0,0,0,0c0,0,0,0,0,0c0,0,0,0,0,0c0,0,0,0,0-0.01c0,0,0,0,0,0c0,0,0-0.01,0-0.01l0,0l0,0c0,0,0-0.01,0-0.01c0,0,0,0,0,0
		c0,0,0-0.01,0-0.01c0,0,0,0,0,0c0,0,0-0.01,0-0.01c0,0,0,0,0,0c0,0,0-0.01,0-0.01c0,0,0,0,0,0c0,0,0-0.01,0-0.01c0,0,0,0,0,0
		c0,0,0-0.01,0-0.01c0,0,0,0,0,0c0,0,0-0.01,0-0.01c0,0,0,0,0,0c0,0,0-0.01,0-0.01c0,0,0,0,0,0c0,0,0-0.01,0-0.01c0,0,0,0,0,0
		c0,0,0-0.01,0-0.01c0,0,0,0,0,0c0,0,0-0.01,0-0.01c0,0,0,0,0,0c0,0,0-0.01,0-0.01c0,0,0,0,0,0c0,0,0-0.01,0-0.01c0,0,0,0,0,0
		c0,0,0-0.01,0-0.01c0,0,0,0,0,0c0,0,0-0.01,0-0.01c0,0,0,0,0,0c0,0,0-0.01,0-0.01c0,0,0,0,0,0c0,0,0-0.01,0-0.01c0,0,0,0,0,0
		c0,0,0-0.01,0-0.01c0,0,0,0,0,0c0,0,0-0.01,0-0.01c0,0,0,0,0,0c0,0,0-0.01,0-0.01c0,0,0,0,0,0c0,0,0-0.01,0-0.01c0,0,0,0,0,0
		c0,0,0-0.01,0-0.01c0,0,0,0,0,0c0,0,0-0.01,0-0.01c0,0,0,0,0,0c0,0,0-0.01,0-0.01c0,0,0,0,0,0c0,0,0-0.01,0-0.01c0,0,0,0,0,0
		c0,0,0-0.01,0-0.01c0,0,0,0,0,0c0,0,0-0.01,0-0.01c0,0,0,0,0,0c0,0,0-0.01,0-0.01c0,0,0,0,0,0c0,0,0-0.01,0-0.01l0,0
		c0,0,0-0.01,0-0.01c0,0,0,0,0,0c0,0,0-0.01,0-0.01c0,0,0,0,0,0c0,0,0-0.01,0-0.01c0,0,0,0,0,0c0,0,0-0.01,0-0.01c0,0,0,0,0,0
		c0,0,0-0.01,0-0.01c0,0,0,0,0,0c0,0,0-0.01,0-0.01c0,0,0,0,0,0c0,0,0-0.01,0-0.01c0,0,0,0,0,0c0,0,0-0.01,0-0.01c0,0,0,0,0,0
		c0,0,0-0.01,0-0.01c0,0,0,0,0,0c0,0,0-0.01,0-0.01c0,0,0,0,0,0c0,0,0-0.01,0-0.01c0,0,0,0,0,0c0,0,0-0.01,0-0.01l0,0
		c0,0,0-0.01,0-0.01c0,0,0,0,0,0c0,0,0-0.01,0-0.01l0,0c0,0,0-0.01,0-0.01c0,0,0,0,0,0c0,0,0-0.01,0-0.01c0,0,0,0,0,0
		c0,0,0-0.01,0-0.01l0,0c0,0,0-0.01,0-0.01c0,0,0,0,0,0c0,0,0-0.01,0-0.01c0,0,0,0,0,0c0,0,0-0.01,0-0.01c0,0,0,0,0,0
		c0,0,0-0.01,0-0.01c0,0,0,0,0,0c0,0,0-0.01,0-0.01c0,0,0,0,0,0c0,0,0-0.01,0-0.01c0,0,0,0,0,0c0,0,0-0.01,0-0.01c0,0,0,0,0,0
		c0,0,0-0.01,0-0.01c0,0,0,0,0,0c0,0,0-0.01,0-0.01c0,0,0,0,0,0c0,0,0-0.01,0-0.01c0,0,0,0,0,0c0,0,0-0.01,0-0.01c0,0,0,0,0,0
		c0-0.01,0-0.01,0-0.02c0,0,0,0,0,0c0,0,0-0.01,0-0.01c0,0,0,0,0,0c0,0,0-0.01,0-0.01c0,0,0,0,0,0c0,0,0-0.01,0-0.01c0,0,0,0,0,0
		c0,0,0-0.01,0-0.01c0,0,0,0,0,0c0,0,0-0.01,0-0.01c0,0,0,0,0,0c0,0,0-0.01,0-0.01c0,0,0,0,0,0c0,0,0-0.01,0-0.01c0,0,0,0,0,0
		c0,0,0-0.01,0-0.01c0,0,0,0,0,0c0,0,0-0.01,0-0.01c0,0,0,0,0,0c0,0,0-0.01,0-0.01c0,0,0,0,0,0c0-0.01,0-0.01,0-0.02c0,0,0,0,0,0
		c0,0,0-0.01,0-0.01c0,0,0,0,0,0c0,0,0-0.01,0-0.01l0,0c0,0,0-0.01,0-0.01c0,0,0,0,0,0c0-0.01,0-0.01,0-0.02c0,0,0,0,0,0
		c0,0,0-0.01,0-0.01c0,0,0,0,0,0c0,0,0-0.01,0-0.01c0,0,0,0,0,0c0,0,0-0.01,0-0.01c0,0,0,0,0,0c0,0,0-0.01,0-0.01c0,0,0,0,0,0
		c0,0,0-0.01,0-0.01c0,0,0,0,0,0c0-0.01,0-0.01,0-0.02c0,0,0,0,0,0c0,0,0-0.01,0-0.01l0,0c0,0,0-0.01,0-0.01l0,0c0,0,0-0.01,0-0.01
		c0,0,0,0,0,0c0-0.01,0-0.01,0-0.02c0,0,0,0,0,0c0,0,0-0.01,0-0.01l0,0c0,0,0-0.01,0-0.01l0,0c0,0,0-0.01,0-0.01c0,0,0,0,0,0
		c0-0.01,0-0.01,0-0.02l0,0c0-0.01,0-0.01,0-0.02c0,0,0,0,0,0c0,0,0-0.01,0-0.01c0,0,0,0,0,0c0,0,0-0.01,0-0.01l0,0
		c0,0,0-0.01,0-0.01c0,0,0,0,0,0c0-0.01,0-0.01,0-0.02c0,0,0,0,0,0c0,0,0-0.01,0-0.01l0,0c0,0,0-0.01,0-0.01l0,0c0,0,0-0.01,0-0.01
		c0,0,0,0,0,0c0-0.01,0-0.01,0-0.02c0,0,0,0,0,0c0-0.01,0-0.02,0-0.02l0,0c0,0,0-0.01,0-0.01l0,0c0-0.01,0-0.02,0-0.02l0,0
		c0-0.01,0-0.02,0-0.02c0,0,0,0,0,0c0,0,0-0.01,0-0.01l0,0c0,0,0-0.01,0-0.01v0c0,0,0-0.01,0-0.01c0,0,0,0,0,0c0-0.01,0-0.02,0-0.02
		c0,0,0,0,0,0c0-0.01,0-0.02,0-0.02l0,0c0,0,0-0.01,0-0.01c0,0,0,0,0,0c0-0.01,0-0.02,0-0.02l0,0c0-0.01,0-0.02,0-0.02l0,0
		c0-0.01,0-0.02,0-0.03l0,0c0-0.01,0-0.02,0-0.02c0,0,0,0,0,0c0-0.01,0-0.02,0-0.03c0,0,0,0,0,0c0-0.01,0-0.02,0-0.02l0,0
		C45.9,22.93,45.85,22.45,45.78,21.98L45.78,21.98z M43.66,15.35l-0.89,0.46c0.58,1.13,1.06,2.31,1.42,3.53l0.96-0.28
		C44.77,17.76,44.26,16.52,43.66,15.35L43.66,15.35z M39.47,9.78l-0.69,0.72c0.92,0.87,1.76,1.84,2.5,2.87l0.81-0.58
		c-0.19-0.26-0.38-0.52-0.58-0.78l0,0c0,0-0.01-0.01-0.01-0.01l0,0c0,0-0.01-0.01-0.01-0.01c0,0,0,0,0,0c0,0-0.01-0.01-0.01-0.01
		c0,0,0,0,0,0c0,0-0.01-0.01-0.01-0.01c0,0,0,0,0,0c0,0-0.01-0.01-0.01-0.01c0,0,0,0,0,0c0,0-0.01-0.01-0.01-0.01c0,0,0,0,0,0
		c0,0-0.01-0.01-0.01-0.01c0,0,0,0,0,0c0,0-0.01-0.01-0.01-0.01c0,0,0,0,0,0c0,0-0.01-0.01-0.01-0.01c0,0,0,0,0,0
		c0,0-0.01-0.01-0.01-0.01c0,0,0,0,0,0c0,0,0-0.01-0.01-0.01c0,0,0,0,0,0c0,0,0-0.01-0.01-0.01c0,0,0,0,0,0c0,0,0-0.01-0.01-0.01
		c0,0,0,0,0,0c0,0,0-0.01-0.01-0.01c0,0,0,0,0,0c0,0,0-0.01-0.01-0.01c0,0,0,0,0,0c0,0,0-0.01-0.01-0.01c0,0,0,0,0,0
		c0,0,0-0.01-0.01-0.01c0,0,0,0,0,0c0,0,0-0.01-0.01-0.01c0,0,0,0,0,0c0,0,0-0.01-0.01-0.01c0,0,0,0,0,0c0,0,0-0.01-0.01-0.01
		c0,0,0,0,0,0c0,0,0,0-0.01-0.01c0,0,0,0,0,0c0,0,0,0-0.01-0.01c0,0,0,0,0,0c0,0,0,0-0.01-0.01c0,0,0,0,0,0c0,0,0,0-0.01-0.01
		c0,0,0,0,0-0.01c0,0,0,0-0.01-0.01c0,0,0,0,0-0.01c0,0,0,0-0.01-0.01c0,0,0,0,0-0.01c0,0,0,0-0.01-0.01c0,0,0,0,0-0.01
		c0,0,0,0-0.01-0.01c0,0,0,0,0-0.01c0,0,0,0-0.01-0.01c0,0,0,0,0-0.01c0,0,0,0-0.01-0.01c0,0,0,0,0-0.01c0,0,0,0-0.01-0.01
		c0,0,0,0,0-0.01c0,0,0,0,0-0.01c0,0,0,0-0.01-0.01c0,0,0,0,0,0c0,0,0-0.01-0.01-0.01c0,0,0,0,0,0c0,0-0.01-0.01-0.01-0.01
		c0,0,0,0,0,0c0,0-0.01-0.01-0.01-0.01c0,0,0,0,0,0c0,0-0.01-0.01-0.01-0.01c0,0,0,0,0,0c0,0-0.01-0.01-0.01-0.01c0,0,0,0,0,0
		c0,0-0.01-0.01-0.01-0.01c0,0,0,0,0,0c0,0-0.01-0.01-0.01-0.01c0,0,0,0,0,0c0,0-0.01-0.01-0.01-0.01c0,0,0,0,0,0
		c0,0-0.01-0.01-0.01-0.01c0,0,0,0,0,0c0,0-0.01-0.01-0.01-0.01c0,0,0,0,0,0c0,0-0.01-0.01-0.01-0.01c0,0,0,0,0,0
		c0,0-0.01-0.01-0.01-0.01c0,0,0,0,0,0c0,0-0.01-0.01-0.01-0.01c0,0,0,0,0,0c0,0-0.01-0.01-0.01-0.01c0,0,0,0,0,0
		c0,0-0.01-0.01-0.01-0.01c0,0,0,0,0,0c0,0-0.01-0.01-0.01-0.01c0,0,0,0,0,0c0,0-0.01-0.01-0.01-0.01c0,0,0,0,0,0
		c0,0-0.01-0.01-0.01-0.01l0,0c0,0-0.01-0.01-0.01-0.01c0,0,0,0,0,0c0,0-0.01-0.01-0.01-0.01l0,0c-0.01-0.01-0.01-0.02-0.02-0.02
		c0,0,0,0,0,0c0,0-0.01-0.01-0.01-0.01c0,0,0,0,0,0c-0.03-0.03-0.05-0.06-0.08-0.1l0,0c-0.08-0.09-0.16-0.19-0.24-0.28c0,0,0,0,0,0
		c0,0-0.01-0.01-0.01-0.01c0,0,0,0,0,0c0,0,0-0.01-0.01-0.01c0,0,0,0,0,0c0,0-0.01-0.01-0.01-0.01c0,0,0,0,0,0c0,0,0-0.01-0.01-0.01
		c0,0,0,0,0,0c0,0,0,0-0.01-0.01c0,0,0,0-0.01-0.01c0,0,0,0-0.01-0.01c0,0,0,0,0-0.01c0,0,0,0-0.01-0.01c0,0,0,0-0.01-0.01
		c0,0,0,0,0,0c0,0,0,0-0.01-0.01c0,0,0,0,0-0.01c0,0,0,0-0.01-0.01c0,0,0,0,0-0.01c0,0,0,0-0.01-0.01c0,0,0,0-0.01-0.01
		c0,0,0,0,0-0.01c0,0,0,0-0.01-0.01c0,0,0,0-0.01-0.01c0,0,0,0,0,0c0,0,0,0-0.01-0.01c0,0,0,0,0,0c0,0,0,0-0.01-0.01c0,0,0,0,0,0
		c0,0,0,0-0.01-0.01c0,0,0,0,0,0c0,0,0,0-0.01-0.01c0,0,0,0,0,0c0,0,0,0-0.01-0.01c0,0,0,0,0,0c0,0,0,0-0.01-0.01c0,0,0,0,0,0
		c0,0,0,0-0.01-0.01c0,0,0,0,0,0c0,0,0-0.01-0.01-0.01c0,0,0,0,0,0c0,0-0.01-0.01-0.01-0.01c0,0,0,0,0,0c0,0-0.01-0.01-0.01-0.01
		c0,0,0,0,0,0c0,0-0.01-0.01-0.01-0.01c0,0,0,0,0,0c0,0-0.01-0.01-0.01-0.01c0,0,0,0,0,0c0,0-0.01-0.01-0.01-0.01c0,0,0,0,0,0
		c0,0-0.01-0.01-0.01-0.01c0,0,0,0,0,0c0,0-0.01-0.01-0.01-0.01c0,0,0,0,0,0c0,0-0.01-0.01-0.01-0.01l0,0c0,0-0.01-0.01-0.01-0.01
		l0,0c0,0-0.01-0.01-0.01-0.01l0,0c0,0-0.01-0.01-0.01-0.01l0,0c0,0-0.01-0.01-0.01-0.01l0,0c0,0-0.01-0.01-0.01-0.01l0,0
		c0,0-0.01-0.01-0.01-0.01c0,0,0,0,0,0C40,10.3,39.74,10.04,39.47,9.78L39.47,9.78z M33.69,5.88l-0.41,0.91
		c1.15,0.52,2.26,1.16,3.3,1.9l0.58-0.82C36.07,7.1,34.91,6.43,33.69,5.88L33.69,5.88z M26.96,4.09l-0.09,1
		c1.26,0.12,2.52,0.36,3.74,0.71l0.28-0.96c-0.26-0.08-0.53-0.15-0.8-0.22l0,0c0,0,0,0-0.01,0c0,0,0,0,0,0c0,0,0,0-0.01,0l0,0
		c0,0,0,0-0.01,0l0,0c0,0,0,0-0.01,0l0,0c0,0,0,0-0.01,0c0,0,0,0,0,0c0,0,0,0-0.01,0c0,0,0,0,0,0c0,0,0,0-0.01,0c0,0,0,0,0,0
		c0,0,0,0-0.01,0c0,0,0,0,0,0c0,0,0,0-0.01,0c0,0,0,0,0,0c0,0,0,0-0.01,0l0,0c-0.02,0-0.03-0.01-0.05-0.01c0,0,0,0,0,0c0,0,0,0,0,0
		c0,0,0,0,0,0c0,0,0,0,0,0c0,0,0,0,0,0c0,0,0,0,0,0c0,0,0,0,0,0c0,0,0,0,0,0c0,0,0,0,0,0c0,0,0,0,0,0c0,0,0,0,0,0c0,0,0,0,0,0
		c0,0,0,0,0,0c0,0,0,0,0,0c0,0,0,0,0,0c0,0,0,0,0,0c0,0,0,0,0,0c0,0,0,0,0,0c0,0,0,0,0,0c0,0,0,0,0,0c0,0,0,0,0,0c0,0,0,0,0,0
		c0,0,0,0,0,0c0,0,0,0,0,0c0,0,0,0,0,0c0,0,0,0,0,0c0,0,0,0-0.01,0c0,0,0,0,0,0c0,0,0,0-0.01,0c0,0,0,0,0,0
		c-0.02-0.01-0.05-0.01-0.07-0.02c0,0,0,0,0,0c0,0,0,0-0.01,0c0,0,0,0,0,0c0,0,0,0-0.01,0c0,0,0,0,0,0c0,0,0,0-0.01,0c0,0,0,0,0,0
		c0,0,0,0-0.01,0c0,0,0,0,0,0c0,0,0,0-0.01,0c0,0,0,0,0,0c0,0,0,0-0.01,0c0,0,0,0,0,0c0,0,0,0-0.01,0l0,0c0,0-0.01,0-0.01,0
		c0,0,0,0,0,0c-0.75-0.17-1.52-0.3-2.3-0.39c0,0,0,0,0,0c-0.01,0-0.01,0-0.02,0l0,0c-0.02,0-0.04,0-0.07-0.01c0,0,0,0,0,0
		c0,0,0,0-0.01,0c0,0,0,0,0,0c0,0,0,0-0.01,0c0,0,0,0,0,0c0,0,0,0-0.01,0c0,0,0,0,0,0c0,0,0,0,0,0c0,0,0,0,0,0c0,0,0,0,0,0
		c0,0,0,0,0,0c0,0,0,0,0,0c0,0,0,0,0,0c0,0,0,0,0,0c0,0,0,0,0,0c0,0,0,0,0,0c0,0,0,0,0,0c0,0,0,0,0,0c0,0,0,0,0,0c0,0,0,0,0,0
		c0,0,0,0,0,0c0,0,0,0,0,0c0,0,0,0-0.01,0c0,0,0,0,0,0c0,0,0,0-0.01,0c0,0,0,0,0,0c0,0,0,0-0.01,0l0,0
		C27.13,4.11,27.05,4.1,26.96,4.09L26.96,4.09z"/>
</g>
<g>
	<g>
		<g>
			<polygon class="st2" points="17.01,34 19.45,34 19.45,28.67 17.01,31.11 			"/>
		</g>
		<g>
			<path class="st2" d="M20.98,28.84V34h2.44v-3.11c-0.37-0.11-0.7-0.31-0.98-0.59L20.98,28.84z"/>
		</g>
		<g>
			<path class="st2" d="M24.95,30.84V34h2.44v-5.3l-1.6,1.6C25.54,30.54,25.26,30.72,24.95,30.84z"/>
		</g>
		<g>
			<polygon class="st2" points="28.91,34 31.35,34 31.35,24.73 28.91,27.17 			"/>
		</g>
	</g>
	<g>
		<path class="st2" d="M35.23,17.21l-4.53,0.81c-0.3,0.05-0.41,0.42-0.2,0.63l1.13,1.13l-7.52,7.52l-3.32-3.32
			c-0.36-0.36-0.95-0.36-1.32,0l-4.87,4.87c-0.36,0.36-0.36,0.95,0,1.32c0.18,0.18,0.42,0.27,0.66,0.27c0.24,0,0.48-0.09,0.66-0.27
			l4.21-4.21l3.32,3.32c0.36,0.36,0.95,0.36,1.32,0l8.18-8.18l1.27,1.27c0.21,0.21,0.58,0.1,0.63-0.2l0.81-4.53
			C35.71,17.39,35.49,17.16,35.23,17.21z"/>
	</g>
	<g>
		<g>
			<path class="st2" d="M24.13,21.68v1.04h-0.5v-1c-0.68,0-1.23-0.14-1.65-0.41v-0.83c0.18,0.16,0.44,0.3,0.76,0.41
				c0.32,0.11,0.62,0.16,0.9,0.16V18.6c-0.7-0.34-1.15-0.65-1.36-0.93c-0.21-0.29-0.31-0.62-0.31-1.01c0-0.46,0.16-0.86,0.47-1.2
				c0.32-0.34,0.71-0.54,1.2-0.6V14h0.5v0.84c0.62,0.02,1.06,0.11,1.29,0.27v0.81c-0.32-0.25-0.76-0.39-1.29-0.41v2.52
				c0.66,0.32,1.12,0.62,1.36,0.91c0.24,0.29,0.37,0.63,0.37,1.01c0,0.45-0.15,0.83-0.46,1.14C25.09,21.4,24.67,21.6,24.13,21.68z
				 M23.63,17.76v-2.23c-0.27,0.05-0.48,0.17-0.64,0.36c-0.16,0.18-0.23,0.41-0.23,0.67c0,0.27,0.06,0.5,0.19,0.67
				C23.08,17.41,23.3,17.59,23.63,17.76z M24.13,18.85v2.16c0.61-0.13,0.92-0.46,0.92-0.99C25.05,19.58,24.74,19.19,24.13,18.85z"/>
		</g>
	</g>
</g>
</svg>
