<svg id="Capa_1" data-name="Capa 1" xmlns="http://www.w3.org/2000/svg" viewBox="0 0 50 50"><defs><style>.cls-1{fill:#1d1d1b;}</style></defs><title>fruta4_Mesa de trabajo 1</title><path class="cls-1" d="M47.83,18a7.63,7.63,0,0,0-3.93-5.12l0,0h0l-.12.17.09,0a2,2,0,0,0,.66,1.28c3.7,4.58,4,9.89,3.42,15.45-.31,2.75-1.83,4.86-3.43,6.89-1.13,1.43-1.81,3.19-3.51,4.21a41,41,0,0,1-10.54,4.88c-6.27,1.66-12,0-17.83-2-1.57-.54-2.67-1.8-3.86-2.91C6,38.26,4.66,34.94,3.33,31.51A17,17,0,0,1,2,22L4,18a10.34,10.34,0,0,1,5.68-3.63.66.66,0,0,0,.58-.52L9,13.91c.12,0,.29-.26.35-.35a4,4,0,0,0,.3-.49c.16-.27.35-.64.68-.75a.69.69,0,0,1,.47,0,1.49,1.49,0,0,1,.3.18c.1.07.21.23.34.23a1.76,1.76,0,0,0,.23.36,1.33,1.33,0,0,0,.47.17c.27.11.53.48.76.67a6.53,6.53,0,0,0,1,.64c.61.32,1.26.56,1.89.82.37.16.75.33,1.11.53s1,.29,1.11.78h0a.91.91,0,0,1,0,.34l-.07.08a10.21,10.21,0,0,0-3.18,1.63,28.28,28.28,0,0,0,6-.86c2.82-.93,5.57-1.22,8.16.84a9.23,9.23,0,0,0,7.4,1.62l-2-.85a2.31,2.31,0,0,0-.6-.42,1.8,1.8,0,0,0,.19-.21c-1.82-1.07-3-2.87-4.83-4,1.85-2.22,4-3.82,7.11-3.52a18.75,18.75,0,0,0,3.24-.24c1.47.15,2.59,1.15,3.89,1.7l.51,0c-.07-.78-.78-1-1.27-1.34s-1.41-.51-1.85-1.11a.89.89,0,0,0-.3-.28L40,9.87l-1-.53L37.07,8.28c-.09,0-.28-.17-.36-.22l-.34-.2-.78-.47a.76.76,0,0,1-.16-.11s-.09-.11-.14-.15A.7.7,0,0,0,34.88,7a4.58,4.58,0,0,1-.49-.15L33.1,6.39l-.57-.09L31.47,6c-.36-.17-.69,0-1.06,0a7.07,7.07,0,0,1-1.12-.06,8.48,8.48,0,0,0-.87.06,2.08,2.08,0,0,1-.35,0,3.15,3.15,0,0,0-.52-.09c-.19,0-.35.1-.54,0a1.12,1.12,0,0,1-.51-.54c-.23-.46-.36-1.13-.89-1.34-.33-.49-.53-1.11-1.29-1.21-.05.7-.23,1.33.28,1.87a1,1,0,0,1-.58.66,2.49,2.49,0,0,0-.38.25,4,4,0,0,0-.31.41,1.42,1.42,0,0,1-.32.19c-.2.12-.18.42-.23.63a2.63,2.63,0,0,1-.25.6,1.44,1.44,0,0,1-.78.61,5.67,5.67,0,0,1-2.21,0,6.94,6.94,0,0,0-.79,0c-.93-.35-1.55-1.3-2.61-1.41-.52-.61-1-1.25-1.57-1.83-.25-.27-.45-1-1-.54s0,.8.16,1.18c.54.93,1.07,1.86,1.6,2.79a25.67,25.67,0,0,0-2.86,1.47c-.67.46-1,.47-1.33-.28-.13-.31-.27-.76-.78-.68-.59.85.54,2,0,2.42C8.94,12.24,8.15,14,6.47,14.79a6.54,6.54,0,0,0-2.79,2.62,9.28,9.28,0,0,0-1.89,3.66,7.93,7.93,0,0,0-.63,5.09A34.56,34.56,0,0,0,6.12,39a13,13,0,0,0,5.62,4.83c6.2,2.73,12.61,4.49,19.45,2.43,4.51-1.35,8.88-3,12.12-6.62,2-2.19,3.95-4.49,4.81-7.48A25.26,25.26,0,0,0,47.83,18ZM32.88,19.15c-.88.21-1.14-.41-1.39-1A2,2,0,0,1,32.88,19.15Zm-5-12.54c1.34,0,2.71-.07,4.05.07A5.45,5.45,0,0,1,33.18,7a4,4,0,0,1,1.1.48.88.88,0,0,0,.41.17l.29.05.23.11,1.51.81,2.05,1.69c-3.1.4-6.05-.5-8.91.32a3.84,3.84,0,0,0-1.67.93c-.82-1.42-.6-3.06-1-4.58C27.18,6.71,27.64,6.69,27.88,6.61ZM25.56,5.38,26,6.68,25.28,6a1.5,1.5,0,0,0,0-.29ZM22.21,9c.72.5.22,1.49.09,2.37-.74-.55-.71-1.61-1.59-1.88-.39-.14-.86-.14-1-.65A2,2,0,0,1,22.21,9Zm-8,.81c3.43-1.06,3.65-1,5.28,2.4.16.33.39.63.58.95v0h0c0,.29-.1.43-.24.5H19.7c-.19.05-.43,0-.64.06-1.14-.46-2.37-.2-3.53-.45a3.08,3.08,0,0,1-1.75-.7l0,0a1.44,1.44,0,0,1-.25-.4c-.68-.75-1-1.17-1-1.47S13,10.18,14.17,9.81ZM11.42,11l1.74,1.54.69.64h0c.16.16.41.26.58.41a1.63,1.63,0,0,0,.19.09l1,.18h.05a2.83,2.83,0,0,0,.78.14l.82.15a3,3,0,0,0,.73.05,3.13,3.13,0,0,1,.81,0,2.74,2.74,0,0,0,.69.1,3.38,3.38,0,0,1,.54-.09,1.67,1.67,0,0,1,.49.12.6.6,0,0,0,.75-.32c.29-.53-.24-1-.61-1.39a18.81,18.81,0,0,1-2-3.34c-.39-.27-.88-.44-.92-1,.36.12.77.19,1,.6l.66.33v0s.25.1.28.11l.29.1a.85.85,0,0,1,.25.17.57.57,0,0,1,.08.13c0,.05,0,.11.07.16l.05.06c.61.51.65,1.36,1,2a2.11,2.11,0,0,0,.21.31c.59.73,1,.86,1.42-.2a13,13,0,0,0,.2-3A2.37,2.37,0,0,1,23.32,7l.31-.76c.8.69.21,1.41,0,2.12-.15,1.12.58,2,.7,3.1.22,1.95-.25,2.46-2.15,2.33a1.91,1.91,0,0,0,2.37.68,1.59,1.59,0,0,0,1.06-2,3.75,3.75,0,0,1,0-2.2c0-.07,0-.21,0-.28s0-.21,0-.32-.05-.38-.08-.57a1.76,1.76,0,0,0-.14.71v.08a1.17,1.17,0,0,1-.13.28.45.45,0,0,1-.12.16c-.15.11-.26-.14-.3-.25a1.91,1.91,0,0,1,.11-2.26,1.14,1.14,0,0,1,.48.27,2.22,2.22,0,0,1,.5-1.47,9.14,9.14,0,0,1,1,4.85c0,.4-.41.91.06,1.21s.78-.4,1.2-.57a1.74,1.74,0,0,0,.38-.29c.68-.19,1.23-.72,2-.72.6,1.24-.59,1.34-1.18,1.72s-1.06.25-1.45.67-.79.83-.21,1.22c1.11.76,1.47,2.14,2.57,2.88a2.27,2.27,0,0,1,.48.27.19.19,0,0,1,.07.06.45.45,0,0,1,0,.11,1.22,1.22,0,0,0,.33.51.36.36,0,0,1,.07.1c.07.14,0,.29-.11.41a.15.15,0,0,1-.05.06c-.17.12-.8-.3-1-.38-.32-.18-.62-.38-.92-.59-.56-.41-1.09-.86-1.63-1.29a5.4,5.4,0,0,0-6.26-.54l-.55.17-.28,0-1,.56c-.4-.56.06-.57.35-.68l0-.1a5.42,5.42,0,0,0-1.8-.62,5.78,5.78,0,0,1-2.46-.95.36.36,0,0,0-.14-.1.32.32,0,0,0-.14,0,1.76,1.76,0,0,1-1.13-.5c-.2-.21-.47-.33-.67-.54l-1.63-1.32-.58-1.07Z"/></svg>