<svg id="Capa_1" data-name="Capa 1" xmlns="http://www.w3.org/2000/svg" viewBox="0 0 50 50"><defs><style>.cls-1{fill:#1d1d1b;}</style></defs><title>fruta3</title><path class="cls-1" d="M29.05,37.19l-6.52-.4,5.42,0C28.37,36.74,28.82,36.71,29.05,37.19Z"/><path class="cls-1" d="M20.88,25.53h2A2.87,2.87,0,0,1,20.88,25.53Z"/><path class="cls-1" d="M43.22,12.67a28.55,28.55,0,0,0-5.54-2.05c-.88-.21-1.15-.53-1-1.53A8.57,8.57,0,0,0,36.74,5c-1.43-2.2-3.7-2.45-6-2.6-.76-.49-1.45-.6-2,.33a13,13,0,0,0-2.52,4.51c-.24.41-.69.73-.62,1.29-.35.68-.94.69-1.61.67a22.44,22.44,0,0,0-5.49.33c-.81.5-1.75,0-2.58.32a3.68,3.68,0,0,0-1.68.21l0,0a17.2,17.2,0,0,0-7.59,2.63,2.3,2.3,0,0,0-1.32.92h0c-1.09.91-2.64,1.4-2.9,3.1-1,4.57.45,8.58,2.75,12.44,1.08,1.81,3.2,2.83,3.74,5,1.09,3.52,1.5,4,3.93,3.39a1.78,1.78,0,0,0,.58-.15c.88.07,1.56-1.26,2.56-.35h0l1.21,2h0l3,6.89A3.29,3.29,0,0,0,25.53,47h0c2-2.77,2.76-6.09,4.28-9.08.2-.4.14-1,.77-1.1,1.3-.16,2.61-1,3.91.15a9.31,9.31,0,0,0,1.8,1,2.85,2.85,0,0,0,4.38-1.55,31.42,31.42,0,0,1,3.23-6.39,21.09,21.09,0,0,0,3.65-8.63C48.29,16.71,48.47,15.11,43.22,12.67ZM25.91,8.88a2.49,2.49,0,0,0,.66-1.25h0l0,0h.06q1.28-2.45,2.56-4.87l1.22-.08a10.77,10.77,0,0,1,6.07,2.68c-.17,4.33-1.37,8.5-2,12.76-.16,1.11-.41,2.2-.66,3.5C31.23,20.08,29,18,25.88,18.07a1.79,1.79,0,0,1-1.25.05c-.9-.46-2.12.32-2.88-.73C23.15,14.56,24.12,11.52,25.91,8.88Zm9,11c-.22-1.86.95-3.83,1-6,0-.56.35-.52.78-.4a15.25,15.25,0,0,1,3.27,1.26c1.89,1,2.25,2.67.83,4.32s-3.45,2-5.24,3c-.49.25-.65-.1-.63-.56S34.88,20.62,34.88,19.86ZM33.2,22.58c-.1.49-.68.48-1.06.55a27.07,27.07,0,0,1-7.62.31c-1.3-.12-1.85-1.65-2.85-2.42-.26-1-2-1.77-.29-2.92l.65,0H24l1.92.33c2.18,1.1,4.36,2.18,6.52,3.31C32.73,21.89,33.29,22.08,33.2,22.58ZM4.44,15.2c.41-.41.8-.85,1.2-1.27L7,13c2.46-.65,4.65-2.19,7.29-2.3a3.75,3.75,0,0,1,1.93-.28l0-.09c.51-.29,1.13.08,1.63-.27l.95-.06a.79.79,0,0,0,.3.05c1.71-.53,3.46-.13,5.19-.17,0,0,.14.15.13.23s-.12.13-.18.2l-.4.38a3,3,0,0,1-2.1.13c-.17,0-.35,0-.52-.09h0a8.61,8.61,0,0,1-2.72.24l-1.59.41a1.79,1.79,0,0,1-.64.44h.1A3.4,3.4,0,0,0,17,12l.31-.2.86,0c1.46-.52,3-.24,4.45-.26,1,0,.9.43.62,1.11A20.42,20.42,0,0,1,21,16.48c-1.54,2.16-1.45,2.85.33,4.88.33.82,1.19,1.2,1.72,2a10.11,10.11,0,0,1-4.39-.19c-2.82-.53-5.69-.81-8.36-2-3.09-1.39-3.73-4.09-1.5-6.68A1.58,1.58,0,0,1,9.15,14l-.66.22a3.8,3.8,0,0,0-1.6,4.33A3.93,3.93,0,0,0,10,22c2.11.5,4.16,1.25,6.23,1.89a3.12,3.12,0,0,1,1.75.32l.48.06a7.43,7.43,0,0,1,2.74.27,6.4,6.4,0,0,1,2.39.08,12.55,12.55,0,0,1,3.72.25H28a4,4,0,0,1,2.09-.32c2.73-.31,5.22-1.48,7.87-2.09a6.77,6.77,0,0,0,4.49-3.6,3.39,3.39,0,0,0-1.29-4.33,12.75,12.75,0,0,0-4-1.5c-.77-.18-1.11-.52-.93-1.33s.85-.46,1.24-.32c2.91,1.08,6.13,1.52,8.16,4.33A2.58,2.58,0,0,1,46,18.5c-.77,1.5-1.6,3.05-3.36,3.7-4.62,1.71-9.29,3.21-14.31,3h0a12.06,12.06,0,0,1-3.69.3,3.58,3.58,0,0,1-1.75,0,3.28,3.28,0,0,1-2,0c-1,.62-2-.07-3,0a3,3,0,0,1-1.48-.17.78.78,0,0,1-.2-.11l-.13,0-.12-.06A38.5,38.5,0,0,1,5.57,22.09C3.15,21.09,2.62,17,4.44,15.2Zm7.63,21.92a1.5,1.5,0,0,1-1.88-1.18,14.5,14.5,0,0,0-1-2.11c-.08-.74.2-.63.69-.34,1.43.85,2.9,1.65,4.37,2.49C13.75,36.82,12.78,36.73,12.07,37.12Zm13.15,9.56c-2.14,1.24-3.7.69-4.51-1.61a33.2,33.2,0,0,0-3.18-6.4c-.18-.32-.36-.63-.53-1s-.64-.75-.37-1.13.79,0,1.19-.09a5.87,5.87,0,0,1,1.31.21l3.4.08c1.68.26,3.38,0,5.06.13.49,0,1.06-.28,1.46.27A101.14,101.14,0,0,1,25.22,46.68Zm13.33-8.86c-1.76.54-2.8-.89-4.34-1.82l6.63-2.26C40.1,35.4,40.39,37.24,38.55,37.82Zm7.84-15.94a33,33,0,0,1-4.15,9.48c-1.06,1.55-2.83,2.2-4.57,2.78a39,39,0,0,1-7,1.67.85.85,0,0,1-.79,0l-.36,0a40.23,40.23,0,0,1-4.66.1,14.12,14.12,0,0,0-2.68.12h-.69a.59.59,0,0,1-.4-.17l-.16,0-.42-.07a4.36,4.36,0,0,1-1.3,0,2.83,2.83,0,0,0-.4.08.87.87,0,0,1-.67-.07,18.37,18.37,0,0,1-10-4.49C5.07,28.58,3.59,25,2.75,21.09A.48.48,0,0,1,3,20.45c.57,2,2.38,2.59,4,3.23,2.31.91,4.69,1.62,7,2.42a35.41,35.41,0,0,0,6.08.53c2.33.14,4.66-.18,7,.17,3.81-.72,7.73-.87,11.48-2,2.52-.74,5-1.51,6.94-3.43.21-.21.46-.56.78-.26C46.49,21.26,46.46,21.64,46.39,21.88Z"/></svg>