<svg id="Capa_1" data-name="Capa 1" xmlns="http://www.w3.org/2000/svg" viewBox="0 0 50 50"><defs><style>.cls-1{fill:#1d1d1b;}</style></defs><title>fruta1</title><path class="cls-1" d="M43.06,17.8c.72.39,1.08.69,1.24,1.2A1.73,1.73,0,0,1,43.06,17.8Z"/><path class="cls-1" d="M40.43,15.88v0h0a0,0,0,0,0,0,0Z"/><path class="cls-1" d="M39.69,15c-.06,0-.23.19-.21.26a.82.82,0,0,0,1,.66C40.36,15.43,40.19,15.05,39.69,15Z"/><path class="cls-1" d="M41.83,16.76a2.51,2.51,0,0,0-1.37-.85A1.89,1.89,0,0,0,41.54,17a2,2,0,0,0,1.21.72C42.63,17.13,42.18,17,41.83,16.76Z"/><path class="cls-1" d="M38.89,14.57a4.11,4.11,0,0,0-1.77-1.42c-.33-.3-.67-.55-1.12-.28l.82.56A6.22,6.22,0,0,0,38.89,14.57Z"/><path class="cls-1" d="M34.65,12.06v0h0v0Z"/><path class="cls-1" d="M36,12.86h0a0,0,0,0,1,0,0Z"/><path class="cls-1" d="M36,12.85c-.06-.86-.6-1-1.3-.79A2.52,2.52,0,0,0,36,12.85Z"/><path class="cls-1" d="M36,12.87h0l0,0Z"/><path class="cls-1" d="M47.4,20A29.9,29.9,0,0,0,44,14.81L41,11.21a4.71,4.71,0,0,0-1.64-1.68h0L38.57,9l-1.11-.88A16.14,16.14,0,0,0,26.07,5.43a1.36,1.36,0,0,0-1.38.62c-.44-.12-.76.14-1.09.37.47.41.8.21,1.06-.26h0a12,12,0,0,1,3.05-.26A16.82,16.82,0,0,1,37,8.48l1.2.76.8.58h0l1.66,1.7c.66,1.5,2,2.42,3,3.62a22.68,22.68,0,0,0,3.4,5.19c0,.79.47,1.56.1,2.54a2,2,0,0,0-1.55-1.08,45.08,45.08,0,0,1-7.17-2.23c-1.28-.59-2.59-1.11-3.89-1.66-1-.59-2.1-1.12-3.16-1.65-3.6-1.81-7.12-3.68-9.28-7.3.31-.39.78-.14,1.14-.3a16.73,16.73,0,0,1,6,1.38c1.72.74,3.5,1.34,5.26,2a.79.79,0,0,0-.46-.59c-3.23-1.44-6.4-3.07-10-3.34a3,3,0,0,0-1.42-.24c.21-.43.78-.59.84-1.12-.58.07-.95.52-1.4.83-2.45.83-2.86-1-3.39-2.82-.67.68-1.86.8-1.44,1.94s.5,2.47.88,3.8a13.94,13.94,0,0,0-4.91.45C8.22,12,5.65,15.7,3.81,20.08a28.7,28.7,0,0,0-1.54,5.44,12.05,12.05,0,0,0,.82,7.55,8.17,8.17,0,0,0,1,2.3l.39.75a2.71,2.71,0,0,0,.73,1.46C10,43.64,16.17,46.17,23.83,45a11.57,11.57,0,0,0,8.61-3.82h0a10,10,0,0,0,2.64-2.78,18.39,18.39,0,0,0-.44-19.65c.56-.14,1,.24,1.41.45,2.86,1.38,5.67,2.93,9,2.89h0c.78.45,1.7.71,2.19,1.58.09.18.25.45.52.28a.56.56,0,0,0,.24-.44C48,22.28,48.19,21.06,47.4,20ZM20.86,9.27c.77.15,1.46.56,1.54,1.34.06.56-.63.22-.78.28-1.23.33-1.13-.45-1.23-1.06C20.32,9.43,20.42,9.18,20.86,9.27Zm-2.29-3a7.15,7.15,0,0,1,.9,4.41A7.28,7.28,0,0,1,18.57,6.27ZM35.5,22.82h0a17.47,17.47,0,0,1,1.13,6.56,14.28,14.28,0,0,1-3,9.87,18.69,18.69,0,0,1-1.48,1.61,16.19,16.19,0,0,1-8.32,3.62,16.41,16.41,0,0,1-6.55-.08A20.05,20.05,0,0,1,4.73,35.82L4.39,35a6.39,6.39,0,0,0-1-2.29c-1.31-4.19-.56-8.18,1-12.2A20.87,20.87,0,0,1,7.68,14.9a11,11,0,0,1,5.62-3.57,9.72,9.72,0,0,1,4.52.14h.27a.38.38,0,0,1-.19,0,4.46,4.46,0,0,1,.55.25H16.74a2.26,2.26,0,0,0,2.17.56c1.21-.29,2.52.22,3.52,0,1.5-.37,1.41.7,1.89,1.26,1.95,2.27,4,4.32,7.25,4.59C33.61,18.31,35.18,20.27,35.5,22.82Z"/><path class="cls-1" d="M26.88,17.86c-.42-.39-.38-.67.2-.83C27.35,17.39,27.52,17.72,26.88,17.86Z"/><path class="cls-1" d="M33.52,32.35c0,.24-.14.39-.34.38s-.16-.16-.13-.29,0-.39.25-.33C33.39,32.13,33.46,32.28,33.52,32.35Z"/></svg>