<svg id="Capa_1" data-name="Capa 1" xmlns="http://www.w3.org/2000/svg" viewBox="0 0 50 50"><defs><style>.cls-1{fill:#1d1d1b;}</style></defs><title>fruta2</title><path class="cls-1" d="M28.67,8.1c-.93.3,0,1.27-.62,1.67C29.21,9.57,28.4,8.64,28.67,8.1Z"/><path class="cls-1" d="M38.23,14.66c-.27.89-.72.62-1.32.07a1.76,1.76,0,0,1,1.35,0Z"/><path class="cls-1" d="M29.46,9.94c-.18.33-.78.33-.73.92a.9.9,0,0,0,1-.59c0-.54.1-1.08.2-2A2.62,2.62,0,0,0,29.46,9.94Z"/><path class="cls-1" d="M25,38.77c-.17.59-.45.95-1,.92-.4,0-.85-.25-.71-.68a1.32,1.32,0,0,1,1.27-.76C24.89,38.24,24.92,38.57,25,38.77Z"/><path class="cls-1" d="M11.59,38.25a.88.88,0,0,1-.86.85.55.55,0,0,1-.68-.55c0-.59.39-.83.9-.87S11.52,37.94,11.59,38.25Z"/><path class="cls-1" d="M9.41,34.53c.47.09.69.33.65.72s-.3.88-.8.87-.39-.48-.41-.8A.67.67,0,0,1,9.41,34.53Z"/><path class="cls-1" d="M25.74,26a.64.64,0,0,1-.54-.73c.05-.53.4-.73.9-.69.32,0,.55.23.44.57S26.28,26,25.74,26Z"/><path class="cls-1" d="M14,41.08c-.08.52-.32.85-.8.91a.56.56,0,0,1-.66-.56c0-.48.35-.62.72-.73S13.86,40.79,14,41.08Z"/><path class="cls-1" d="M13.62,34.1c-.37-.08-.65-.29-.57-.68s.28-.75.76-.73a.54.54,0,0,1,.57.67A.81.81,0,0,1,13.62,34.1Z"/><path class="cls-1" d="M17.4,37.6c.37,0,.68.15.68.55s-.35.63-.77.61a.56.56,0,0,1-.61-.62C16.72,37.72,17,37.62,17.4,37.6Z"/><path class="cls-1" d="M12.72,23.86c0,.45-.23.76-.71.69s-.49-.41-.47-.77.25-.76.72-.7S12.73,23.5,12.72,23.86Z"/><path class="cls-1" d="M8.19,27c.44.1.46.43.39.78s-.16.71-.58.69-.54-.35-.53-.71A.75.75,0,0,1,8.19,27Z"/><path class="cls-1" d="M20.71,23c-.32-.09-.56-.28-.48-.61s.24-.89.78-.9a.49.49,0,0,1,.46.61A.92.92,0,0,1,20.71,23Z"/><path class="cls-1" d="M35.2,34.61c-.12.43-.12.93-.7,1-.37,0-.5-.28-.52-.57,0-.46.14-.86.68-.91C35,34.06,35.14,34.32,35.2,34.61Z"/><path class="cls-1" d="M15.54,36.12a.74.74,0,0,1-.8.66.54.54,0,0,1-.61-.62c0-.4.35-.55.7-.57A.63.63,0,0,1,15.54,36.12Z"/><path class="cls-1" d="M30.71,35.13c0,.41-.24.61-.63.56a.62.62,0,0,1-.57-.68c0-.39.19-.64.58-.64S30.7,34.72,30.71,35.13Z"/><path class="cls-1" d="M37.31,31.52c-.42,0-.53-.23-.55-.54a.71.71,0,0,1,.64-.82.4.4,0,0,1,.5.51C37.84,31,37.73,31.43,37.31,31.52Z"/><path class="cls-1" d="M24,30.42c.43,0,.69.27.73.61s-.28.59-.62.62a.56.56,0,0,1-.67-.56C23.46,30.72,23.77,30.54,24,30.42Z"/><path class="cls-1" d="M7.46,31.58a.66.66,0,0,1,.5.75c0,.32-.17.59-.51.56s-.52-.38-.5-.74A.51.51,0,0,1,7.46,31.58Z"/><path class="cls-1" d="M22.48,37c0,.41-.35.53-.69.56a.53.53,0,0,1-.64-.43.56.56,0,0,1,.58-.66A.68.68,0,0,1,22.48,37Z"/><path class="cls-1" d="M29.46,25.77a.62.62,0,0,1-.7.56c-.35,0-.46-.31-.43-.63s.28-.62.67-.55A.55.55,0,0,1,29.46,25.77Z"/><path class="cls-1" d="M18.44,24.88a.54.54,0,0,1,.5.62.51.51,0,0,1-.57.52.46.46,0,0,1-.47-.58A.59.59,0,0,1,18.44,24.88Z"/><path class="cls-1" d="M16.17,30.89c-.35,0-.55-.2-.49-.55a.65.65,0,0,1,.52-.6c.36-.06.54.15.56.48S16.52,30.81,16.17,30.89Z"/><path class="cls-1" d="M20.51,18.12c-.32-.06-.55-.22-.5-.55a.65.65,0,0,1,.67-.6.4.4,0,0,1,.4.46A.68.68,0,0,1,20.51,18.12Z"/><path class="cls-1" d="M12.68,18.46c0,.32-.09.6-.43.63s-.51-.34-.5-.69.11-.59.48-.56S12.68,18.14,12.68,18.46Z"/><path class="cls-1" d="M6.05,36.28c.39,0,.52.24.54.56s0,.72-.42.79-.51-.21-.53-.53S5.67,36.42,6.05,36.28Z"/><path class="cls-1" d="M33.92,29.25a.61.61,0,0,1-.66.6c-.25,0-.49-.17-.43-.45s.27-.75.75-.7C33.88,28.73,33.9,29,33.92,29.25Z"/><path class="cls-1" d="M36,22.36c-.06.33-.18.65-.59.69a.45.45,0,0,1-.47-.45.57.57,0,0,1,.58-.67C35.76,21.89,35.9,22.08,36,22.36Z"/><path class="cls-1" d="M11.49,29.4c0,.32-.14.6-.49.6s-.45-.31-.45-.62.09-.62.46-.6S11.49,29.06,11.49,29.4Z"/><path class="cls-1" d="M12.32,33.07c-.09.34-.24.64-.63.67a.44.44,0,0,1-.49-.41c0-.42.25-.58.61-.63A.42.42,0,0,1,12.32,33.07Z"/><path class="cls-1" d="M27,18.75a.5.5,0,0,1,.46.6c0,.31-.23.55-.57.5a.46.46,0,0,1-.4-.51A.56.56,0,0,1,27,18.75Z"/><path class="cls-1" d="M15.59,19.69c0,.37-.19.65-.59.65s-.4-.23-.39-.49.13-.67.57-.64A.44.44,0,0,1,15.59,19.69Z"/><path class="cls-1" d="M32.85,19.8c0,.3-.15.58-.5.55a.52.52,0,0,1-.46-.6.46.46,0,0,1,.44-.47C32.68,19.25,32.83,19.46,32.85,19.8Z"/><path class="cls-1" d="M14.46,13.83c.25.07.48.19.46.46a.61.61,0,0,1-.72.52.38.38,0,0,1-.35-.51A.58.58,0,0,1,14.46,13.83Z"/><path class="cls-1" d="M25.21,14c0,.43-.09.67-.41.72s-.52-.15-.54-.48.1-.58.42-.63S25.14,13.87,25.21,14Z"/><path class="cls-1" d="M29,14.44c0,.25-.16.47-.44.41s-.54-.2-.5-.55a.5.5,0,0,1,.48-.44C28.92,13.86,29,14.15,29,14.44Z"/><path class="cls-1" d="M19.66,34.49c-.24,0-.5-.07-.51-.37a.45.45,0,0,1,.52-.5c.3,0,.55.18.51.53S19.89,34.46,19.66,34.49Z"/><path class="cls-1" d="M34.14,16.31a.45.45,0,0,1-.45.45.45.45,0,0,1-.51-.39c0-.34.19-.51.52-.51S34.1,16.05,34.14,16.31Z"/><path class="cls-1" d="M17.73,15.62c.21.09.47.15.47.44a.45.45,0,0,1-.53.5.44.44,0,0,1-.38-.5A.42.42,0,0,1,17.73,15.62Z"/><path class="cls-1" d="M38.65,25.05c.24.09.41.24.34.51a.42.42,0,1,1-.83-.13C38.2,25.15,38.4,25.06,38.65,25.05Z"/><path class="cls-1" d="M34.33,25.57c-.08.24-.21.44-.5.44a.42.42,0,0,1-.47-.43.45.45,0,0,1,.48-.44C34.13,25.12,34.26,25.32,34.33,25.57Z"/><path class="cls-1" d="M36.2,18.9c-.21,0-.39-.09-.39-.31a.45.45,0,0,1,.43-.47c.2,0,.39,0,.39.28A.5.5,0,0,1,36.2,18.9Z"/><path class="cls-1" d="M28.59,17.8a.44.44,0,0,1-.44-.44.39.39,0,0,1,.46-.39.35.35,0,0,1,.36.34A.42.42,0,0,1,28.59,17.8Z"/><path class="cls-1" d="M19.57,12.26a.64.64,0,0,1-.65.43c-.16,0-.4-.06-.36-.32a.62.62,0,0,1,.7-.51C19.47,11.86,19.55,12.06,19.57,12.26Z"/><path class="cls-1" d="M22.29,13.12c0,.21-.14.36-.35.34a.41.41,0,0,1-.37-.49.33.33,0,0,1,.37-.33C22.23,12.65,22.32,12.85,22.29,13.12Z"/><path class="cls-1" d="M38.65,19.86c0,.26-.09.43-.3.46S38,20.2,38,20s.22-.27.37-.34S38.58,19.8,38.65,19.86Z"/><path class="cls-1" d="M26.74,11.08a1.58,1.58,0,0,0-1-1.34l-.87-.55c-.35-.39-.65-.9-1.5-.61a3.42,3.42,0,0,0,1.44.92h0l.67.5Z"/><path class="cls-1" d="M49,27.45c-.58-1.47.19-3.07-.51-4.5h0a5.13,5.13,0,0,0-4-4c-.85-.22-1.1-.59-.63-1.41a21.85,21.85,0,0,0,1.12-2.34c.11-.25.25-.57-.11-.74s-.43.1-.58.29a21.29,21.29,0,0,0-1.56,1.88c-.3.44-.5.31-.77,0h0c-.12-.26-.29-.56-.1-.81.31-.42.74-.75,1-1.18s.27-.83-.07-1.05-.53.24-.71.48a1.71,1.71,0,0,1-1.7.83c-.45-.46-1-.23-1.51-.22l-.55,0c.19-.54.9-.16,1.13-.62,2.8-1.37,2.67-4.19,3.27-6.64a.53.53,0,0,0-.2-.47c-.27-.16-.41.13-.57.29L40.28,8.84c-1.76.88-3.75.88-5.6,1.42a.57.57,0,0,0-.54.3,2.38,2.38,0,0,0-1.16,1c-.24.45-.43.74-1.09.56s-.64-.67-.57-1.18h0c.19-.46.72-1.22.47-1.34-1.13-.5-.2-1.11-.21-1.65l.28-.12h0c.37-.15,1-.2.33-.79h0a2.07,2.07,0,0,0-2.39,0c-.41.21-1,.15-1.16.74a3.18,3.18,0,0,0,1.44-.52c.66-.17,1.44-.57,1.47.66-1.35.43-.79,1.36-.6,2.19a.87.87,0,0,0-.73.43,1.4,1.4,0,0,1-2.08.42H28l.06-.87c-1-1.21-1.86-2.55-3.52-3l-4-1.83c-.36-.31-.48-.88-1.1-1-.13.5-.24,1-.35,1.39a2.54,2.54,0,0,0,.34,2.07c.73,1.07.34,1.89-.88,2.07s-2.58.46-3.87.58c-3.7.36-6,2.42-7.21,5.81C5.86,20.63,4,25,2.59,29.49,1.84,31.89.89,34.34,1,36.94s.85,5.11,3,6.64a12.68,12.68,0,0,0,9.12,2,76.2,76.2,0,0,0,16.2-3.67c2.36-.82,4.88-1.2,7.24-2.06a6.18,6.18,0,0,0,3.71-3.47c.49-1.19.75-2.48,1.13-3.73a23,23,0,0,0,.94-8c.71.17,1,.79,1.66.48l1.21.82c.86.94,2.21,1,3.15,1.84C48.78,28.15,49.11,27.8,49,27.45Zm-5.39-11-.51,1.65C42.75,17.38,42.94,17,43.58,16.46ZM40.91,17a1.29,1.29,0,0,0,.22.93V19a5.48,5.48,0,0,1-2-1.68C39.8,17.1,40.27,16.7,40.91,17ZM40,16.15c-1.14.84-1.51.81-2.15-.22A4.16,4.16,0,0,1,40,16.15Zm-5.57-5.29,1.17-.32c1.6-.3,3.32-.18,4.67-1.34.93-.42,1.27-.3,1.2.88-.1,1.77-1.38,2.62-2.44,3.68-2,1-3.59-.28-5.13-1.15C33.3,12.26,34.12,11.42,34.46,10.86Zm-14.88-4c.24-.46-.38-1.25.56-1.44h0s0,0,0,.06c1,1.43,2.54,1.63,4,2l0,0a0,0,0,0,0,0,0c1,.73,2.3,1.21,2.9,2.47a2.79,2.79,0,0,1,.33,1.81C23.87,11.64,21.47,9.64,19.58,6.83Zm20,28.9a5.9,5.9,0,0,1-4.27,3.64c-5.14,1.14-10,3.24-15.18,4.26a80.58,80.58,0,0,1-9.88,1.45C4.72,45.47.68,39.91,1.85,34.5,3.32,27.68,6.57,21.55,8.78,15a5.36,5.36,0,0,1,4.4-3.57c1.19-.23,2.38-.4,3.57-.64,2.19-.46,4.28-.82,6.4.58,2,1.3,4.37.77,6.59.93a7.69,7.69,0,0,1,5.95,2.83c1.23,1.57,3,2.61,4.5,3.92.28.24.73.43.7.87-.17,2.14,1.5,4,.7,6.15C42.08,29.61,40.74,32.68,39.56,35.73Zm4-11.51c-1-.9-1.78-1.84-1.57-3.28,0-.84-.52-1.73.27-2.48.48.9,1,1.8,1.45,2.7A3.58,3.58,0,0,1,43.57,24.22Zm4.11.6c-.49,0-.19.42-.1.64.16.39.58.66.53,1.33-.77-.73-1.77-.65-2.58-1.09l-1.18-.87c-.34-1,.43-1.94,0-2.9l-.87-2.7c2.64.51,3.9,2.24,4.74,4.44C48,24.05,48.67,24.75,47.68,24.82Z"/></svg>