<svg id="Capa_1" data-name="Capa 1" xmlns="http://www.w3.org/2000/svg" viewBox="0 0 50 50"><defs><style>.cls-1{fill:#1d1d1b;}</style></defs><title>fruta5</title><path class="cls-1" d="M38.83,65a7.63,7.63,0,0,0-3.93-5.12l0,0h0l-.12.17.09,0a2,2,0,0,0,.66,1.28c3.7,4.58,4,9.89,3.42,15.45-.31,2.75-1.83,4.86-3.43,6.89-1.13,1.43-1.81,3.19-3.51,4.21a41,41,0,0,1-10.54,4.88c-6.27,1.66-12,0-17.83-2.05C2.07,90.2,1,88.94-.22,87.83-3,85.26-4.34,81.94-5.67,78.51A17,17,0,0,1-7,69L-5,65A10.34,10.34,0,0,1,.65,61.37a.66.66,0,0,0,.58-.52L0,60.91c.12,0,.29-.26.35-.35a4,4,0,0,0,.3-.49c.16-.27.35-.64.68-.75a.69.69,0,0,1,.47,0,1.49,1.49,0,0,1,.3.18c.1.07.21.23.34.23a1.76,1.76,0,0,0,.23.36,1.33,1.33,0,0,0,.47.17c.27.11.53.48.76.67a6.53,6.53,0,0,0,1,.64c.61.32,1.26.56,1.89.82.37.16.75.33,1.11.53s1,.29,1.11.78h0a.91.91,0,0,1,0,.34L9,64.17A10.21,10.21,0,0,0,5.84,65.8a28.28,28.28,0,0,0,6-.86c2.82-.93,5.57-1.22,8.16.84a9.23,9.23,0,0,0,7.4,1.62l-2-.85a2.31,2.31,0,0,0-.6-.42,1.8,1.8,0,0,0,.19-.21c-1.82-1.07-3-2.87-4.83-4,1.85-2.22,4-3.82,7.11-3.52a18.75,18.75,0,0,0,3.24-.24c1.47.15,2.59,1.15,3.89,1.7l.51,0c-.07-.78-.78-1-1.27-1.34s-1.41-.51-1.85-1.11a.89.89,0,0,0-.3-.28L31,56.87l-1-.53-1.94-1.06c-.09,0-.28-.17-.36-.22l-.34-.2-.78-.47a.76.76,0,0,1-.16-.11c-.05-.05-.09-.11-.14-.15a.7.7,0,0,0-.41-.16,4.58,4.58,0,0,1-.49-.15l-1.29-.43-.57-.09L22.47,53c-.36-.17-.69,0-1.06,0a7.07,7.07,0,0,1-1.12-.06,8.48,8.48,0,0,0-.87.06,2.08,2.08,0,0,1-.35,0,3.15,3.15,0,0,0-.52-.09c-.19,0-.35.1-.54,0a1.12,1.12,0,0,1-.51-.54c-.23-.46-.36-1.13-.89-1.34-.33-.49-.53-1.11-1.29-1.21-.05.7-.23,1.33.28,1.87a1,1,0,0,1-.58.66,2.49,2.49,0,0,0-.38.25,4,4,0,0,0-.31.41,1.42,1.42,0,0,1-.32.19c-.2.12-.18.42-.23.63a2.63,2.63,0,0,1-.25.6,1.44,1.44,0,0,1-.78.61,5.67,5.67,0,0,1-2.21,0,6.94,6.94,0,0,0-.79,0c-.93-.35-1.55-1.3-2.61-1.41-.52-.61-1-1.25-1.57-1.83-.25-.27-.45-1-1-.54s-.05.8.16,1.18c.54.93,1.07,1.86,1.6,2.79a25.67,25.67,0,0,0-2.86,1.47c-.67.46-1,.47-1.33-.28-.13-.31-.27-.76-.78-.68-.59.85.54,2,0,2.42C-.06,59.24-.85,61-2.53,61.79a6.54,6.54,0,0,0-2.79,2.62,9.28,9.28,0,0,0-1.89,3.66,7.93,7.93,0,0,0-.63,5.09A34.56,34.56,0,0,0-2.88,86a13,13,0,0,0,5.62,4.83c6.2,2.73,12.61,4.49,19.45,2.43,4.51-1.35,8.88-3.05,12.12-6.62,2-2.19,3.95-4.49,4.81-7.48A25.26,25.26,0,0,0,38.83,65ZM23.88,66.15c-.88.21-1.14-.41-1.39-1A2,2,0,0,1,23.88,66.15Zm-5-12.54c1.34,0,2.71-.07,4.05.07a5.45,5.45,0,0,1,1.25.31,4,4,0,0,1,1.1.48.88.88,0,0,0,.41.17l.29,0,.23.11,1.51.81,2.05,1.69c-3.1.4-6.05-.5-8.91.32a3.84,3.84,0,0,0-1.67.93c-.82-1.42-.6-3.06-1-4.58C18.18,53.71,18.64,53.69,18.88,53.61Zm-2.32-1.23.39,1.3L16.28,53a1.5,1.5,0,0,0,0-.29ZM13.21,56c.72.5.22,1.49.09,2.37-.74-.55-.71-1.61-1.59-1.88-.39-.14-.86-.14-1-.65A2,2,0,0,1,13.21,56Zm-8,.81c3.43-1.06,3.65-1,5.28,2.4.16.33.39.63.58.95v0h0c0,.29-.1.43-.24.5H10.7c-.19,0-.43,0-.64.06-1.14-.46-2.37-.2-3.53-.45a3.08,3.08,0,0,1-1.75-.7l0,0a1.44,1.44,0,0,1-.25-.4c-.68-.75-1-1.17-1-1.47S4,57.18,5.17,56.81ZM2.42,58l1.74,1.54.69.64h0c.16.16.41.26.58.41a1.63,1.63,0,0,0,.19.09l1,.18h0a2.83,2.83,0,0,0,.78.14l.82.15a3,3,0,0,0,.73,0,3.13,3.13,0,0,1,.81,0,2.74,2.74,0,0,0,.69.1,3.38,3.38,0,0,1,.54-.09,1.67,1.67,0,0,1,.49.12.6.6,0,0,0,.75-.32c.29-.53-.24-1-.61-1.39a18.81,18.81,0,0,1-2-3.34c-.39-.27-.88-.44-.92-1,.36.12.77.19,1,.6l.66.33v0s.25.1.28.11l.29.1a.85.85,0,0,1,.25.17.57.57,0,0,1,.08.13s0,.11.07.16l0,.06c.61.51.65,1.36,1,2a2.11,2.11,0,0,0,.21.31c.59.73,1,.86,1.42-.2a13,13,0,0,0,.2-3A2.37,2.37,0,0,1,14.32,54l.31-.76c.8.69.21,1.41,0,2.12-.15,1.12.58,2,.7,3.1.22,1.95-.25,2.46-2.15,2.33a1.91,1.91,0,0,0,2.37.68,1.59,1.59,0,0,0,1.06-1.95,3.75,3.75,0,0,1,0-2.2c0-.07,0-.21,0-.28s0-.21,0-.32-.05-.38-.08-.57a1.76,1.76,0,0,0-.14.71v.08a1.17,1.17,0,0,1-.13.28.45.45,0,0,1-.12.16c-.15.11-.26-.14-.3-.25a1.91,1.91,0,0,1,.11-2.26,1.14,1.14,0,0,1,.48.27,2.22,2.22,0,0,1,.5-1.47,9.14,9.14,0,0,1,1,4.85c0,.4-.41.91.06,1.21s.78-.4,1.2-.57a1.74,1.74,0,0,0,.38-.29c.68-.19,1.23-.72,2-.72.6,1.24-.59,1.34-1.18,1.72s-1.06.25-1.45.67-.79.83-.21,1.22c1.11.76,1.47,2.14,2.57,2.88a2.27,2.27,0,0,1,.48.27.19.19,0,0,1,.07.06.45.45,0,0,1,0,.11,1.22,1.22,0,0,0,.33.51.36.36,0,0,1,.07.1c.07.14,0,.29-.11.41a.15.15,0,0,1-.05.06c-.17.12-.8-.3-1-.38-.32-.18-.62-.38-.92-.59-.56-.41-1.09-.86-1.63-1.29a5.4,5.4,0,0,0-6.26-.54l-.55.17-.28,0-1,.56c-.4-.56.06-.57.35-.68l0-.1A5.42,5.42,0,0,0,9,62.67a5.78,5.78,0,0,1-2.46-1,.36.36,0,0,0-.14-.1.32.32,0,0,0-.14,0,1.76,1.76,0,0,1-1.13-.5c-.2-.21-.47-.33-.67-.54L2.87,59.23l-.58-1.07Z"/><polygon class="cls-1" points="27.18 18.48 27.18 18.48 27.18 18.48 27.18 18.48"/><path class="cls-1" d="M48.46,25.57A5.31,5.31,0,0,0,45.7,23c-.53-.21-1-.47-1-1.25.08-2.7-.7-5-3.3-6.35a3.12,3.12,0,0,1-.86-.76c-1.82-2.25-4.39-3.68-6.37-5.75a5.21,5.21,0,0,1-1-1.81c-.25-.72-.47-1.55-1.33-1.87A3.11,3.11,0,0,0,31,4.76c-2.17-.41-4.4-.67-6.34-1.86-1.36-.82-2.66-1-3.95.17a2.26,2.26,0,0,1-2.16.48,4.19,4.19,0,0,0-4.46,1.64c-1.27,1.56-2.36,3.27-3.58,4.86-2,2.56-3.69,5.41-7.1,6.48A3.4,3.4,0,0,0,1,19.69a3.52,3.52,0,0,0,1.93,3.46,1.58,1.58,0,0,1,1,1.85,1.89,1.89,0,0,0,1,2.3c.78.35,0,.81.15,1.2-.67,2.37-1.23,4.73-.16,7.14a2.19,2.19,0,0,1,.13,1c-.12,3.2,1.81,4.88,4.44,6,1.58.69,3.17,1.34,4.75,2L16.55,47a2.25,2.25,0,0,0,3,.21,1.81,1.81,0,0,1,2.33.08,2,2,0,0,0,2.67,0,13.55,13.55,0,0,1,7.91-3.07c1.18-.11,1.72-.65,1.77-1.78,1.17.11,2.51.26,3.21-.77a5.35,5.35,0,0,1,4.43-2.36,3,3,0,0,0,.92-.39,6.06,6.06,0,0,0,4.43-5.65c0-1.44-.13-3,1-4.1S49.1,26.77,48.46,25.57ZM4.92,26.1h0a.74.74,0,0,1-.27-.5.06.06,0,0,0,0,0A2.89,2.89,0,0,1,4.49,24,5.37,5.37,0,0,0,3.4,22.42,2.71,2.71,0,0,1,4,17.48,10,10,0,0,0,5.2,17a11.59,11.59,0,0,0,3.53-3.19h0c.88-1.34,1.79-2.65,2.72-4S13.35,7,14.41,5.64l.24-.28a2.48,2.48,0,0,1,3.59-.84c.79.39,1.31,0,1.83-.43A6.08,6.08,0,0,1,22.31,3h0l.22,0a3.5,3.5,0,0,1,2.27.46,6.73,6.73,0,0,0,3,1.57l.34.07a7.56,7.56,0,0,0,2.18,0,4.28,4.28,0,0,1,.89.42l.19,0a2,2,0,0,1,.67.81,2.54,2.54,0,0,1,.35,1c.06.19.12.38.19.56a3,3,0,0,0,1.17,1.4c.12.18.25.35.38.51a29.86,29.86,0,0,0,3.08,2.77l.56.35.47.31a3.5,3.5,0,0,0,.42.24l.12.2A3.43,3.43,0,0,1,39.81,15v0a11.7,11.7,0,0,0,1.51,1.71,10.47,10.47,0,0,1,1.12.83l.19.18.29.19a1.73,1.73,0,0,1,.67,1.53c0,.13,0,.27,0,.4,0,.55,0,1.09.07,1.63.15,1.9.46,3.78.62,5.68a2.59,2.59,0,0,1-.95,2.42A5,5,0,0,0,42,31.31a9.59,9.59,0,0,1-.6,1.05l-.13.24c-.24.41-.4.87-1,.87h-.2a2.84,2.84,0,0,1-.91.16,4.63,4.63,0,0,0-1.49.82l-.18.21c-1.46,1.6-3.16,2.47-5.36,1.53l.11-.14a.46.46,0,0,1-.06-.25,7.32,7.32,0,0,0,1.14-.89,1.31,1.31,0,0,0,.31-.63c0-.4-.56-.79-1.59-1.37-.26-.14-.78-.2-.64-.65,0,0,0,0,0-.06.06-.48.54-.58,1-.31.12.07.26.16.36,0s0-.18-.07-.26a1.59,1.59,0,0,1-.07-.2c-.3-.72,0-1,.9-.9a1.93,1.93,0,0,1,.52.15l.52.12a.88.88,0,0,0,.48-.11h0a2.32,2.32,0,0,0-1.26-.56c-.18-.05-.38-.09-.47-.25a.24.24,0,0,1-.08-.25.52.52,0,0,1,.52-.42c.64-.06,1.29-.08,2.1-.13l0-.07a4,4,0,0,0-1.77-.51l-.42-.05s0,0,0-.06h0l0-.06c.19-1,.83-1.07,1.51-1.09l1.06-.33c-.36-.29-.88,0-1.21-.44a1.44,1.44,0,0,0,.18-.25c.17-.54,0-1.39.47-1.84a1.37,1.37,0,0,1,.15-.21l.84-.13c0-.36,0-.36-.64-.25-.54,0-.62-.32-.61-.64a1.7,1.7,0,0,1-.11-.48c.14-.74.8-.54,1.26-.7l.17-.08.07-.05c.17-.17.42-.3.36-.57a.34.34,0,0,0-.09-.17c-.13-.11-.3,0-.45,0-.48,0-1.09.88-1.44,0a1.07,1.07,0,0,1-.11-.26,6.07,6.07,0,0,1-.23-.77c-.14-.58-.09-1.12.84-1.44.08,0,.1-.23.14-.34-.28,0-.58.07-.86.07a.4.4,0,0,1-.55-.17,1.2,1.2,0,0,1-.34-.58,1.39,1.39,0,0,1,0-.95,1.24,1.24,0,0,1,.31-.54l.17-.24c-.46-.32-1.13.46-1.41-.4a.89.89,0,0,1,0-.14c-.17-.47.28-.7.47-1s.89-.74.68-1.12a.83.83,0,0,0-.16-.17c-.47-.36-.7.29-1,.54-.11.09-.2.21-.3.31-.31.33-.5.82-1.14.36a.68.68,0,0,1-.33-.5,1.37,1.37,0,0,1,.23-.82,1.34,1.34,0,0,1,.17-.27,5,5,0,0,0,.6-1.16.54.54,0,0,0-.26-.41c-.54-.37-1,.74-1.27,1.25a1.48,1.48,0,0,1-.3.38c-.63.84-1.39.06-2.07,0a.78.78,0,0,1-.53-.17c-.41-.19-.3-.64-.25-1V11c-.06-.57,0-1.17,0-1.86a.73.73,0,0,0-.39.06,1.23,1.23,0,0,0-.3.59c0,.1,0,.21,0,.31a.43.43,0,0,0,0,.05,3.2,3.2,0,0,1-.13,1.09s0,0,0,.06,0,.25,0,.37l0,.17c0,.35-.13.66-.75.56s-.54-.61-.5-1v-.26a3,3,0,0,1,0-.6V10a1.91,1.91,0,0,0-.13-.59,1.82,1.82,0,0,0-.4.85c-.12.77,0,1.53-.6,2.05l-.1,0a.77.77,0,0,1-.28,0c-.64,0-.65-.37-.67-.85a13,13,0,0,1,.06-2.16l-.06-.13c-.51-.11.71-1-.37-.83a1,1,0,0,0-.2.27.88.88,0,0,0,0,.16l-.06,1a1.64,1.64,0,0,1,0,.23l-.06,2.27a2.3,2.3,0,0,1-.69.09,2.45,2.45,0,0,1-.69.17l-.08.05c-1.19-.06-.89-1.11-1.18-1.77-.14-.32-.05-.92-.6-.78a.35.35,0,0,0-.3.23c0,.19.13.43.15.62.1.72.91,1.68.25,2.09a.43.43,0,0,1-.65-.14c-.3-.3-.53-.87-.93-1.08a.6.6,0,0,1-.13-.09l0,0c-.34-.11-.45,0-.34.34l.36.7c.14.15.3.3.24.47l0,.06c-.39.42-.7.47-1,.37a.7.7,0,0,1-.46-.29,2.85,2.85,0,0,0-.71-.53.32.32,0,0,0-.08.38c.12.17.34.31.36.48s0,.2-.14.31a2.2,2.2,0,0,1-2.41.19l-.34-.12a.53.53,0,0,0,0,.13,1.14,1.14,0,0,1,.44.69c.14.22.15.45-.27.76-.24.17-.46.34-.67.47h0a.71.71,0,0,1-.81.2,1.45,1.45,0,0,1-.8-.48c-.13-.14-.41-.35-.62-.1s-.1.38,0,.58l.07.11.2.3c.36.25,1,.29.61,1.14,0,.07-.07.13-.1.19a.75.75,0,0,1-.48.58,1.38,1.38,0,0,1-.88.25L9.38,19c-.07,0-.13.1-.18.15h0a.85.85,0,0,0,.58.47c1.32.48.72,1.07.08,1.61-.36.31-.82.5-1.2.79a1.67,1.67,0,0,0-.77,1.28,2.47,2.47,0,0,0,.33,1.05l0,.05a27.32,27.32,0,0,1,2.37,4.71c.28.63.54,1.27.8,1.92.35.83.71,1.68,1.12,2.54L12,33.38A6,6,0,0,1,8.94,32l-.19-.17,0,0a4.47,4.47,0,0,1-.91-1.17,7.11,7.11,0,0,1-.44-.82l-.11-.23A19.52,19.52,0,0,0,6.2,27.65a2.87,2.87,0,0,0-.31-.29A8,8,0,0,1,4.92,26.1ZM31.8,35.39l0,0s0,.06,0,.09a.29.29,0,0,0-.1,0c-1.46,1.21-3,2.33-5,2.32-.62,0-1.24.1-1.75-.57.54-.57,1.63-.34,2-1.23-.73-.45-1.24,0-1.74.3s-1,.42-1.35-.16.34-.64.54-.94.94-.45.53-.93-.78.06-1.1.32-.56.53-.88.75a1.1,1.1,0,0,1-1.44-.21c-.55-.48,0-.74.25-1a4,4,0,0,0,.81-1.41c-.84-.17-1.07.55-1.39,1a1.11,1.11,0,0,1-1.61.37c-.6-.4,0-.84.14-1.23.29-.88.8-1.71.39-2.78a34.62,34.62,0,0,0-1.37,3.35c-.19.64-.5.71-1,.66-.69-.06-.46-.59-.52-1-.12-.86.43-1.75-.25-2.64-.1.76-.17,1.53-.31,2.29-.05.32.26.88-.29.94s-.79-.41-.88-.94c-.17-1.09-.37-2.18-.6-3.26-.09-.43-.05-1.21-.63-1.1s-.27.88-.21,1.32c.16,1,.45,2,.69,2.94.07.27.26.62-.06.77a1,1,0,0,1-.81,0,2.48,2.48,0,0,1-.9-.89c-1.26-2.64-2.51-5.29-3.67-8-.73-1.67.06-2.7,1.9-2.59s3,1.3,4.06,2.51c.89,1,1.63,2,3,.66a1,1,0,0,1,1.46,0c1.31,1.57,3.17,1.48,4.9,1.65a3.78,3.78,0,0,1,3.61,2.73C29,31.57,30.1,33.61,32.9,34l-1.12,1.37Zm-11.51-17a17,17,0,0,0,0,4.61c0,.46.18,1.11-.61.92a3.43,3.43,0,0,0-2.36.38,1,1,0,0,1-1.48-.45,4.85,4.85,0,0,0-3.76-2.56c-1.21-.2-1.24-.8-.81-1.78a7.88,7.88,0,0,1,5.52-4.95,9,9,0,0,0,1.58-.67c.91-.42,1.43.19,1.14.83C18.82,16.26,19.75,17.27,20.29,18.42Zm-.12-4.3c0-.73,1.26-1.18,3.29-1.19a19.32,19.32,0,0,1,7.71,1.87,4.27,4.27,0,0,1,2.34,2.75c.43,1.57.85,3.14,1.27,4.71a4.92,4.92,0,0,1-1,4.71c-.88,1.07-1.48,2.35-2.31,3.46s-1.35,1-1.8-.18c-1.19-3.18-3.64-4.38-6.82-4.56-2-.11-2.32-.56-1.95-2.41a21.4,21.4,0,0,0,.17-4.45c0-.37-.1-.9-.34-1.06C19.26,16.74,20.24,15.33,20.17,14.12ZM33.61,43.28a16.77,16.77,0,0,0-9.84,2.43c-.08,0-.18.13-.26.12-2.25-.46-4.35.78-6.58.57h-.11a.88.88,0,0,0-.05-.15L16,45.59a6.74,6.74,0,0,0-1.11-1.15l-.2,0v0l0-.08a7.65,7.65,0,0,0-2.14-1.12,17.84,17.84,0,0,1-5.24-2.91A3.26,3.26,0,0,1,6,37.55c-.1-1.84-.61-3.66-.55-5.54a14.94,14.94,0,0,1,.32-3.72,8.68,8.68,0,0,1,1.33,2.06c2,3.19,3.44,4,6.54,3.39a3.11,3.11,0,0,1,2.73.52c.66.55,1.48.26,2.23.29s1.74,0,2.21,1c.09.19.38.46.52.43,1.46-.38,2.14.75,3,1.51a4.07,4.07,0,0,0,2.36,1c2.52.26,4.23,2.07,6.3,3.18A1.52,1.52,0,0,1,33.61,43.28ZM47.13,29.15a12.73,12.73,0,0,0-.85,4.34,5.78,5.78,0,0,1-3.85,5.07c-2.25-.15-4.27.08-5.5,2.43-.44.86-3,.83-3.85,0a25.14,25.14,0,0,0-3.83-2.69l2-1.79c.54-.09.89.3,1.33.48a4,4,0,0,0,5.17-1.46,2.27,2.27,0,0,1,1.75-1.09,3.71,3.71,0,0,0,3.07-2c.47-.87,1.24-1.57,1.75-2.42A6.42,6.42,0,0,0,45,25.88c-.1-.8-.16-1.62-.23-2.46C47.65,24.59,48.47,26.57,47.13,29.15Z"/></svg>