<?xml version="1.0" encoding="utf-8"?>
<!-- Generator: Adobe Illustrator 25.4.1, SVG Export Plug-In . SVG Version: 6.00 Build 0)  -->
<svg version="1.1" id="Layer_1" xmlns="http://www.w3.org/2000/svg" xmlns:xlink="http://www.w3.org/1999/xlink" x="0px" y="0px"
	 viewBox="0 0 50 50" style="enable-background:new 0 0 50 50;" xml:space="preserve">
<style type="text/css">
	.st0{fill:none;stroke:#000000;stroke-width:13;stroke-linecap:round;stroke-linejoin:round;stroke-miterlimit:10;}
</style>
<g>
	<path d="M39.76,5.36c0-0.45-0.28-0.72-0.73-0.72c-2.32-0.01-4.65-0.01-6.97,0c-0.44,0-0.71,0.27-0.73,0.73
		c-0.02,0.44-0.02,0.88,0,1.31c0.02,0.5,0.27,0.75,0.78,0.76c0.81,0.01,1.62,0,2.43,0.01c0.11,0,0.24-0.05,0.35,0.06
		c-0.09,0.1-0.18,0.19-0.27,0.28c-1.59,1.58-3.18,3.16-4.76,4.76c-0.23,0.23-0.35,0.22-0.6,0.04c-2.93-2.14-6.2-2.83-9.72-2.01
		c-6.36,1.49-10.15,7.18-9.14,13.65c0.77,4.97,5.02,9.1,10.04,9.76c0.23,0.03,0.34,0.08,0.34,0.36c-0.02,1.46-0.01,2.92,0,4.38
		c0,0.26-0.07,0.33-0.33,0.33c-1.02-0.01-2.05-0.01-3.07,0c-0.57,0-0.82,0.26-0.83,0.83c0,0.37,0,0.74,0,1.11
		c0,0.61,0.26,0.87,0.88,0.87c1.01,0,2.02,0.01,3.03-0.01c0.27,0,0.33,0.08,0.32,0.33c-0.02,0.74,0.01,1.49-0.01,2.23
		c-0.02,0.43,0.12,0.74,0.49,0.96c0.61,0,1.22,0,1.83,0c0.37-0.19,0.52-0.48,0.51-0.9c-0.02-0.76,0.01-1.51-0.01-2.27
		c-0.01-0.29,0.08-0.35,0.36-0.35c1,0.02,1.99,0.01,2.99,0.01c0.64,0,0.88-0.24,0.88-0.89c0-0.33,0-0.66,0-0.99
		c0-0.71-0.22-0.92-0.93-0.92c-0.98,0-1.97-0.01-2.95,0.01c-0.28,0-0.35-0.08-0.35-0.36c0.01-1.45,0.01-2.89,0-4.34
		c0-0.27,0.09-0.34,0.33-0.37c0.35-0.04,0.71-0.11,1.06-0.19c8.33-2.02,11.9-11.81,6.83-18.7c-0.16-0.22-0.19-0.33,0.03-0.54
		c1.65-1.62,3.27-3.26,4.91-4.89c0.06-0.06,0.09-0.16,0.23-0.14c0,0.91,0,1.83,0,2.74c0,0.52,0.27,0.79,0.78,0.8
		c0.42,0.01,0.85,0.01,1.28,0c0.47-0.01,0.74-0.27,0.75-0.75C39.77,10,39.77,7.68,39.76,5.36z M22.16,31.32
		c-5.12-0.02-9.15-4.11-9.13-9.25c0.02-4.97,4.18-9.03,9.22-9c5.02,0.03,9.09,4.13,9.07,9.15C31.3,27.27,27.2,31.34,22.16,31.32z"/>
	<path d="M22.16,26.41c-1.14,0-2.28,0.01-3.42,0c-1.07-0.01-1.75-0.95-1.39-1.89c0.23-0.59,0.69-0.92,1.31-0.92
		c2.35-0.02,4.7-0.02,7.04,0c0.82,0.01,1.41,0.64,1.4,1.42c-0.01,0.78-0.6,1.38-1.44,1.39C24.49,26.43,23.33,26.41,22.16,26.41z"/>
	<path d="M22.17,20.78c-1.18,0-2.36,0.01-3.54,0c-0.68-0.01-1.26-0.52-1.36-1.17c-0.11-0.69,0.29-1.33,0.95-1.56
		c0.17-0.06,0.34-0.06,0.51-0.06c2.29,0,4.59,0,6.88,0c0.88,0,1.49,0.59,1.49,1.41c-0.01,0.82-0.62,1.39-1.51,1.39
		C24.45,20.79,23.31,20.79,22.17,20.78C22.17,20.79,22.17,20.79,22.17,20.78z"/>
</g>
</svg>
