<?xml version="1.0" encoding="utf-8"?>
<!-- Generator: Adobe Illustrator 25.4.1, SVG Export Plug-In . SVG Version: 6.00 Build 0)  -->
<svg version="1.1" id="Layer_1" xmlns="http://www.w3.org/2000/svg" xmlns:xlink="http://www.w3.org/1999/xlink" x="0px" y="0px"
	 viewBox="0 0 50 50" style="enable-background:new 0 0 50 50;" xml:space="preserve">
<style type="text/css">
	.st0{fill:none;stroke:#000000;stroke-width:13;stroke-linecap:round;stroke-linejoin:round;stroke-miterlimit:10;}
</style>
<g>
	<path d="M8.26,17.07c0.39-0.31,0.79-0.6,1.22-0.84c0.43-0.24,0.86-0.45,1.32-0.63c0.46-0.17,0.93-0.32,1.41-0.43
		c0.3-0.07,0.59-0.13,0.9-0.17c0.43-0.06,0.86-0.09,1.29-0.11c0.32-0.02,0.63,0,0.94,0.01c0.45,0.02,0.9,0.11,1.34,0.22
		c0.44,0.11,0.89,0.22,1.32,0.37c0.65,0.22,1.26,0.51,1.84,0.87c0.43,0.27,0.83,0.56,1.22,0.88c0.41,0.34,0.79,0.69,1.16,1.08
		c0.41,0.44,0.8,0.89,1.17,1.37c0.3,0.4,0.59,0.8,0.88,1.21c0.38,0.54,0.72,1.11,1.06,1.68c0.22,0.37,0.42,0.76,0.63,1.14
		c0.34,0.61,0.65,1.24,0.97,1.86c0.24,0.46,0.51,0.92,0.79,1.36c0.27,0.42,0.55,0.83,0.86,1.23c0.18,0.24,0.37,0.47,0.58,0.69
		c0.16,0.17,0.31,0.35,0.47,0.51c0.6,0.59,1.25,1.12,1.99,1.53c0.69,0.38,1.39,0.73,2.14,0.96c0.37,0.11,0.74,0.2,1.13,0.26
		c0.39,0.06,0.78,0.09,1.17,0.09c0.55,0,1.09-0.08,1.62-0.22c0.66-0.18,1.28-0.47,1.84-0.87c0.28-0.2,0.54-0.42,0.78-0.67
		c0.45-0.48,0.81-1.03,1.09-1.63c0.25-0.54,0.41-1.11,0.52-1.7c0.07-0.35,0.11-0.71,0.14-1.06c0.04-0.49,0.05-0.97,0.03-1.46
		c-0.01-0.3-0.04-0.6-0.08-0.91c-0.07-0.61-0.2-1.2-0.41-1.78c-0.21-0.58-0.49-1.13-0.87-1.62c-0.15-0.19-0.3-0.38-0.47-0.55
		c-0.41-0.41-0.88-0.75-1.4-1.02c-0.39-0.21-0.79-0.38-1.21-0.51c-0.38-0.12-0.77-0.22-1.17-0.27c-0.24-0.03-0.48-0.07-0.72-0.09
		c-0.34-0.03-0.69-0.02-1.03-0.01c-0.27,0.01-0.54,0.08-0.8,0.15c-0.46,0.11-0.91,0.24-1.34,0.42c-0.36,0.15-0.7,0.32-1.03,0.52
		c-0.38,0.23-0.73,0.49-1.07,0.77c-0.29,0.24-0.56,0.51-0.82,0.78c-0.37,0.37-0.71,0.77-1.04,1.18c-0.2,0.26-0.4,0.51-0.59,0.78
		c-0.09,0.13-0.32,0.13-0.41-0.06c-0.18-0.34-0.37-0.68-0.57-1.02c-0.22-0.38-0.46-0.76-0.68-1.15c-0.13-0.24-0.17-0.24,0.03-0.48
		c0.22-0.27,0.45-0.54,0.69-0.8c0.29-0.33,0.59-0.64,0.91-0.94c0.34-0.32,0.7-0.63,1.07-0.92c0.63-0.49,1.31-0.9,2.03-1.23
		c0.51-0.24,1.04-0.42,1.58-0.57c0.4-0.11,0.79-0.21,1.19-0.29c0.19-0.04,0.38-0.06,0.57-0.07c0.3-0.02,0.6-0.03,0.9-0.02
		c0.37,0.01,0.74,0.04,1.11,0.08c0.54,0.06,1.07,0.16,1.6,0.3c0.45,0.12,0.88,0.26,1.31,0.44c0.59,0.24,1.16,0.54,1.69,0.9
		c0.29,0.2,0.57,0.42,0.84,0.65c0.25,0.22,0.47,0.46,0.7,0.69c0.13,0.14,0.25,0.29,0.38,0.43c0.07,0.13,0.17,0.24,0.25,0.36
		c0.17,0.24,0.33,0.5,0.48,0.76c0.34,0.6,0.6,1.24,0.8,1.91c0.12,0.4,0.22,0.81,0.29,1.22c0.07,0.38,0.12,0.76,0.15,1.15
		c0.02,0.23,0.02,0.46,0.04,0.68c0.03,0.36,0.02,0.71,0.01,1.07c-0.01,0.36-0.03,0.72-0.08,1.08c-0.03,0.28-0.07,0.57-0.11,0.85
		c-0.06,0.36-0.14,0.72-0.24,1.07c-0.2,0.73-0.47,1.42-0.83,2.08c-0.25,0.46-0.53,0.89-0.86,1.29c-0.17,0.21-0.35,0.4-0.53,0.6
		c-0.43,0.46-0.92,0.85-1.44,1.2c-0.72,0.48-1.5,0.83-2.32,1.08c-0.38,0.11-0.76,0.2-1.15,0.26c-0.31,0.05-0.63,0.08-0.95,0.09
		c-0.29,0.02-0.57,0.02-0.86,0.01c-0.31-0.01-0.61-0.04-0.92-0.08c-0.3-0.04-0.59-0.09-0.89-0.15c-0.46-0.09-0.91-0.22-1.35-0.37
		c-0.43-0.15-0.85-0.34-1.26-0.53c-0.68-0.31-1.33-0.68-1.94-1.11c-0.28-0.19-0.54-0.4-0.8-0.61c-0.43-0.35-0.83-0.72-1.2-1.12
		c-0.31-0.33-0.61-0.67-0.89-1.03c-0.39-0.49-0.75-1-1.09-1.53c-0.25-0.39-0.49-0.79-0.71-1.2c-0.32-0.58-0.61-1.18-0.91-1.76
		c-0.31-0.6-0.64-1.19-0.99-1.77c-0.29-0.49-0.6-0.98-0.92-1.46c-0.29-0.43-0.6-0.84-0.93-1.24c-0.34-0.41-0.69-0.81-1.07-1.17
		c-0.47-0.45-0.98-0.84-1.54-1.18c-0.68-0.4-1.41-0.65-2.17-0.83c-0.24-0.06-0.48-0.12-0.72-0.15c-0.25-0.03-0.51-0.02-0.76-0.02
		c-0.56,0-1.1,0.08-1.64,0.2c-0.6,0.14-1.18,0.34-1.72,0.62c-0.4,0.21-0.78,0.46-1.12,0.76c-0.38,0.32-0.7,0.69-0.97,1.11
		c-0.27,0.4-0.48,0.83-0.64,1.28c-0.14,0.39-0.25,0.79-0.33,1.2c-0.05,0.26-0.08,0.53-0.12,0.8c-0.08,0.64-0.07,1.27-0.05,1.91
		c0.01,0.33,0.05,0.67,0.1,1c0.1,0.68,0.3,1.33,0.63,1.93c0.21,0.4,0.47,0.77,0.76,1.12c0.43,0.54,0.97,0.95,1.55,1.31
		c0.59,0.36,1.23,0.61,1.9,0.77c0.34,0.08,0.69,0.13,1.04,0.16c0.37,0.03,0.75,0.02,1.12,0.01c0.27-0.01,0.54-0.05,0.81-0.1
		c0.35-0.06,0.69-0.14,1.03-0.26c0.45-0.16,0.87-0.39,1.29-0.63c0.07-0.04,0.06-0.07,0.01-0.11c-0.26-0.22-0.51-0.45-0.76-0.68
		c-0.19-0.17-0.37-0.34-0.56-0.52c-0.05-0.05-0.07-0.12-0.05-0.2c0.03-0.09,0.08-0.15,0.16-0.16c0.2-0.03,0.39-0.1,0.59-0.15
		c0.57-0.15,1.13-0.31,1.7-0.47c0.42-0.12,0.85-0.24,1.27-0.36c0.59-0.17,1.19-0.33,1.78-0.49c0.19-0.05,0.37-0.11,0.55-0.16
		c0.2-0.06,0.35,0.09,0.31,0.3c-0.05,0.24-0.08,0.49-0.11,0.73c-0.04,0.27-0.09,0.54-0.13,0.81c-0.04,0.24-0.08,0.48-0.12,0.72
		c-0.05,0.29-0.1,0.59-0.14,0.88c-0.04,0.28-0.09,0.55-0.13,0.83c-0.05,0.29-0.1,0.58-0.15,0.87c-0.04,0.24-0.07,0.47-0.11,0.71
		c-0.03,0.18-0.05,0.37-0.09,0.55c-0.02,0.13-0.2,0.19-0.32,0.12c-0.11-0.07-0.19-0.17-0.28-0.25c-0.19-0.16-0.37-0.34-0.56-0.51
		c-0.17-0.15-0.34-0.3-0.51-0.45c-0.03-0.03-0.05-0.03-0.09,0c-0.37,0.28-0.76,0.53-1.17,0.76c-0.55,0.3-1.12,0.56-1.72,0.75
		c-0.39,0.12-0.78,0.21-1.19,0.27c-0.28,0.04-0.56,0.08-0.84,0.11c-0.25,0.02-0.51,0.02-0.76,0.05c-0.29,0.03-0.58-0.01-0.87-0.01
		c-0.3-0.01-0.59-0.05-0.89-0.1c-0.38-0.06-0.75-0.14-1.12-0.24c-0.38-0.1-0.75-0.23-1.12-0.38c-0.63-0.26-1.23-0.59-1.79-0.98
		c-0.25-0.18-0.49-0.36-0.72-0.56c-0.27-0.23-0.52-0.48-0.77-0.73c-0.27-0.27-0.49-0.58-0.71-0.88c-0.34-0.48-0.64-0.99-0.89-1.53
		c-0.25-0.54-0.44-1.11-0.57-1.7c-0.07-0.29-0.12-0.59-0.16-0.89c-0.03-0.25-0.05-0.51-0.07-0.76c-0.05-0.55-0.05-1.11-0.03-1.66
		c0.01-0.35,0.04-0.7,0.08-1.06c0.05-0.43,0.11-0.85,0.2-1.27c0.12-0.57,0.28-1.13,0.5-1.66c0.11-0.27,0.22-0.54,0.36-0.8
		c0.26-0.5,0.55-0.97,0.9-1.41c0.28-0.36,0.59-0.68,0.91-0.99C8.05,17.24,8.16,17.16,8.26,17.07z"/>
</g>
</svg>
