<?xml version="1.0" encoding="utf-8"?>
<!-- Generator: Adobe Illustrator 25.4.1, SVG Export Plug-In . SVG Version: 6.00 Build 0)  -->
<svg version="1.1" id="Layer_1" xmlns="http://www.w3.org/2000/svg" xmlns:xlink="http://www.w3.org/1999/xlink" x="0px" y="0px"
	 viewBox="0 0 50 50" style="enable-background:new 0 0 50 50;" xml:space="preserve">
<style type="text/css">
	.st0{fill:none;stroke:#000000;stroke-width:13;stroke-linecap:round;stroke-linejoin:round;stroke-miterlimit:10;}
</style>
<g>
	<g>
		<polygon points="9.83,44 14.46,44 14.46,33.87 9.83,38.5 		"/>
		<path d="M17.36,34.2V44h4.63v-5.91c-0.7-0.21-1.33-0.59-1.86-1.12L17.36,34.2z"/>
		<path d="M24.9,37.99V44h4.63V33.92l-3.04,3.04C26.03,37.42,25.49,37.77,24.9,37.99z"/>
		<polygon points="32.43,44 37.06,44 37.06,26.39 32.43,31.02 		"/>
	</g>
	<path d="M44.45,12.1l-8.61,1.54c-0.56,0.1-0.78,0.8-0.38,1.2l2.14,2.14l-14.3,14.3L17,24.98c-0.69-0.69-1.81-0.69-2.5,0l-9.26,9.26
		c-0.69,0.69-0.69,1.81,0,2.5c0.35,0.35,0.8,0.52,1.25,0.52s0.91-0.17,1.25-0.52l8.01-8.01l6.31,6.31c0.69,0.69,1.81,0.69,2.5,0
		l15.55-15.55l2.42,2.42c0.41,0.41,1.1,0.19,1.2-0.38l1.54-8.61C45.36,12.44,44.93,12.01,44.45,12.1z"/>
	<g>
		<path d="M23.34,20.59v1.97h-0.94v-1.9c-1.29,0-2.34-0.26-3.14-0.78v-1.58c0.35,0.31,0.83,0.57,1.44,0.78
			c0.61,0.21,1.18,0.31,1.7,0.31v-4.65c-1.33-0.64-2.19-1.23-2.59-1.77c-0.39-0.54-0.59-1.18-0.59-1.92c0-0.88,0.3-1.64,0.9-2.27
			c0.6-0.64,1.36-1.02,2.28-1.15V6h0.94v1.6c1.19,0.04,2.01,0.21,2.46,0.51v1.54c-0.62-0.48-1.44-0.74-2.46-0.78v4.79
			c1.26,0.6,2.12,1.18,2.58,1.74c0.46,0.56,0.69,1.2,0.69,1.91c0,0.86-0.29,1.58-0.87,2.16C25.17,20.06,24.37,20.43,23.34,20.59z
			 M22.39,13.15V8.92c-0.51,0.1-0.91,0.33-1.21,0.68c-0.3,0.35-0.44,0.77-0.44,1.27c0,0.52,0.12,0.95,0.36,1.28
			C21.35,12.48,21.78,12.81,22.39,13.15z M23.34,15.22v4.1c1.17-0.25,1.75-0.88,1.75-1.89C25.09,16.6,24.51,15.86,23.34,15.22z"/>
	</g>
</g>
</svg>
