<svg id="Capa_1" data-name="Capa 1" xmlns="http://www.w3.org/2000/svg" viewBox="0 0 404 156"><defs><style>.cls-1{fill:#fff;}</style></defs><title>logoDASAC</title><path class="cls-1" d="M77,129.54C70.63,124,38.71,95.5,24.56,83a24.59,24.59,0,0,1-6.65-11.12C9.48,83,4.75,96.44,10.59,102.26,24.75,111.89,56.5,133.92,63,138.12c6,3.88,14.78,2.83,22.74-2.83A34.89,34.89,0,0,1,77,129.54Z"/><path class="cls-1" d="M30.4,59.25A24.55,24.55,0,0,1,41.57,65.8c12.66,14.06,41.37,45.75,47,52.09a35.14,35.14,0,0,1,5.82,8.64c5.59-8,6.57-16.82,2.64-22.76-4.25-6.44-26.54-38-36.28-52.09C54.89,45.89,41.51,50.73,30.4,59.25Z"/><path class="cls-1" d="M67.51,129.54C73.9,124,105.82,95.5,120,83a24.59,24.59,0,0,0,6.65-11.12c8.43,11.18,13.16,24.6,7.32,30.42-14.16,9.63-45.91,31.66-52.38,35.86-6,3.88-14.78,2.83-22.74-2.83A34.89,34.89,0,0,0,67.51,129.54Z"/><path class="cls-1" d="M114.13,59.25A24.55,24.55,0,0,0,103,65.8C90.3,79.86,61.59,111.55,56,117.89a35.14,35.14,0,0,0-5.82,8.64c-5.59-8-6.57-16.82-2.64-22.76,4.25-6.44,26.54-38,36.28-52.09C89.64,45.89,103,50.73,114.13,59.25Z"/><path class="cls-1" d="M81.44,27a12.89,12.89,0,0,1-2.68,8c-1.66,2.07-6.5,7.32-6.5,7.32S67.44,37.08,65.78,35a12.84,12.84,0,0,1-2.69-8c0-6.29,4.11-11.39,9.17-11.39S81.44,20.67,81.44,27Z"/><path class="cls-1" d="M166.82,94.45c-.81,0-1.74,0-2.78-.07s-2.13-.14-3.25-.28-2.24-.33-3.36-.54a16.51,16.51,0,0,1-3.1-.89q-3.93-1.5-3.93-5.21V54.11a3.13,3.13,0,0,1,.82-2.32,6.09,6.09,0,0,1,2.25-1.32,30.7,30.7,0,0,1,6.5-1.32q3.42-.32,6.14-.32a35,35,0,0,1,10.1,1.36A20.68,20.68,0,0,1,184,54.36a18.89,18.89,0,0,1,5,7.11,26.41,26.41,0,0,1,1.78,10.14,26.63,26.63,0,0,1-1.71,10,19.43,19.43,0,0,1-4.89,7.14A20.57,20.57,0,0,1,176.6,93,31.48,31.48,0,0,1,166.82,94.45Zm-4-10.42c.53.1,1.17.18,1.93.25s1.47.11,2.14.11a13.25,13.25,0,0,0,4.46-.72,8.82,8.82,0,0,0,3.5-2.21,10.24,10.24,0,0,0,2.29-3.89,18,18,0,0,0,.82-5.75q0-6.42-3-9.67a10.36,10.36,0,0,0-8-3.25c-.66,0-1.34,0-2,.07s-1.39.12-2.11.21Z"/><path class="cls-1" d="M215.58,51.33A15.07,15.07,0,0,1,219.26,50a19.51,19.51,0,0,1,5-.64,17.86,17.86,0,0,1,6.32,1,5.53,5.53,0,0,1,3.54,3.24q1.28,3.72,2.78,8.64t3,10.18q1.5,5.25,2.93,10.35t2.49,9a5.86,5.86,0,0,1-2.57,1.61,12.28,12.28,0,0,1-4.06.6,12.59,12.59,0,0,1-2.9-.28,5.16,5.16,0,0,1-1.92-.86,4.22,4.22,0,0,1-1.22-1.5,13.12,13.12,0,0,1-.82-2.14l-1.28-4.93H217.58c-.38,1.43-.76,2.91-1.14,4.43s-.76,3-1.14,4.43a18.56,18.56,0,0,1-2.11.6,12.12,12.12,0,0,1-2.67.25,9.32,9.32,0,0,1-5.4-1.25,4,4,0,0,1-1.74-3.46,7.31,7.31,0,0,1,.28-2c.19-.66.4-1.45.64-2.35.34-1.29.8-2.88,1.4-4.79s1.24-4,2-6.17,1.47-4.49,2.28-6.82l2.29-6.61c.71-2.07,1.37-3.91,2-5.53S215.25,52.19,215.58,51.33Zm8.57,9.21q-1,3-2.25,6.67c-.83,2.46-1.58,4.94-2.25,7.47h8.86q-1-3.86-2-7.54t-1.89-6.6Z"/><path class="cls-1" d="M272.63,76.1c-2.1-.71-4-1.44-5.71-2.17a17.47,17.47,0,0,1-4.43-2.68,11.12,11.12,0,0,1-2.89-3.75,12.31,12.31,0,0,1-1-5.32,11.69,11.69,0,0,1,4.68-9.71q4.68-3.64,13.1-3.64a35.16,35.16,0,0,1,5.71.43,16.69,16.69,0,0,1,4.54,1.32,8,8,0,0,1,3,2.28,5.22,5.22,0,0,1,1.07,3.25,5.72,5.72,0,0,1-.86,3.18,8.9,8.9,0,0,1-2.07,2.25,15.92,15.92,0,0,0-4.21-1.75A21.11,21.11,0,0,0,277.7,59a9.59,9.59,0,0,0-4.71.89,2.61,2.61,0,0,0-1.5,2.25,2.08,2.08,0,0,0,.92,1.75,9.71,9.71,0,0,0,2.79,1.25L279,66.39a27.27,27.27,0,0,1,10.32,5.47,11.68,11.68,0,0,1,3.61,9,11.87,11.87,0,0,1-4.79,9.81q-4.78,3.75-14.06,3.75a33.42,33.42,0,0,1-6.11-.53A19.35,19.35,0,0,1,263,92.35a9.15,9.15,0,0,1-3.29-2.57,5.72,5.72,0,0,1-1.18-3.54,5.34,5.34,0,0,1,1.22-3.53,9.16,9.16,0,0,1,2.64-2.25,19.19,19.19,0,0,0,4.89,2.71,17.07,17.07,0,0,0,6.32,1.14c2.33,0,4-.35,4.92-1.07a3.06,3.06,0,0,0,1.43-2.5,2.44,2.44,0,0,0-1.14-2.17,14.88,14.88,0,0,0-3.21-1.47Z"/><path class="cls-1" d="M318.11,51.33A15,15,0,0,1,321.78,50a19.59,19.59,0,0,1,5-.64,17.8,17.8,0,0,1,6.31,1,5.51,5.51,0,0,1,3.54,3.24c.86,2.48,1.78,5.36,2.78,8.64s2,6.68,3,10.18,2,6.95,2.93,10.35,1.78,6.41,2.5,9a5.92,5.92,0,0,1-2.57,1.61,12.34,12.34,0,0,1-4.07.6,12.5,12.5,0,0,1-2.89-.28,5.14,5.14,0,0,1-1.93-.86,4.1,4.1,0,0,1-1.21-1.5,13.1,13.1,0,0,1-.83-2.14L333,84.31H320.11c-.39,1.43-.77,2.91-1.15,4.43s-.76,3-1.14,4.43a19,19,0,0,1-2.1.6A12.21,12.21,0,0,1,313,94c-2.43,0-4.23-.41-5.39-1.25a4,4,0,0,1-1.75-3.46,7.31,7.31,0,0,1,.28-2c.19-.66.41-1.45.65-2.35.33-1.29.79-2.88,1.39-4.79s1.25-4,2-6.17,1.48-4.49,2.29-6.82,1.57-4.53,2.28-6.61,1.37-3.91,2-5.53S317.77,52.19,318.11,51.33Zm8.56,9.21q-1,3-2.24,6.67c-.84,2.46-1.59,4.94-2.25,7.47H331q-1-3.86-2-7.54t-1.9-6.6Z"/><path class="cls-1" d="M383.93,58.75q-5.49,0-8.42,3.36t-2.93,9.5q0,6.21,3.25,9.56a11.61,11.61,0,0,0,8.75,3.36,13.69,13.69,0,0,0,5-.79A32.77,32.77,0,0,0,393.43,82a7.06,7.06,0,0,1,1.89,2.39A7.37,7.37,0,0,1,396,87.6q0,2.93-3.25,5t-9.89,2a29.27,29.27,0,0,1-9-1.36,20.22,20.22,0,0,1-7.36-4.18,19.83,19.83,0,0,1-5-7.14,26.54,26.54,0,0,1-1.82-10.31,25.54,25.54,0,0,1,1.75-9.82,21.06,21.06,0,0,1,4.78-7.18,20.26,20.26,0,0,1,7.11-4.42,25,25,0,0,1,8.71-1.5q6.57,0,10.17,2.14t3.61,5.5a5.54,5.54,0,0,1-.93,3.21,7.64,7.64,0,0,1-2.14,2.14,23.26,23.26,0,0,0-4-2.07A13,13,0,0,0,383.93,58.75Z"/><path class="cls-1" d="M159.05,107.16a4.94,4.94,0,0,1,1.17,3.54,5.93,5.93,0,0,1-1.28,4.09,4.66,4.66,0,0,1-3.68,1.43c-.45,0-1,0-1.62,0l-1.77-.07h0l.11-3-.11-7.09h0l3.83-.06A4.39,4.39,0,0,1,159.05,107.16Zm-1.28,6.8a6,6,0,0,0,0-5.78,2.66,2.66,0,0,0-2.22-.93c-.58,0-1.27,0-2.07.07l-.08,5.62,0,1.88,1.13.08.94,0A2.68,2.68,0,0,0,157.77,114Z"/><path class="cls-1" d="M170.45,114.74l.1.14-.11,1.25h-6l.11-3-.11-7.09h6l.1.14-.13,1.25-2.4-.06h-1.93l-.05,3,1.84,0,1.67,0,.11.13-.13,1.24-1.78,0-1.72,0,0,1.31.05,1.86,1.93,0Z"/><path class="cls-1" d="M180,106.38l-.27,1.49-.25.09a4.9,4.9,0,0,0-1.05-.57,3,3,0,0,0-1-.2,1.69,1.69,0,0,0-1.23.43,1.29,1.29,0,0,0-.46,1,1.1,1.1,0,0,0,.46.91,7.33,7.33,0,0,0,1.43.81c.57.28,1,.52,1.38.74a3.18,3.18,0,0,1,.91.88,2.17,2.17,0,0,1,.38,1.3,2.7,2.7,0,0,1-.45,1.51,3.13,3.13,0,0,1-1.26,1.09,4.1,4.1,0,0,1-1.86.4,6,6,0,0,1-1.43-.17,6.55,6.55,0,0,1-1.41-.5l.21-1.62.2-.09a3.9,3.9,0,0,0,1.29.83,3.67,3.67,0,0,0,1.3.28,1.9,1.9,0,0,0,1.31-.44,1.32,1.32,0,0,0,.49-1,1.18,1.18,0,0,0-.47-1,7.42,7.42,0,0,0-1.46-.83c-.55-.27-1-.51-1.35-.72a3.06,3.06,0,0,1-.9-.86,2.29,2.29,0,0,1-.37-1.3,2.72,2.72,0,0,1,.44-1.5,3,3,0,0,1,1.24-1.06,4,4,0,0,1,1.8-.39A6.26,6.26,0,0,1,180,106.38Z"/><path class="cls-1" d="M192.22,116.13h-1.68l-.23-1.14-.45-1.4-2.14,0-1.95,0-.47,1.32-.25,1.22h-1.63L187,106H189Zm-2.77-3.87L188,107.58h-.11l-1.66,4.68,1.6,0Z"/><path class="cls-1" d="M203.43,115.75l0,.19a6.77,6.77,0,0,1-1.56.33l-.19-.13c-.87-1.43-1.58-2.64-2.12-3.63h-1.72v.43l.08,3.19h-1.66l.11-3-.11-7.09,3.45,0a3.4,3.4,0,0,1,2.37.77,2.84,2.84,0,0,1,.83,2.19,3.21,3.21,0,0,1-.53,1.82,3.93,3.93,0,0,1-1.47,1.32C201.6,113.22,202.45,114.44,203.43,115.75Zm-5.58-4.56,1.74,0a2.08,2.08,0,0,0,1.6-2.18,1.69,1.69,0,0,0-.48-1.32,2.21,2.21,0,0,0-1.47-.48l-1.34,0Z"/><path class="cls-1" d="M214.8,115.75l0,.19a6.77,6.77,0,0,1-1.56.33l-.19-.13c-.87-1.43-1.58-2.64-2.12-3.63h-1.72v.43l.08,3.19h-1.66l.11-3-.11-7.09,3.45,0a3.4,3.4,0,0,1,2.37.77,2.84,2.84,0,0,1,.83,2.19,3.21,3.21,0,0,1-.53,1.82,3.93,3.93,0,0,1-1.47,1.32C213,113.22,213.82,114.44,214.8,115.75Zm-5.57-4.56,1.73,0a2.07,2.07,0,0,0,1.6-2.18,1.69,1.69,0,0,0-.48-1.32,2.21,2.21,0,0,0-1.47-.48l-1.34,0Z"/><path class="cls-1" d="M225.89,107.16a5.45,5.45,0,0,1,1.13,3.69,6,6,0,0,1-1.21,4,4.33,4.33,0,0,1-3.46,1.41,4,4,0,0,1-3.22-1.33,7,7,0,0,1,.08-7.7,4.33,4.33,0,0,1,3.44-1.38A4.07,4.07,0,0,1,225.89,107.16Zm-5.51,1a4.71,4.71,0,0,0-.7,2.85,5.42,5.42,0,0,0,.69,3.08,2.42,2.42,0,0,0,2.12,1,2.52,2.52,0,0,0,2.15-.93,4.93,4.93,0,0,0,.69-2.91,5.28,5.28,0,0,0-.68-3,2.45,2.45,0,0,0-2.13-1A2.53,2.53,0,0,0,220.38,108.11Z"/><path class="cls-1" d="M236.55,114.91l-.13,1.22h-5.21l.11-3-.11-7.09h1.67l-.09,7,0,1.83h3.62Z"/><path class="cls-1" d="M245.59,114.91l-.12,1.22h-5.21l.11-3-.11-7.09h1.67l-.09,7,0,1.83h3.61Z"/><path class="cls-1" d="M255.89,107.16a5.4,5.4,0,0,1,1.14,3.69,6,6,0,0,1-1.22,4,4.31,4.31,0,0,1-3.46,1.41,4,4,0,0,1-3.21-1.33,6.92,6.92,0,0,1,.08-7.7,4.31,4.31,0,0,1,3.43-1.38A4.07,4.07,0,0,1,255.89,107.16Zm-5.5,1a4.71,4.71,0,0,0-.7,2.85,5.43,5.43,0,0,0,.68,3.08,2.45,2.45,0,0,0,2.13,1,2.49,2.49,0,0,0,2.14-.93,4.85,4.85,0,0,0,.7-2.91,5.2,5.2,0,0,0-.69-3,2.43,2.43,0,0,0-2.12-1A2.53,2.53,0,0,0,250.39,108.11Z"/><path class="cls-1" d="M269.71,113.22l.06,2.91h-1.62l.08-2.91,0-.61L265,106h1.74l.21.63,2,4.25h.13l2.23-4.22.25-.66h1.69l-3.52,6.54Z"/><path class="cls-1" d="M289.61,116.13h-1.68L287.7,115l-.44-1.4-2.15,0-1.94,0-.48,1.32-.25,1.22h-1.63L284.43,106h1.91Zm-2.77-3.87-1.45-4.68h-.11l-1.66,4.68,1.6,0Z"/><path class="cls-1" d="M299.44,106.75a3,3,0,0,1,.83,2.26,3.56,3.56,0,0,1-1,2.7,4,4,0,0,1-2.88,1h-1.13v.24l.08,3.19h-1.65l.11-3-.11-7.09,3.44,0A3.31,3.31,0,0,1,299.44,106.75Zm-1.31,3.94a2.45,2.45,0,0,0,.45-1.54,1.88,1.88,0,0,0-.48-1.41,2.18,2.18,0,0,0-1.46-.49l-1.35,0-.06,4.11,1.58,0A2.17,2.17,0,0,0,298.13,110.69Z"/><path class="cls-1" d="M311.62,115.75v.19a7,7,0,0,1-1.57.33l-.19-.13c-.87-1.43-1.57-2.64-2.11-3.63H306v.43l.08,3.19h-1.66l.11-3-.11-7.09,3.44,0a3.4,3.4,0,0,1,2.37.77,2.81,2.81,0,0,1,.84,2.19,3.29,3.29,0,0,1-.53,1.82,4,4,0,0,1-1.48,1.32C309.8,113.22,310.64,114.44,311.62,115.75Zm-5.57-4.56,1.74,0a2.07,2.07,0,0,0,1.59-2.18,1.69,1.69,0,0,0-.48-1.32,2.18,2.18,0,0,0-1.46-.48l-1.34,0Z"/><path class="cls-1" d="M321.81,114.74l.09.14-.11,1.25h-6l.11-3-.11-7.09h6l.09.14-.13,1.25-2.4-.06h-1.92l-.05,3,1.83,0,1.68,0,.11.13-.13,1.24-1.79,0-1.72,0v1.31l.05,1.86,1.92,0Z"/><path class="cls-1" d="M334,113.1l0,3h-1.75l-4.77-7.6h-.11v4.2l0,3.4H326l.08-3L326,106h1.73l4.78,7.6h.13l0-7.52,1.51-.11Z"/><path class="cls-1" d="M346.4,107.16a4.94,4.94,0,0,1,1.17,3.54,5.93,5.93,0,0,1-1.28,4.09,4.67,4.67,0,0,1-3.68,1.43c-.45,0-1,0-1.63,0l-1.77-.07h0l.11-3L339.2,106h0l3.84-.06A4.41,4.41,0,0,1,346.4,107.16Zm-1.29,6.8a5.91,5.91,0,0,0,0-5.78,2.66,2.66,0,0,0-2.22-.93c-.58,0-1.26,0-2.07.07l-.07,5.62,0,1.88,1.14.08.93,0A2.65,2.65,0,0,0,345.11,114Z"/><path class="cls-1" d="M353.38,112.94l.08,3.19H351.8l.11-3L351.8,106h1.67Z"/><path class="cls-1" d="M365.05,107.17l-5.4,7.68h3.85l1.6-.13.08.1-.15,1.34-2,0h-4.27l-1,.05V115l5.43-7.71h-3.59l-1.62.13-.1-.09L358,106l6.24,0,.85,0Z"/><path class="cls-1" d="M377,116.13h-1.67l-.24-1.14-.44-1.4-2.15,0-1.94,0-.48,1.32-.25,1.22h-1.63L371.84,106h1.91Zm-2.76-3.87-1.46-4.68h-.11L371,112.26l1.6,0Z"/><path class="cls-1" d="M383.26,112.78l0,1.47a3.12,3.12,0,0,1-.64,2,5.88,5.88,0,0,1-2.22,1.49l-.57-.9v-.17a4.91,4.91,0,0,0,1.5-1.08,2.16,2.16,0,0,0,.43-1.37v-1.31l-.06-5.69-1.85,0-.14-.13.09-1.15h3.52Z"/><path class="cls-1" d="M394.44,114.74l.09.14-.11,1.25h-6l.11-3-.11-7.09h6l.09.14-.13,1.25-2.4-.06H390.1l-.05,3,1.83,0,1.67,0,.12.13-.13,1.24-1.79,0-1.72,0v1.31l0,1.86,1.93,0Z"/><path class="cls-1" d="M215,123.49l-.27,1.49-.25.09a5.08,5.08,0,0,0-1-.57,3.07,3.07,0,0,0-1-.2,1.73,1.73,0,0,0-1.23.42,1.32,1.32,0,0,0-.46,1,1.1,1.1,0,0,0,.46.91,7.9,7.9,0,0,0,1.43.81c.57.28,1,.52,1.39.74a3.14,3.14,0,0,1,.9.88,2.17,2.17,0,0,1,.38,1.3,2.7,2.7,0,0,1-.45,1.51A3.13,3.13,0,0,1,213.6,133a4.1,4.1,0,0,1-1.86.4,6,6,0,0,1-1.43-.17,6.07,6.07,0,0,1-1.41-.51l.21-1.61.2-.09a4.06,4.06,0,0,0,1.29.83,3.65,3.65,0,0,0,1.3.27,1.88,1.88,0,0,0,1.31-.43,1.32,1.32,0,0,0,.49-1,1.21,1.21,0,0,0-.47-1,8.85,8.85,0,0,0-1.45-.83,13.5,13.5,0,0,1-1.36-.71,3.2,3.2,0,0,1-.9-.86,2.29,2.29,0,0,1-.37-1.3,2.65,2.65,0,0,1,.45-1.5,3,3,0,0,1,1.23-1.07,4.11,4.11,0,0,1,1.8-.38A6.26,6.26,0,0,1,215,123.49Z"/><path class="cls-1" d="M226.72,124.27a5.45,5.45,0,0,1,1.13,3.69,6,6,0,0,1-1.21,4,4.33,4.33,0,0,1-3.46,1.41A4,4,0,0,1,220,132a6.91,6.91,0,0,1,.08-7.69,4.33,4.33,0,0,1,3.44-1.38A4.07,4.07,0,0,1,226.72,124.27Zm-5.51,1a4.71,4.71,0,0,0-.7,2.85,5.36,5.36,0,0,0,.69,3.07,2.4,2.4,0,0,0,2.12,1,2.52,2.52,0,0,0,2.15-.94,4.9,4.9,0,0,0,.69-2.9,5.34,5.34,0,0,0-.68-3,2.46,2.46,0,0,0-2.13-1A2.53,2.53,0,0,0,221.21,125.22Z"/><path class="cls-1" d="M237.38,132l-.13,1.22H232l.11-3.05L232,123.1h1.67l-.09,7,0,1.83h3.61Z"/><path class="cls-1" d="M242.71,130.05l.08,3.19h-1.66l.11-3.05-.11-7.09h1.68Z"/><path class="cls-1" d="M255.11,124.27a4.93,4.93,0,0,1,1.17,3.53,6,6,0,0,1-1.28,4.1,4.66,4.66,0,0,1-3.68,1.43l-1.63,0-1.77-.07h0l.11-3.05-.11-7.09h0l3.84-.07A4.41,4.41,0,0,1,255.11,124.27Zm-1.29,6.8a5.91,5.91,0,0,0,0-5.78,2.65,2.65,0,0,0-2.21-.93q-.87,0-2.07.06l-.08,5.63,0,1.88,1.13.08.93,0A2.65,2.65,0,0,0,253.82,131.07Z"/><path class="cls-1" d="M267.92,133.24h-1.68L266,132.1l-.45-1.41-2.14,0-1.95,0L261,132l-.25,1.22h-1.63l3.62-10.14h1.91Zm-2.77-3.87-1.45-4.68h-.11l-1.66,4.68,1.6,0Z"/><path class="cls-1" d="M279.13,132.86l0,.19a6.77,6.77,0,0,1-1.56.33l-.19-.13c-.87-1.43-1.58-2.64-2.11-3.63h-1.73v.43l.08,3.19h-1.66l.11-3.05-.11-7.09,3.45,0a3.4,3.4,0,0,1,2.37.77,2.84,2.84,0,0,1,.83,2.19,3.21,3.21,0,0,1-.53,1.82,3.93,3.93,0,0,1-1.47,1.32C277.3,130.33,278.15,131.55,279.13,132.86Zm-5.57-4.57,1.73.05a2.07,2.07,0,0,0,1.6-2.18,1.69,1.69,0,0,0-.48-1.32,2.2,2.2,0,0,0-1.46-.48l-1.35,0Z"/><path class="cls-1" d="M284.89,130.05l.08,3.19h-1.66l.12-3.05-.12-7.09H285Z"/><path class="cls-1" d="M296.93,124.27a5.4,5.4,0,0,1,1.14,3.69,6,6,0,0,1-1.22,4,4.31,4.31,0,0,1-3.46,1.41,4,4,0,0,1-3.21-1.34,6.91,6.91,0,0,1,.08-7.69,4.31,4.31,0,0,1,3.43-1.38A4.07,4.07,0,0,1,296.93,124.27Zm-5.51,1a4.78,4.78,0,0,0-.7,2.85,5.36,5.36,0,0,0,.69,3.07,2.42,2.42,0,0,0,2.12,1,2.51,2.51,0,0,0,2.15-.94,4.89,4.89,0,0,0,.7-2.9,5.26,5.26,0,0,0-.69-3,2.46,2.46,0,0,0-2.13-1A2.54,2.54,0,0,0,291.42,125.22Z"/><path class="cls-1" d="M314.84,133.24h-1.68l-.23-1.14-.45-1.41-2.14,0-1.95,0-.47,1.33-.25,1.22H306l3.62-10.14h1.91Zm-2.77-3.87-1.45-4.68h-.11l-1.66,4.68,1.6,0Z"/><path class="cls-1" d="M320,131.76a.92.92,0,0,1,.22.64,1,1,0,0,1-.24.68.84.84,0,0,1-.65.25.88.88,0,0,1-.64-.23.92.92,0,0,1-.23-.65.86.86,0,0,1,.92-.92A.85.85,0,0,1,320,131.76Z"/><path class="cls-1" d="M330.77,123.68l-.3,1.44-.16,0a3.68,3.68,0,0,0-2.33-.82,2.53,2.53,0,0,0-2.13.94,4.48,4.48,0,0,0-.73,2.8,4.83,4.83,0,0,0,.74,2.9,2.47,2.47,0,0,0,2.12,1,4,4,0,0,0,1.31-.23,4.53,4.53,0,0,0,1.21-.64l.16.1-.13,1.48a6.08,6.08,0,0,1-2.68.66,4.14,4.14,0,0,1-3.29-1.32,5.65,5.65,0,0,1-1.15-3.78,5.76,5.76,0,0,1,1.21-3.9A4.34,4.34,0,0,1,328,123,5.33,5.33,0,0,1,330.77,123.68Z"/><path class="cls-1" d="M335.89,131.76a.87.87,0,0,1,.22.64,1,1,0,0,1-.24.68.84.84,0,0,1-.65.25.85.85,0,0,1-.63-.23.88.88,0,0,1-.23-.65.93.93,0,0,1,.24-.67.92.92,0,0,1,.67-.25A.85.85,0,0,1,335.89,131.76Z"/></svg>