<svg id="Capa_1" data-name="Capa 1" xmlns="http://www.w3.org/2000/svg" viewBox="0 0 500 250"><defs><style>.cls-1{fill:#fdfdff;}</style></defs><title>logo</title><path class="cls-1" d="M175.8,99H170a1.05,1.05,0,0,0-1.16,1.16v2.27H162.8V96.55c0-2.49.85-3.39,3.38-3.39h26.17c2.53,0,3.38.9,3.38,3.39v5.91h-6.08v-2.27A1.05,1.05,0,0,0,188.49,99h-5.76v31.66H175.8Z"/><polygon class="cls-1" points="209.11 124.82 212.86 124.82 212.86 99.03 209.11 99.03 209.11 93.16 223.17 93.16 223.17 99.03 219.41 99.03 219.41 124.82 223.17 124.82 223.17 130.69 209.11 130.69 209.11 124.82"/><path class="cls-1" d="M258.32,115.36,255.09,106c-.68-2.06-1.47-5.6-1.47-5.6h-.11s-.79,3.54-1.48,5.6l-3.22,9.41Zm-22,9.46h.85a1.42,1.42,0,0,0,1.64-1.16L250,93.16h7.24l11.1,30.5a1.41,1.41,0,0,0,1.64,1.16h.84v5.87h-4.12c-2.64,0-3.6-.69-4.44-3.07l-2.33-6.55H247.22l-2.33,6.55c-.84,2.38-1.74,3.07-4.38,3.07h-4.18Z"/><path class="cls-1" d="M283.75,124.82H286a1.05,1.05,0,0,0,1.16-1.16V93.16h6.24l14.22,20.77c1.48,2.17,3.12,5.29,3.12,5.29h.1s-.37-3.12-.37-5.29V96.76c0-2.49,1.06-3.6,3.6-3.6h6.76V99h-2.27a1.06,1.06,0,0,0-1.17,1.16v30.5h-6.18L297,110a54.84,54.84,0,0,1-3.11-5.29h-.11s.37,3.12.37,5.29v17.12c0,2.54-1.06,3.6-3.59,3.6h-6.77Z"/><path class="cls-1" d="M354,92.53c9.19,0,13.68,4.76,13.68,4.76l-3.91,5a16.05,16.05,0,0,0-9.62-3.33c-6.5,0-12.05,5.13-12.05,12.74,0,8.19,5.6,13.21,12.32,13.21a13.59,13.59,0,0,0,9.51-3.91v-2.8a1,1,0,0,0-1.16-1.16h-2.27v-5.87h6.07c2.54,0,3.6,1.06,3.6,3.54v16H364.2v-1.8c0-.79.05-1.58.05-1.58h-.1a16.43,16.43,0,0,1-11,4c-9.83,0-18.24-7.5-18.24-19.61A18.8,18.8,0,0,1,354,92.53"/><path class="cls-1" d="M387.41,100.19A1.05,1.05,0,0,0,386.25,99H384V93.16h6.77c2.54,0,3.59,1.11,3.59,3.6V117.1c0,4.92,3.12,7.77,7.83,7.77S410,122,410,117.05V96.76c0-2.49,1-3.6,3.59-3.6h6.77V99h-2.28a1.05,1.05,0,0,0-1.16,1.16v17.13c0,8.29-5.87,14-14.69,14s-14.8-5.71-14.8-14Z"/><polygon class="cls-1" points="434.3 124.82 438.05 124.82 438.05 99.03 434.3 99.03 434.3 93.16 448.36 93.16 448.36 99.03 444.6 99.03 444.6 124.82 448.36 124.82 448.36 130.69 434.3 130.69 434.3 124.82"/><path class="cls-1" d="M466.54,120.65s3.86,4.43,9.09,4.43c2.86,0,5.39-1.53,5.39-4.43,0-6.4-17.65-5.87-17.65-17.55,0-6.08,5.29-10.57,12.53-10.57,4.38,0,11.15,2.06,11.15,7.4v3.48h-6.24v-1.69c0-1.74-2.48-2.9-5-2.9-3.17,0-5.49,1.64-5.49,4,0,6.39,17.65,5.12,17.65,17.43,0,6-4.6,11-12.47,11a17.3,17.3,0,0,1-12.9-5.81Z"/><path class="cls-1" d="M171.07,156.12c2.24,0,3.59-2.34,3.59-4.37v-.53H174c-1.84,0-5.53,0-5.53,2.68a2.33,2.33,0,0,0,2.62,2.22M174,150h.66v-.15c0-2.44-.89-3.31-3-3.31-.58,0-2.28.17-2.28,1v.75h-1.52v-1.13c0-1.63,2.8-2,3.83-2,3.71,0,4.59,2,4.59,4.51v5.62a.46.46,0,0,0,.52.51h1v1.38h-1.61c-1,0-1.4-.44-1.4-1.4,0-.51,0-.86,0-.86h-.05a4.17,4.17,0,0,1-3.89,2.54c-2,0-4-1.14-4-3.48,0-3.9,5.15-4,7.18-4"/><path class="cls-1" d="M184.89,142.67a.46.46,0,0,0-.51-.51h-1v-1.38h1.66c1,0,1.42.42,1.42,1.43V155.3a.45.45,0,0,0,.51.51h1v1.38h-1.65c-1,0-1.43-.42-1.43-1.42Z"/><path class="cls-1" d="M195.44,146.78H193.9v-1.33h1.56v-3.24H197v3.24H200v1.33H197v6c0,2.75,1.75,3.1,2.63,3.1a2.57,2.57,0,0,0,.54-.05v1.43a5.32,5.32,0,0,1-.68,0c-1.35,0-4.08-.44-4.08-4.36Z"/><path class="cls-1" d="M215.52,150.12c-.09-2.43-1.58-3.62-3.31-3.62a4,4,0,0,0-4,3.62Zm-3.29-5c3.25,0,4.93,2.5,4.93,5.42,0,.28,0,.79,0,.79h-9a4.46,4.46,0,0,0,4.55,4.67,5.24,5.24,0,0,0,3.53-1.45l.77,1.19a6.69,6.69,0,0,1-4.37,1.68,5.94,5.94,0,0,1-6.13-6.14c0-3.85,2.63-6.16,5.78-6.16"/><path class="cls-1" d="M225,147.34a.47.47,0,0,0-.51-.51h-1v-1.38h1.63c1,0,1.43.4,1.43,1.33v.79a8,8,0,0,1-.05.89h.05a4,4,0,0,1,3.71-3.13,3.26,3.26,0,0,1,.63.07V147a4,4,0,0,0-.59-.05c-1.65,0-2.89,1.31-3.4,3a7.6,7.6,0,0,0-.33,2.29v4.95H225Z"/><path class="cls-1" d="M238.26,147.34a.46.46,0,0,0-.51-.51h-1v-1.38h1.64c1,0,1.42.42,1.42,1.31v.53a7.27,7.27,0,0,1-.05.85h.05a5,5,0,0,1,4.66-3c2.92,0,3.95,1.66,3.95,4.55v5.58a.45.45,0,0,0,.51.51h1v1.38h-1.65c-1,0-1.43-.42-1.43-1.42v-5.63c0-1.84-.28-3.48-2.54-3.48A4.45,4.45,0,0,0,240,150a5.83,5.83,0,0,0-.19,1.59v5.62h-1.59Z"/><path class="cls-1" d="M260.26,156.12c2.24,0,3.59-2.34,3.59-4.37v-.53h-.67c-1.85,0-5.53,0-5.53,2.68a2.33,2.33,0,0,0,2.61,2.22M263.2,150h.65v-.15c0-2.44-.88-3.31-3-3.31-.58,0-2.29.17-2.29,1v.75H257v-1.13c0-1.63,2.8-2,3.82-2,3.71,0,4.6,2,4.6,4.51v5.62a.45.45,0,0,0,.51.51h1v1.38h-1.6c-1,0-1.4-.44-1.4-1.4,0-.51,0-.86,0-.86h-.05a4.18,4.18,0,0,1-3.9,2.54c-2,0-4-1.14-4-3.48,0-3.9,5.16-4,7.19-4"/><path class="cls-1" d="M274.26,146.78h-1.54v-1.33h1.56v-3.24h1.56v3.24h2.94v1.33h-2.94v6c0,2.75,1.75,3.1,2.64,3.1a2.57,2.57,0,0,0,.54-.05v1.43a5.32,5.32,0,0,1-.68,0c-1.35,0-4.08-.44-4.08-4.36Z"/><path class="cls-1" d="M286.66,140.78h1.54v2h-1.54Zm0,6.56a.47.47,0,0,0-.51-.51h-1v-1.38h1.65c1,0,1.43.42,1.43,1.42v8.43a.45.45,0,0,0,.51.51h1v1.38h-1.66c-1,0-1.42-.42-1.42-1.42Z"/><path class="cls-1" d="M296.32,147.36a.74.74,0,0,0-.82-.53h-.21v-1.38h.63c1.12,0,1.47.23,1.87,1.28l2.82,7.33c.21.59.4,1.38.4,1.38h.05s.18-.79.39-1.38l2.83-7.33c.39-1,.74-1.28,1.84-1.28h.61v1.38h-.21a.72.72,0,0,0-.82.53l-3.83,9.83h-1.72Z"/><path class="cls-1" d="M318.62,156.05a4.63,4.63,0,0,0,4.55-4.79,4.56,4.56,0,1,0-9.12,0,4.63,4.63,0,0,0,4.57,4.79m0-10.88a6.15,6.15,0,1,1-6.18,6.09,6.08,6.08,0,0,1,6.18-6.09"/><path class="cls-1" d="M351.54,151.31c0-2.38-1.22-4.71-3.74-4.71-2.07,0-3.78,1.74-3.78,4.71s1.52,4.74,3.71,4.74c2,0,3.81-1.4,3.81-4.74m-3.88-6.14a4.15,4.15,0,0,1,3.83,2.19h.05a7.71,7.71,0,0,1-.05-.88v-3.81a.47.47,0,0,0-.51-.51h-1v-1.38h1.65c1,0,1.43.42,1.43,1.43V155.3a.45.45,0,0,0,.51.51h1v1.38h-1.63c-1,0-1.4-.44-1.4-1.31a6.19,6.19,0,0,1,0-.74h0a4.25,4.25,0,0,1-4,2.33c-3.15,0-5.11-2.52-5.11-6.16s2.19-6.14,5.27-6.14"/><path class="cls-1" d="M369.8,150.12c-.1-2.43-1.59-3.62-3.32-3.62a4,4,0,0,0-4,3.62Zm-3.29-5c3.24,0,4.92,2.5,4.92,5.42,0,.28,0,.79,0,.79h-9a4.45,4.45,0,0,0,4.55,4.67,5.2,5.2,0,0,0,3.52-1.45l.77,1.19a6.65,6.65,0,0,1-4.36,1.68,6,6,0,0,1-6.14-6.14c0-3.85,2.64-6.16,5.79-6.16"/><path class="cls-1" d="M396,149.3a3.32,3.32,0,0,0,3.59-3.57,3.28,3.28,0,0,0-3.57-3.5h-3.59v7.07Zm-5.21-7.07h-1.52v-1.45h6.94a5,5,0,1,1,0,10h-3.78v6.44h-1.64Z"/><path class="cls-1" d="M408.4,147.34a.47.47,0,0,0-.51-.51h-1v-1.38h1.66c1,0,1.42.42,1.42,1.38v5.67c0,1.84.31,3.48,2.57,3.48,2.66,0,4.32-2.36,4.32-4.9v-5.63h1.59v9.85a.45.45,0,0,0,.51.51h1v1.38h-1.61c-1,0-1.42-.42-1.42-1.31v-.53c0-.47,0-.84,0-.84h0a5,5,0,0,1-4.58,3c-2.77,0-3.94-1.49-3.94-4.55Z"/><path class="cls-1" d="M435.16,150.12c-.1-2.43-1.59-3.62-3.32-3.62a4,4,0,0,0-4,3.62Zm-3.29-5c3.24,0,4.92,2.5,4.92,5.42,0,.28-.05.79-.05.79h-9a4.46,4.46,0,0,0,4.55,4.67,5.24,5.24,0,0,0,3.53-1.45l.77,1.19a6.65,6.65,0,0,1-4.36,1.68,6,6,0,0,1-6.14-6.14c0-3.85,2.63-6.16,5.79-6.16"/><path class="cls-1" d="M449.83,156.07c2.08,0,3.78-1.75,3.78-4.74s-1.54-4.71-3.71-4.71c-2,0-3.81,1.4-3.81,4.74,0,2.35,1.22,4.71,3.74,4.71m-5.28-13.4a.46.46,0,0,0-.51-.51h-1v-1.38h1.66c1,0,1.42.42,1.42,1.43v4.24a9,9,0,0,1-.05,1h.05a4.25,4.25,0,0,1,4-2.24c3.15,0,5.11,2.52,5.11,6.16s-2.21,6.14-5.29,6.14a4.28,4.28,0,0,1-3.86-2.26h0s0,.39,0,.95v1h-1.54Z"/><path class="cls-1" d="M462.68,142.67a.47.47,0,0,0-.52-.51h-1v-1.38h1.66c1,0,1.42.42,1.42,1.43V155.3a.46.46,0,0,0,.52.51h1v1.38H464.1c-1,0-1.42-.42-1.42-1.42Z"/><path class="cls-1" d="M476.23,156.12c2.24,0,3.6-2.34,3.6-4.37v-.53h-.68c-1.84,0-5.53,0-5.53,2.68a2.33,2.33,0,0,0,2.61,2.22m2.94-6.16h.66v-.15c0-2.44-.89-3.31-3-3.31-.58,0-2.29.17-2.29,1v.75H473v-1.13c0-1.63,2.8-2,3.83-2,3.71,0,4.59,2,4.59,4.51v5.62a.46.46,0,0,0,.52.51h1v1.38H481.3c-1,0-1.4-.44-1.4-1.4,0-.51,0-.86,0-.86h-.05a4.13,4.13,0,0,1-3.89,2.54c-2,0-4-1.14-4-3.48,0-3.9,5.16-4,7.19-4"/><path class="cls-1" d="M117,124.32h0c4.24-1.1,10.42-8.12,6.85-17.24-3.84-9.8-17.58-24-28.61-28.81C84.82,73.73,77.67,82,76.88,84.85c-1.84-4.15-9.13-9.34-17.71-6-9.79,3.83-23.88,17.68-28.7,28.71-4.2,9.6,2.8,16.45,6.14,18.08a13.5,13.5,0,0,0-5.85,17.74c4.79,11,18.88,24.89,28.66,28.75s17.27-3.35,17.68-7.56v.49c0,2.2,7.12,11.4,18.16,6.62s24.76-19,28.62-28.8S121.16,124.55,117,124.32Zm-49-8.61a13.63,13.63,0,1,1,0,19.27A13.63,13.63,0,0,1,67.93,115.71Zm48.26-11.9c4.38,5.3,3.43,13.57-.48,15.59-4.39.84-14.71,2.11-17.15,2.41a21.09,21.09,0,0,0-4.69-10.16c2.63-2.35,11.26-9.32,13-10.65S111.81,98.51,116.19,103.81ZM81.61,86.44c.55-1.32,6.56-8,14.25-2.56s4.6,9.36,3.83,10.78-10.17,13-10.17,13l0,0a21.25,21.25,0,0,0-9.18-3.51l0,0S81.06,87.76,81.61,86.44Zm-25.81,0C61.1,82,69.37,83,71.39,86.87c.89,4.66,2.27,16,2.45,17.5a21.17,21.17,0,0,0-10,4.65C61.66,106.56,54.35,97.49,53,95.69S50.5,90.77,55.8,86.39ZM35.87,106.72c5.4-7.69,9.36-4.61,10.79-3.83s14.07,9.36,14.07,9.36l.09-.09a21.15,21.15,0,0,0-4.29,9.75l-.32.32s-16.46-.71-17.78-1.26S30.47,114.41,35.87,106.72Zm.38,37.46c-5.38-7.71,1.29-13.69,2.61-14.24s16.24-1.14,17.66-1.2a21.18,21.18,0,0,0,4.14,9.6c-.71.51-12.25,9-13.63,9.71S41.63,151.89,36.25,144.18Zm35.46,20c-2,3.89-10.31,4.82-15.59.42s-4.16-7.49-2.78-9.31S62.08,144.43,64.27,142a21.27,21.27,0,0,0,9.88,4.36l.08.09S72.68,159.14,71.71,164.15Zm24.06,1.77c-7.71,5.38-13.69-1.28-14.24-2.6-.47-1.13-1-13.35-1.17-16.85A21.09,21.09,0,0,0,90.88,142c1.87,2.74,8.1,11.93,8.75,13.15C100.4,156.58,103.48,160.55,95.77,165.92Zm20.39-19.86c-4.4,5.28-7.5,4.15-9.31,2.78s-9.51-7.65-12.55-10.3A21.22,21.22,0,0,0,98.69,128c2.61.32,12.71,1.6,17,2.44C119.63,132.5,120.56,140.77,116.16,146.06Z"/><path class="cls-1" d="M81.3,70.27a6.07,6.07,0,1,0-8.58,0A6.08,6.08,0,0,0,81.3,70.27Z"/><path class="cls-1" d="M13.79,120.65a6.07,6.07,0,1,0,8.58,0A6.07,6.07,0,0,0,13.79,120.65Z"/><path class="cls-1" d="M140.16,120.66a6.07,6.07,0,1,0,0,8.59A6.07,6.07,0,0,0,140.16,120.66Z"/><path class="cls-1" d="M79.86,178.67a6.07,6.07,0,1,0,2.52,8.21A6.07,6.07,0,0,0,79.86,178.67Z"/></svg>